<svg id="Layer_1" data-name="Layer 1" xmlns="http://www.w3.org/2000/svg" width="195" height="150" viewBox="0 0 195 150">
  <defs>
    <style>
      .cls-1 {
        fill: #5dc9f9;
      }

      .cls-2 {
        fill: #e0ce93;
      }

      .cls-3 {
        fill: #d4d7d7;
      }
    </style>
  </defs>
  <g>
    <ellipse class="cls-1" cx="99.19" cy="74.62" rx="36.29" ry="49.81" transform="translate(-13.52 126.61) rotate(-61.72)"/>
    <path class="cls-1" d="M118.12,83.46l73-2.18a2.09,2.09,0,0,1,1.9,3.07l-34.59,64.28a2.09,2.09,0,0,1-3.62.11L116.4,86.65A2.1,2.1,0,0,1,118.12,83.46Z"/>
    <path class="cls-1" d="M78.6,63.35,40.23,1.26a2.09,2.09,0,0,0-3.62.11L2,65.65a2.09,2.09,0,0,0,1.9,3.07l73-2.18A2.1,2.1,0,0,0,78.6,63.35Z"/>
    <rect class="cls-2" x="137.68" y="79.55" width="4.16" height="34.43" rx="0.38" transform="translate(62.54 -54.67) rotate(28.28)"/>
    <rect class="cls-2" x="55.56" y="36.78" width="3.98" height="34.43" rx="0.38" transform="translate(28.09 -19.21) rotate(24.9)"/>
    <path class="cls-3" d="M126.66,109.33c-1.91.88-21.39,4.52-32,.52s-25-12.72-23.82-14.46,4.2,1.52,14.4,6.48C102.25,110.16,129.69,107.91,126.66,109.33Z"/>
  </g>
</svg>
