<svg id="Layer_1" data-name="Layer 1" xmlns="http://www.w3.org/2000/svg" width="156" height="120" viewBox="0 0 156 120">
  <defs>
    <style>
      .cls-1 {
        fill: #fff;
      }

      .cls-2 {
        fill: #e86dbf;
      }
    </style>
  </defs>
  <g>
    <path class="cls-1" d="M21.48,35.22a11.19,11.19,0,0,1,4.88-12.31,11.19,11.19,0,0,1,13.15,1.51c-2.25-4.45,1-10.28,5.74-11.87s10.06.26,13.91,3.43c1-5.22,4.3-10.28,9.33-12S80,5.18,81.07,10.38a15.85,15.85,0,0,1,28.27-.75c4.72-3.91,11.48-5.94,17.1-3.49s8.64,10.33,4.87,15.16c5.48-1.85,12.27-.69,15.74,3.93s1.78,12.62-3.74,14.33c5.34,2.84,10.35,7.51,11,13.53s-5.42,12.48-11.08,10.35c.92,5.67,1.13,11.85-1.79,16.81s-9.94,7.82-14.69,4.59a23.55,23.55,0,0,1-34.57,23.37,10.53,10.53,0,0,1-20.36,1.91,18.93,18.93,0,0,1-19,8.26c-4.29-.81-8.81-5.71-5.92-9L33,112.12c-3.19.62-6.74,1.18-9.46-.59s-3-6.88.16-7.69A27.46,27.46,0,0,1,7.36,97c-2.76-2.47-5.12-5.81-5.05-9.51s3.51-7.4,7.13-6.6c-4.51-4-8.39-9.51-7.68-15.46s8.16-10.81,13-7.25C9.9,54.8,6.08,49.07,7.06,43.24s8.51-10.15,13.24-6.61"/>
    <path class="cls-2" d="M81.35,61.8a2.58,2.58,0,0,1-1.21,2.7c.33-.16.35.11-.08-.09s-.58-.2-.85-.36a4.82,4.82,0,0,1-1.42-1.39c-1.64-2.43-.77-5.51,1.27-7.39,4.2-3.9,11.06-1.09,13.22,3.66a9.26,9.26,0,0,1,.09,7.79c-1.24,2.62-3.74,4.67-6.18,6.14-4.72,2.85-10.71,3.75-15.42.32a15.68,15.68,0,0,1-6.12-12.81C64.71,55,67.88,50.15,72.18,47c9.5-6.88,24.1-4.82,31.34,4.4A18.24,18.24,0,0,1,106.8,68c-1.72,5.68-5.85,10.35-10.29,14.13-9.16,7.79-21.4,14.38-33.79,13.15-10.79-1.08-21.66-8-24.13-19-1.41-6.32-.48-13.23,1-19.47a47,47,0,0,1,6.57-15.7A30.43,30.43,0,0,1,58.64,30.21c5.89-2.66,12.4-3.53,18.78-4.09,13.16-1.15,27.59-.4,38.47,8a30.47,30.47,0,0,1,5.94,6c.81,1.09,5.16-.4,4.21-1.68-9.16-12.29-25.58-15.39-40-15-14.62.4-31,2.48-41.26,14.08a44.19,44.19,0,0,0-9,17.2c-1.93,6.75-3.11,14.4-2,21.38C36,89.44,49.39,97.06,62,97.67A47.65,47.65,0,0,0,83.84,93a68,68,0,0,0,18.3-12.2c4.85-4.59,9.3-10.44,9.89-17.32a20.24,20.24,0,0,0-7.82-17.27c-11-8.77-29.07-6.87-38.76,3.06a17.53,17.53,0,0,0-4.89,16.13A15.47,15.47,0,0,0,71.62,77.22c7.09,1.8,15-1,20.5-5.5,2.57-2.06,5-4.77,5.48-8.16a10.8,10.8,0,0,0-2.45-8.43c-4.56-5.43-13.6-4.91-18.92-1-2.49,1.84-4.5,5-3.64,8.15a6.14,6.14,0,0,0,7.07,4.37c3-.43,6.73-2.6,6.2-6.06-.2-1.32-4.74-.3-4.51,1.2Z"/>
  </g>
</svg>
