<svg id="Layer_1" data-name="Layer 1" xmlns="http://www.w3.org/2000/svg" xmlns:xlink="http://www.w3.org/1999/xlink" width="1920" height="1080" viewBox="0 0 1920 1080">
  <defs>
    <style>
      .cls-1 {
        fill: #efe1e1;
      }

      .cls-2 {
        fill: #ccc;
      }

      .cls-3 {
        fill: #c6c6c6;
      }

      .cls-26, .cls-4 {
        fill: #606060;
      }

      .cls-5 {
        fill: #7f7773;
      }

      .cls-6 {
        fill: #6b6b6a;
      }

      .cls-7 {
        fill: #68605d;
      }

      .cls-8 {
        fill: #a3a0a0;
      }

      .cls-9 {
        fill: #686868;
      }

      .cls-10 {
        fill: #7c7c7c;
      }

      .cls-11 {
        fill: #848383;
      }

      .cls-12 {
        fill: #6b6b6b;
      }

      .cls-13 {
        fill: #d6b7ae;
      }

      .cls-14 {
        fill: #c9a093;
      }

      .cls-15 {
        fill: #a5a5a5;
      }

      .cls-16 {
        fill: #f2eeeb;
      }

      .cls-17 {
        fill: #c4bfbb;
      }

      .cls-18 {
        fill: #d68585;
      }

      .cls-19 {
        fill: #d8a884;
      }

      .cls-20 {
        fill: #7dba74;
      }

      .cls-21 {
        fill: #baef7b;
      }

      .cls-22 {
        fill: #595959;
      }

      .cls-23 {
        fill: #232219;
      }

      .cls-24 {
        opacity: 0.6;
      }

      .cls-25 {
        fill: #fff;
      }

      .cls-26 {
        opacity: 0.2;
      }

      .cls-27 {
        fill: #eae3df;
      }

      .cls-28 {
        opacity: 0.4;
        fill: url(#linear-gradient);
      }

      .cls-29 {
        opacity: 0.5;
      }

      .cls-30 {
        fill: #f7efed;
      }

      .cls-31 {
        fill: #474747;
      }

      .cls-32 {
        fill: #af3c02;
      }
    </style>
    <linearGradient id="linear-gradient" x1="924.46" y1="2.1" x2="924.46" y2="903.1" gradientUnits="userSpaceOnUse">
      <stop offset="0" stop-color="#ff0"/>
      <stop offset="0.71" stop-color="#fff" stop-opacity="0"/>
    </linearGradient>
  </defs>
  <g>
    <rect class="cls-1" x="5.09" y="-0.9" width="1914" height="952"/>
    <rect class="cls-2" x="833.57" y="-1.09" width="13" height="1079"/>
    <rect class="cls-2" x="917.61" y="-1.09" width="13" height="1079"/>
    <rect class="cls-2" x="1001.66" y="-1.09" width="13" height="1079"/>
    <g>
      <rect class="cls-2" x="77.14" y="-1.09" width="13" height="1079"/>
      <rect class="cls-2" x="161.19" y="-1.09" width="13" height="1079"/>
      <rect class="cls-2" x="245.23" y="-1.09" width="13" height="1079"/>
      <rect class="cls-2" x="329.28" y="-1.09" width="13" height="1079"/>
      <rect class="cls-2" x="413.33" y="-1.09" width="13" height="1079"/>
      <rect class="cls-2" x="497.38" y="-1.09" width="13" height="1079"/>
      <rect class="cls-2" x="665.47" y="-1.09" width="13" height="1079"/>
      <rect class="cls-2" x="581.42" y="-1.09" width="13" height="1079"/>
      <rect class="cls-2" x="749.52" y="-1.09" width="13" height="1079"/>
      <rect class="cls-2" x="955.06" y="-889.28" width="13" height="1916.01" transform="translate(1031.63 -892.73) rotate(90.08)"/>
      <rect class="cls-2" x="954.94" y="-805.23" width="13" height="1916.01" transform="translate(1115.56 -808.45) rotate(90.08)"/>
      <rect class="cls-2" x="954.82" y="-721.18" width="13" height="1916.01" transform="translate(1199.49 -724.17) rotate(90.08)"/>
      <rect class="cls-2" x="954.71" y="-637.13" width="13" height="1916.01" transform="translate(1283.42 -639.89) rotate(90.08)"/>
      <rect class="cls-2" x="954.59" y="-553.09" width="13" height="1916.01" transform="translate(1367.35 -555.6) rotate(90.08)"/>
      <rect class="cls-2" x="954.47" y="-469.04" width="13" height="1916.01" transform="translate(1451.28 -471.32) rotate(90.08)"/>
      <rect class="cls-2" x="954.35" y="-384.99" width="13" height="1916.01" transform="translate(1535.21 -387.04) rotate(90.08)"/>
      <rect class="cls-2" x="954.12" y="-216.9" width="13" height="1916.01" transform="translate(1703.07 -218.47) rotate(90.08)"/>
      <rect class="cls-2" x="954.24" y="-300.94" width="13" height="1916.01" transform="translate(1619.14 -302.76) rotate(90.08)"/>
    </g>
    <rect class="cls-2" x="1085.71" y="-1.09" width="13" height="1079"/>
    <rect class="cls-2" x="1169.76" y="-1.09" width="13" height="1079"/>
    <rect class="cls-2" x="1253.81" y="-1.09" width="13" height="1079"/>
    <rect class="cls-2" x="1421.9" y="-1.09" width="13" height="1079"/>
    <rect class="cls-2" x="1337.85" y="-1.09" width="13" height="1079"/>
    <rect class="cls-2" x="1505.95" y="-1.09" width="13" height="1079"/>
    <rect class="cls-2" x="1590" y="-1.09" width="13" height="1079"/>
    <rect class="cls-2" x="1758.09" y="-1.09" width="13" height="1079"/>
    <rect class="cls-2" x="1674.04" y="-1.09" width="13" height="1079"/>
    <rect class="cls-3" x="1839.04" y="0.1" width="13.05" height="1070.82"/>
  </g>
  <rect class="cls-4" x="953.64" y="-137.97" width="13" height="1926.24" transform="translate(1786.64 -133.84) rotate(90.08)"/>
  <rect class="cls-4" x="953.53" y="-53.92" width="13" height="1926.24" transform="translate(1870.57 -49.55) rotate(90.08)"/>
  <rect class="cls-4" x="953.41" y="30.12" width="13" height="1926.24" transform="translate(1954.5 34.73) rotate(90.08)"/>
  <rect class="cls-4" x="953.29" y="114.17" width="13" height="1926.24" transform="translate(2038.43 119.01) rotate(90.08)"/>
  <rect class="cls-5" x="2.09" y="811.1" width="1920" height="271"/>
  <path class="cls-6" d="M1491.09,811.1l-415,219c-9.1,5.25-125.8-38.92-128.71-44l-19.77-30.08c-2.91-5,2.15-13.46,11.25-18.72l270.51-137.26c6.07,6.83-20.62,5.76-17.71,10.79Z"/>
  <rect class="cls-7" x="50.37" y="236.1" width="435" height="45.36"/>
  <rect class="cls-5" x="48.75" y="236.1" width="435.81" height="34.83"/>
  <g>
    <rect class="cls-8" x="76.28" y="244.12" width="12.15" height="205.75"/>
    <ellipse class="cls-8" cx="54.34" cy="462.4" rx="37.26" ry="34.16" transform="matrix(0.87, -0.5, 0.5, 0.87, -223.92, 89.12)"/>
    <ellipse class="cls-9" cx="51.01" cy="460.14" rx="31.95" ry="25" transform="translate(-269.05 125.63) rotate(-37.41)"/>
  </g>
  <g>
    <rect class="cls-8" x="279.57" y="254.73" width="16.2" height="85.03"/>
    <ellipse class="cls-8" cx="287.67" cy="424.12" rx="84.65" ry="87.97"/>
    <ellipse class="cls-10" cx="289.05" cy="424.12" rx="67.99" ry="70.66"/>
  </g>
  <g>
    <rect class="cls-8" x="434.92" y="254.73" width="12.3" height="64.54"/>
    <ellipse class="cls-8" cx="441.07" cy="383.32" rx="64.26" ry="66.78"/>
    <ellipse class="cls-11" cx="442.11" cy="383.32" rx="51.61" ry="53.64"/>
  </g>
  <g>
    <rect class="cls-8" x="158.84" y="254.73" width="12.15" height="205.75"/>
    <path class="cls-12" d="M178.49,435.76l17.67,30.6A15.09,15.09,0,0,1,183.09,489H147.76a15.09,15.09,0,0,1-13.07-22.63l17.67-30.6A15.08,15.08,0,0,1,178.49,435.76Z"/>
  </g>
  <g>
    <rect class="cls-7" x="1298.09" y="480.68" width="546.18" height="7.85"/>
    <polygon class="cls-7" points="1914.07 417.53 1844.27 488.52 1844.42 479.86 1915.09 408.1 1914.07 417.53"/>
    <polygon class="cls-5" points="1844.27 480.68 1298.09 480.68 1369.82 408.1 1915.09 408.1 1844.27 480.68"/>
  </g>
  <polygon class="cls-6" points="1788.27 883.67 1242.09 883.67 1313.82 811.1 1859.09 811.1 1788.27 883.67"/>
  <g>
    <path class="cls-13" d="M1488.09,414.73c0,24.5-24.2,44.37-54,44.37s-54-19.87-54-44.37,24.39-32.63,54.24-32.63S1488.09,390.23,1488.09,414.73Z"/>
    <path class="cls-14" d="M1479.38,406.47c0,8.61-18.44,14.67-44.58,14.67s-45.27-6.06-45.27-14.67,19.3-20.17,45.44-20.17S1479.38,397.86,1479.38,406.47Z"/>
  </g>
  <g>
    <rect class="cls-15" x="1519.62" y="349.81" width="77.47" height="103.82" rx="12"/>
    <path class="cls-16" d="M1531.09,326.1h54a12,12,0,0,1,12,12v20.68a0,0,0,0,1,0,0h-78a0,0,0,0,1,0,0V338.1A12,12,0,0,1,1531.09,326.1Z"/>
  </g>
  <g>
    <rect class="cls-17" x="1712.62" y="286.81" width="77.47" height="163.28" rx="5.5"/>
    <path class="cls-16" d="M1724.09,277.1h54a12,12,0,0,1,12,12v4a0,0,0,0,1,0,0h-78a0,0,0,0,1,0,0v-4A12,12,0,0,1,1724.09,277.1Z"/>
  </g>
  <g>
    <path class="cls-18" d="M1626.82,374.93h10a12,12,0,0,1,12,12v42.21a2,2,0,0,1-2,2h-30.1a2,2,0,0,1-2-2V386.93A12,12,0,0,1,1626.82,374.93Z"/>
    <path class="cls-16" d="M1626.58,368.1h10.51a12,12,0,0,1,12,12v6a0,0,0,0,1,0,0h-34.51a0,0,0,0,1,0,0v-6A12,12,0,0,1,1626.58,368.1Z"/>
  </g>
  <g>
    <path class="cls-19" d="M1649.82,404.93h10a12,12,0,0,1,12,12v42.21a2,2,0,0,1-2,2h-30.1a2,2,0,0,1-2-2V416.93A12,12,0,0,1,1649.82,404.93Z"/>
    <path class="cls-16" d="M1649.58,398.1h10.51a12,12,0,0,1,12,12v6a0,0,0,0,1,0,0h-34.51a0,0,0,0,1,0,0v-6A12,12,0,0,1,1649.58,398.1Z"/>
  </g>
  <path class="cls-6" d="M1490.29,887.74l-76,73.22a7.46,7.46,0,0,1-11.3,1.64l-32.09-24.76c-3.46-3.09,1.86-7.8,5.49-10.67l82-64.89C1465,857.1,1494.69,880.63,1490.29,887.74Z"/>
  <g>
    <path class="cls-20" d="M1490.33,883.9c10.7,28.69-5.34,62.65-37.3,77.37s-68.2,4.83-83-21.95Z"/>
    <path class="cls-21" d="M1482.71,887.41c9,24.38-5.22,53.52-33.13,66.37s-59.32,4.75-72-18Z"/>
  </g>
  <g>
    <path class="cls-22" d="M313.26,898.7,541.6,990.22S394,987,339.36,968.93s-49.92-27.7-49.92-27.7l17.48-45"/>
    <rect class="cls-23" x="211.83" y="800.81" width="31.71" height="160.34" transform="translate(1130.69 993.03) rotate(111.56)"/>
  </g>
  <g class="cls-24">
    <g>
      <path class="cls-20" d="M1489.75,884.61c10.64,28.72-5.5,62.66-37.48,77.3s-68.21,4.67-83-22.15Z"/>
      <path class="cls-21" d="M1482.12,888.11c9,24.4-5.35,53.51-33.29,66.3-15.53,7.1-32.12,7.73-46,3l-.69-.24c-10.75-3.86-19.79-11-25.26-20.89Z"/>
    </g>
    <polygon class="cls-25" points="1429.81 911.64 1449.26 954.14 1448.17 954.64 1428.87 912.48 1429.48 912.2 1429.62 911.96 1429.81 911.64"/>
    <polygon class="cls-25" points="1376.94 935.99 1482.33 887.51 1483.13 889.26 1377.61 937.45 1376.94 935.99 1376.94 935.99 1376.94 935.99"/>
    <polygon class="cls-25" points="1429.48 912.2 1429.15 912.76 1429.07 912.91 1402.86 957.39 1402.79 957.51 1402.17 957.15 1401.93 957 1427.56 913.49 1427.89 912.93 1429.48 912.2"/>
    <polygon class="cls-25" points="1480.96 921.48 1480.76 922.45 1430.5 912.14 1429.99 912.03 1429.88 912.02 1429.62 911.96 1429.81 911.64 1429.96 911.98 1431.42 911.31 1432.03 911.44 1480.96 921.48"/>
    <polygon class="cls-25" points="1443.42 905.82 1443.57 906.16 1416.3 918.64 1416.14 918.3 1429.48 912.2 1429.62 911.96 1429.81 911.64 1429.96 911.98 1443.42 905.82"/>
    <path class="cls-25" d="M1437.63,910c.46,1-2.63,3.4-6.9,5.35s-8.1,2.73-8.56,1.72,3.5-2.7,7.77-4.65S1437.17,909,1437.63,910Z"/>
  </g>
  <rect class="cls-26" x="-27" y="-36" width="1944" height="856" rx="12"/>
  <path class="cls-6" d="M1719.7,911.93l-105.59,46.65c-11.1,4.91-24,.27-28.69-10.31l-9.17-20.75c-4.68-10.58.59-23.26,11.69-28.16l106.57-47.1a12.45,12.45,0,0,1,15.72,4.62,9,9,0,0,0,2,2.38l21.86,18c2.69,2.21,19,1.49,18,4.87-2.38,8.29-25.2,24-30.09,28.35A9.13,9.13,0,0,1,1719.7,911.93Z"/>
  <g>
    <ellipse class="cls-20" cx="1579.28" cy="899.24" rx="68.49" ry="70.24" transform="translate(394.37 2277.2) rotate(-78.96)"/>
    <path class="cls-27" d="M1597.82,835c-.3,1.49-2.74,2-5.9,1.35s-6-1.49-5.67-3,3-1.91,6.2-1.3S1598.11,833.46,1597.82,835Z"/>
  </g>
  <polygon class="cls-28" points="1425.4 894.59 1412.4 860.22 1341.35 672.36 1328.35 637.99 1257.3 450.14 1244.3 415.77 1173.26 227.94 1160.26 193.57 1089.21 5.72 1088.98 5.1 1088.91 4.92 1087.84 2.1 761.06 2.1 759.93 5.1 753.02 23.36 740.02 57.73 668.97 245.59 655.97 279.96 584.92 467.82 571.92 502.19 500.88 690.02 487.88 724.39 420.29 903.1 1428.62 903.1 1425.4 894.59"/>
  <g>
    <g class="cls-29">
      <rect x="1479.09" y="34.96" width="437" height="82" rx="12"/>
      <g>
        <path d="M1489,92.18V57.61c0-3.4,1.57-5.25,4.47-5.25h7.6c14.29,0,18.92,5.75,18.92,17.5s-4.63,17.2-18.79,17.2h-1.42v5.12c0,3.41-1.58,5.25-4.48,5.25h-1.83C1490.59,97.43,1489,95.59,1489,92.18Zm20-22.53c0-4.06-1.57-6.48-6-6.48h-3.18v13.1H1503C1507.44,76.27,1509,73.77,1509,69.65Z"/>
        <path d="M1523.84,75c0-16.06,8.69-22.95,18.4-22.95,9.55,0,18.31,6.89,18.31,22.95,0,16.37-8.71,22.94-18.42,22.94S1523.84,91.33,1523.84,75Zm26,0c0-7.62-3.14-11.91-7.64-11.91-4.67,0-7.73,4.27-7.73,11.91,0,8,3,12,7.69,12S1549.81,82.87,1549.81,74.92Z"/>
        <path d="M1566.7,92.18V57.61c0-3.4,1.57-5.25,4.47-5.25H1573c2.89,0,4.47,1.85,4.47,5.25V92.18c0,3.41-1.58,5.25-4.47,5.25h-1.84C1568.27,97.43,1566.7,95.59,1566.7,92.18Z"/>
        <path d="M1585.11,92.18V57.61c0-3.4,1.58-5.25,4.48-5.25h2.32c2.45,0,4.08,1.1,5.38,3.59l11.16,21.39V57.61c0-3.4,1.58-5.25,4.48-5.25h1.79c2.9,0,4.47,1.85,4.47,5.25V92.18c0,3.41-1.57,5.25-4.47,5.25h-2.29c-2.45,0-4.08-1.09-5.38-3.59l-11.16-21.4V92.18c0,3.41-1.57,5.25-4.47,5.25h-1.83C1586.69,97.43,1585.11,95.59,1585.11,92.18Z"/>
        <path d="M1632.52,92.18V63.51h-3.81c-2.9,0-4.48-1.85-4.48-5.25v-.65c0-3.4,1.58-5.25,4.48-5.25H1647c2.9,0,4.48,1.85,4.48,5.25v.65c0,3.4-1.58,5.25-4.48,5.25h-3.76V92.18c0,3.41-1.57,5.25-4.47,5.25H1637C1634.09,97.43,1632.52,95.59,1632.52,92.18Z"/>
        <path d="M1655.29,90.23c-1.67-3.13-.71-5.69,2.16-6.61l.85-.27c2.4-.76,3.87.16,5.34,1.93a8,8,0,0,0,6.35,3.24c2.92,0,4.73-1.47,4.73-3.84,0-6.82-19.72-2.81-19.72-19.24,0-8.17,5.93-13.49,14.55-13.49,6.41,0,11.7,2.36,14.13,6.81,2,3.57,1.12,6.17-2.1,6.93l-.87.21c-3.33.79-4.43-.94-6.09-2.55a6.39,6.39,0,0,0-4.65-2c-2.67,0-4.37,1.42-4.37,3.64,0,7.86,20,2.81,20,19.12,0,8.39-6.51,13.8-15.53,13.8C1663.77,97.88,1657.84,95,1655.29,90.23Z"/>
        <path d="M1689.54,67c0-3.85,2.4-5.87,5.76-5.87a5.51,5.51,0,0,1,5.76,5.87,5.5,5.5,0,0,1-5.76,5.88C1691.94,72.9,1689.54,70.91,1689.54,67Zm0,25.13c0-3.86,2.4-5.87,5.76-5.87a5.87,5.87,0,0,1,0,11.74C1691.94,98,1689.54,96.05,1689.54,92.15Z"/>
        <path d="M1792.61,91.34l11.83-34.86c.94-2.77,2.55-4.12,5.12-4.12h.15c3.32,0,5.11,1.39,3.53,6L1801.5,93.26c-.93,2.78-2.56,4.13-5.14,4.13h-1C1792.52,97.39,1791,96,1792.61,91.34Z"/>
        <path d="M1833.32,97.94c-5.94,0-11.92-2.56-14.64-7.8-1.59-3.07-.47-5.94,2.56-6.6l.88-.19a5.37,5.37,0,0,1,5.54,1.69c1.8,1.75,3.35,2.6,5.48,2.6,3.12,0,5.1-1.76,5.1-4.52s-1.76-4.22-5.57-4.22h-1.6c-2.59,0-3.62-1.4-3.62-4.1s1.13-4.1,3.49-4.1h1.56c3.53,0,5.42-1.44,5.42-4.11s-1.78-4.45-4.82-4.45a6.79,6.79,0,0,0-4.75,2.17,6.17,6.17,0,0,1-5.7,1.93l-.76-.1c-3.05-.38-4.17-3.39-2.63-6.53,2.41-4.9,8.31-7.64,14-7.64,9.1,0,15.24,4.93,15.24,12.87,0,4.85-2,8.63-6,10,4.13,1.28,6.59,5.11,6.59,10.16,0,7.84-6.87,12.92-15.83,12.92Z"/>
        <path d="M1853.72,75c0-16.06,8-23,16.82-23s16.72,6.91,16.72,23c0,16.37-7.91,22.94-16.82,22.94S1853.72,91.33,1853.72,75Zm22.85,0c0-7.62-2.48-11.91-6.12-11.91s-6.14,4.29-6.14,11.91c0,8,2.42,12,6.13,12S1876.57,82.87,1876.57,74.92Z"/>
      </g>
    </g>
    <g>
      <rect class="cls-30" x="1474.09" y="29.96" width="437" height="82" rx="12"/>
      <g>
        <path class="cls-31" d="M1484,87.18V52.61c0-3.4,1.57-5.25,4.47-5.25h7.6c14.29,0,18.92,5.75,18.92,17.5s-4.63,17.2-18.79,17.2h-1.42v5.12c0,3.41-1.58,5.25-4.48,5.25h-1.83C1485.59,92.43,1484,90.59,1484,87.18Zm20-22.53c0-4.06-1.57-6.48-6-6.48h-3.18v13.1H1498C1502.44,71.27,1504,68.77,1504,64.65Z"/>
        <path class="cls-31" d="M1518.84,70c0-16.06,8.69-22.95,18.4-22.95,9.55,0,18.31,6.89,18.31,22.95,0,16.37-8.71,22.94-18.42,22.94S1518.84,86.33,1518.84,70Zm26,0c0-7.62-3.14-11.91-7.64-11.91-4.67,0-7.73,4.27-7.73,11.91,0,8,3,12,7.69,12S1544.81,77.87,1544.81,69.92Z"/>
        <path class="cls-31" d="M1561.7,87.18V52.61c0-3.4,1.57-5.25,4.47-5.25H1568c2.89,0,4.47,1.85,4.47,5.25V87.18c0,3.41-1.58,5.25-4.47,5.25h-1.84C1563.27,92.43,1561.7,90.59,1561.7,87.18Z"/>
        <path class="cls-31" d="M1580.11,87.18V52.61c0-3.4,1.58-5.25,4.48-5.25h2.32c2.45,0,4.08,1.1,5.38,3.59l11.16,21.39V52.61c0-3.4,1.58-5.25,4.48-5.25h1.79c2.9,0,4.47,1.85,4.47,5.25V87.18c0,3.41-1.57,5.25-4.47,5.25h-2.29c-2.45,0-4.08-1.09-5.38-3.59l-11.16-21.4V87.18c0,3.41-1.57,5.25-4.47,5.25h-1.83C1581.69,92.43,1580.11,90.59,1580.11,87.18Z"/>
        <path class="cls-31" d="M1627.52,87.18V58.51h-3.81c-2.9,0-4.48-1.85-4.48-5.25v-.65c0-3.4,1.58-5.25,4.48-5.25H1642c2.9,0,4.48,1.85,4.48,5.25v.65c0,3.4-1.58,5.25-4.48,5.25h-3.76V87.18c0,3.41-1.57,5.25-4.47,5.25H1632C1629.09,92.43,1627.52,90.59,1627.52,87.18Z"/>
        <path class="cls-31" d="M1650.29,85.23c-1.67-3.13-.71-5.69,2.16-6.61l.85-.27c2.4-.76,3.87.16,5.34,1.93a8,8,0,0,0,6.35,3.24c2.92,0,4.73-1.47,4.73-3.84,0-6.82-19.72-2.81-19.72-19.24,0-8.17,5.93-13.49,14.55-13.49,6.41,0,11.7,2.36,14.13,6.81,2,3.57,1.12,6.17-2.1,6.93l-.87.21c-3.33.79-4.43-.94-6.09-2.55a6.39,6.39,0,0,0-4.65-2c-2.67,0-4.37,1.42-4.37,3.64,0,7.86,20,2.81,20,19.12,0,8.39-6.51,13.8-15.53,13.8C1658.77,92.88,1652.84,90,1650.29,85.23Z"/>
        <path class="cls-31" d="M1684.54,62c0-3.85,2.4-5.87,5.76-5.87a5.51,5.51,0,0,1,5.76,5.87,5.5,5.5,0,0,1-5.76,5.88C1686.94,67.9,1684.54,65.91,1684.54,62Zm0,25.13c0-3.86,2.4-5.87,5.76-5.87a5.87,5.87,0,0,1,0,11.74C1686.94,93,1684.54,91.05,1684.54,87.15Z"/>
        <path class="cls-32" d="M1787.61,86.34l11.83-34.86c.94-2.77,2.55-4.12,5.12-4.12h.15c3.32,0,5.11,1.39,3.53,6L1796.5,88.26c-.93,2.78-2.56,4.13-5.14,4.13h-1C1787.52,92.39,1786,91,1787.61,86.34Z"/>
        <path class="cls-32" d="M1828.32,92.94c-5.94,0-11.92-2.56-14.64-7.8-1.59-3.07-.47-5.94,2.56-6.6l.88-.19a5.37,5.37,0,0,1,5.54,1.69c1.8,1.75,3.35,2.6,5.48,2.6,3.12,0,5.1-1.76,5.1-4.52s-1.76-4.22-5.57-4.22h-1.6c-2.59,0-3.62-1.4-3.62-4.1s1.13-4.1,3.49-4.1h1.56c3.53,0,5.42-1.44,5.42-4.11s-1.78-4.45-4.82-4.45a6.79,6.79,0,0,0-4.75,2.17,6.17,6.17,0,0,1-5.7,1.93l-.76-.1c-3.05-.38-4.17-3.39-2.63-6.53,2.41-4.9,8.31-7.64,14-7.64,9.1,0,15.24,4.93,15.24,12.87,0,4.85-2,8.63-6,10,4.13,1.28,6.59,5.11,6.59,10.16,0,7.84-6.87,12.92-15.83,12.92Z"/>
        <path class="cls-32" d="M1848.72,70c0-16.06,8-23,16.82-23s16.72,6.91,16.72,23c0,16.37-7.91,22.94-16.82,22.94S1848.72,86.33,1848.72,70Zm22.85,0c0-7.62-2.48-11.91-6.12-11.91s-6.14,4.29-6.14,11.91c0,8,2.42,12,6.13,12S1871.57,77.87,1871.57,69.92Z"/>
      </g>
    </g>
  </g>
  <g>
    <g class="cls-29">
      <rect x="144" y="35.91" width="302" height="82" rx="12"/>
    </g>
    <rect class="cls-30" x="139" y="30.91" width="302" height="82" rx="12"/>
  </g>
  <g>
    <path class="cls-31" d="M154.72,86.32V57.64h-3.81c-2.9,0-4.48-1.84-4.48-5.25v-.65c0-3.4,1.58-5.25,4.48-5.25h18.31c2.9,0,4.48,1.85,4.48,5.25v.65c0,3.41-1.58,5.25-4.48,5.25h-3.76V86.32c0,3.4-1.57,5.25-4.47,5.25h-1.8C156.3,91.57,154.72,89.72,154.72,86.32Z"/>
    <path class="cls-31" d="M178.73,86.32V51.74c0-3.4,1.58-5.25,4.48-5.25H185c2.9,0,4.47,1.85,4.47,5.25V86.32c0,3.4-1.57,5.25-4.47,5.25h-1.83C180.31,91.57,178.73,89.72,178.73,86.32Z"/>
    <path class="cls-31" d="M195.54,86l4.2-34.66c.39-3.2,2-4.84,4.76-4.84h5c2.67,0,4.27,1.53,4.95,4.55l6.16,27.34L226.77,51c.69-3,2.28-4.55,4.95-4.55h5c2.75,0,4.37,1.64,4.76,4.85L245.69,86c.43,3.58-1.11,5.58-4.15,5.58h-1.8c-2.76,0-4.35-1.71-4.72-4.94L232.35,63l-5.68,24.11c-.7,3-2.31,4.51-5,4.51h-2.18c-2.66,0-4.27-1.52-5-4.51L208.88,63,206.2,86.63c-.37,3.23-2,4.94-4.72,4.94h-1.8C196.64,91.57,195.1,89.57,195.54,86Z"/>
    <path class="cls-31" d="M251.69,86.32V51.74c0-3.4,1.58-5.25,4.48-5.25H273c2.9,0,4.47,1.85,4.47,5.25v.65c0,3.41-1.57,5.25-4.47,5.25h-10.6v6.69h9.64c2.9,0,4.47,1.63,4.47,4.56V69c0,3-1.57,4.59-4.47,4.59h-9.64v6.92H273c2.9,0,4.47,1.85,4.47,5.25v.61c0,3.4-1.57,5.25-4.47,5.25H256.17C253.27,91.57,251.69,89.72,251.69,86.32Z"/>
    <path class="cls-31" d="M282.26,61.16c0-3.86,2.4-5.87,5.76-5.87a5.51,5.51,0,0,1,5.76,5.87A5.5,5.5,0,0,1,288,67C284.66,67,282.26,65,282.26,61.16Zm0,25.12c0-3.86,2.4-5.87,5.76-5.87a5.87,5.87,0,0,1,0,11.74C284.66,92.15,282.26,90.18,282.26,86.28Z"/>
  </g>
  <g>
    <g class="cls-29">
      <rect x="27.36" y="35.91" width="91.51" height="82" rx="12"/>
    </g>
    <rect class="cls-30" x="22.36" y="30.91" width="91.51" height="82" rx="12"/>
  </g>
</svg>
