<svg id="Layer_1" data-name="Layer 1" xmlns="http://www.w3.org/2000/svg" width="86" height="95" viewBox="0 0 86 95">
  <defs>
    <style>
      .cls-1 {
        fill: #474747;
      }
    </style>
  </defs>
  <g>
    <g>
      <path class="cls-1" d="M75.94,1.46a.88.88,0,0,1-1,.21,1,1,0,0,1-.68-.78.62.62,0,0,1,0-.33A.81.81,0,0,1,75.4.1a1,1,0,0,1,.66,1.12A.68.68,0,0,1,75.94,1.46Z"/>
      <path class="cls-1" d="M75.94,1.46l-.79,2.25-1.52-.84.64-2a1,1,0,0,0,.68.78A.88.88,0,0,0,75.94,1.46Z"/>
      <polygon class="cls-1" points="75.15 3.71 74.97 4.23 74.96 4.23 73.54 3.48 73.44 3.43 73.63 2.87 75.15 3.71"/>
      <polygon class="cls-1" points="74.97 4.23 57.18 55 56.79 54.8 73.44 3.43 73.54 3.48 74.96 4.23 74.97 4.23"/>
    </g>
    <g>
      <path class="cls-1" d="M80.63,3.9a.74.74,0,0,1,.05-.33.78.78,0,0,1,1.16-.25,1,1,0,0,1,.53,1.22.45.45,0,0,1-.15.21h0a.86.86,0,0,1-1,0A1.15,1.15,0,0,1,80.63,3.9Z"/>
      <path class="cls-1" d="M82.22,4.76l-1,2.08h0L79.77,5.75l.86-1.85a1.15,1.15,0,0,0,.58.89A.86.86,0,0,0,82.22,4.76Z"/>
      <polygon class="cls-1" points="81.19 6.84 80.95 7.33 80.95 7.32 79.62 6.33 79.53 6.27 79.77 5.75 81.19 6.84 81.19 6.84"/>
      <polygon class="cls-1" points="80.95 7.33 57.71 54.48 57.35 54.21 79.53 6.27 79.62 6.33 80.95 7.32 80.95 7.33"/>
    </g>
    <path class="cls-1" d="M74.39,40.75H.5c0,.85.09,1.69.16,2.51s.16,1.89.26,2.81c.06.49.11,1,.18,1.47.12,1,.26,1.89.41,2.81C4.33,67.4,12.19,79.29,22,86V95H64V86c9.85-6.73,17.71-18.62,20.53-35.67.15-.92.29-1.86.41-2.81l.18-1.47c.1-.92.19-1.86.26-2.81s.12-1.66.16-2.52Z"/>
  </g>
</svg>
