<svg id="Layer_1" data-name="Layer 1" xmlns="http://www.w3.org/2000/svg" width="435" height="100" viewBox="0 0 435 100">
  <defs>
    <style>
      .cls-1 {
        fill: #6b6b6a;
      }

      .cls-2 {
        fill: #939390;
      }

      .cls-3 {
        fill: #fff;
      }
    </style>
  </defs>
  <rect class="cls-1" x="10.27" y="11.83" width="424.71" height="87.83" rx="43.92"/>
  <rect class="cls-2" x="1.14" y="1.58" width="424.71" height="87.83" rx="43.92"/>
  <g>
    <path class="cls-3" d="M112.51,63.56V26.09c0-3.69,1.71-5.69,4.85-5.69h2c3.14,0,4.85,2,4.85,5.69V38.71H136V26.09c0-3.69,1.71-5.69,4.85-5.69h2c3.14,0,4.85,2,4.85,5.69V63.56c0,3.68-1.71,5.68-4.85,5.68h-2c-3.14,0-4.85-2-4.85-5.68V50.68H124.19V63.56c0,3.68-1.71,5.68-4.85,5.68h-2C114.22,69.24,112.51,67.24,112.51,63.56Z"/>
    <path class="cls-3" d="M163,44.89C163,27.49,172.41,20,182.94,20c10.35,0,19.84,7.46,19.84,24.86,0,17.74-9.43,24.86-20,24.86S163,62.63,163,44.89Zm28.14,0c0-8.26-3.4-12.9-8.28-12.9-5.05,0-8.38,4.62-8.38,12.9,0,8.62,3.27,13,8.34,13S191.14,53.47,191.14,44.85Z"/>
    <path class="cls-3" d="M215.63,63.2l4.56-37.55c.42-3.47,2.17-5.25,5.16-5.25h5.42c2.88,0,4.62,1.65,5.36,4.93L242.8,55l6.68-29.62c.74-3.28,2.47-4.93,5.36-4.93h5.42c3,0,4.74,1.78,5.16,5.25L270,63.2c.47,3.88-1.2,6-4.5,6h-1.94c-3,0-4.72-1.84-5.12-5.34l-2.9-25.66-6.15,26.12c-.76,3.24-2.5,4.88-5.39,4.88h-2.35c-2.89,0-4.63-1.64-5.4-4.88l-6.14-26.12L227.18,63.9c-.39,3.5-2.12,5.34-5.11,5.34h-1.94C216.83,69.24,215.16,67.08,215.63,63.2Z"/>
    <path class="cls-3" d="M285.1,63.56V26.09c0-3.69,1.71-5.69,4.85-5.69h18.27c3.14,0,4.85,2,4.85,5.69v.71c0,3.69-1.71,5.69-4.85,5.69H296.74v7.24h10.44c3.15,0,4.85,1.76,4.85,4.94v.07c0,3.22-1.7,5-4.85,5H296.74v7.5h11.48c3.14,0,4.85,2,4.85,5.69v.66c0,3.68-1.71,5.68-4.85,5.68H290C286.81,69.24,285.1,67.24,285.1,63.56Z"/>
  </g>
</svg>
