<svg id="Layer_1" data-name="Layer 1" xmlns="http://www.w3.org/2000/svg" width="400" height="100" viewBox="0 0 400 100">
  <defs>
    <style>
      .cls-1 {
        opacity: 0.5;
      }

      .cls-2 {
        fill: #939390;
      }

      .cls-3 {
        fill: #fff;
      }
    </style>
  </defs>
  <g>
    <g class="cls-1">
      <rect x="8.5" y="7" width="390" height="93" rx="46.5"/>
    </g>
    <rect class="cls-2" x="1.5" y="0.01" width="390" height="93" rx="46.5"/>
  </g>
  <g>
    <path class="cls-3" d="M98.08,81h-2.9c-3.7,0-5.87-1.89-7.44-5.87L82.13,61.21c-.62,0-1.26,0-1.91,0H75.58V73.41c0,4.91-2.27,7.58-6.46,7.58H66.39c-4.19,0-6.46-2.67-6.46-7.58v-50c0-4.92,2.27-7.59,6.46-7.59H80.53c18.78,0,24,8.32,24,22.32,0,7.94-2.56,14.88-8.66,19L102.74,72C105.42,77.82,104,81,98.08,81ZM88.89,39.65c0-5.57-2.29-8.64-8.75-8.64H75.51V48.38h4.63C86.6,48.38,88.89,45.33,88.89,39.65Z"/>
    <path class="cls-3" d="M123.74,50.94V23.42c0-4.92,2.28-7.59,6.47-7.59h2.65c4.19,0,6.47,2.67,6.47,7.59V50.85c0,10.45,2.39,14.77,8.4,14.77s8.45-4.32,8.45-14.68V23.42c0-4.92,2.28-7.59,6.47-7.59h2.75c4.19,0,6.47,2.67,6.47,7.59V51.07c0,20.83-8,30.57-24.14,30.57S123.74,72.05,123.74,50.94Z"/>
    <path class="cls-3" d="M193.62,73.41v-50c0-4.92,2.28-7.59,6.47-7.59h2.65c4.19,0,6.46,2.67,6.46,7.59V64.94h11c4.19,0,6.47,2.67,6.47,7.58v.89c0,4.91-2.28,7.58-6.47,7.58H200.09C195.9,81,193.62,78.32,193.62,73.41Z"/>
    <path class="cls-3" d="M245.4,73.41v-50c0-4.92,2.27-7.59,6.46-7.59h24.38c4.19,0,6.47,2.67,6.47,7.59v.95c0,4.91-2.28,7.58-6.47,7.58H260.93v9.66h13.93c4.19,0,6.47,2.36,6.47,6.6v.09c0,4.3-2.28,6.63-6.47,6.63H260.93v10h15.31c4.19,0,6.47,2.67,6.47,7.58v.89c0,4.91-2.28,7.58-6.47,7.58H251.86C247.67,81,245.4,78.32,245.4,73.41Z"/>
    <path class="cls-3" d="M323.43,81.64c-9.12,0-17.7-4.14-21.39-11.07-2.4-4.52-1-8.22,3.13-9.54l1.23-.4c3.46-1.1,5.59.23,7.71,2.8a11.66,11.66,0,0,0,9.2,4.68c4.21,0,6.83-2.12,6.83-5.55,0-9.87-28.51-4.06-28.51-27.81,0-11.82,8.57-19.5,21-19.5,9.28,0,16.92,3.4,20.44,9.83,2.83,5.17,1.61,8.92-3,10l-1.25.29c-4.82,1.15-6.41-1.35-8.81-3.67a9.26,9.26,0,0,0-6.73-2.94c-3.86,0-6.32,2.05-6.32,5.26,0,11.36,28.94,4.06,28.94,27.65,0,12.12-9.41,19.94-22.46,19.94Z"/>
  </g>
</svg>
