<svg id="Layer_1" data-name="Layer 1" xmlns="http://www.w3.org/2000/svg" width="405" height="110" viewBox="0 0 405 110">
  <defs>
    <style>
      .cls-1 {
        fill: #6b6b6a;
      }

      .cls-2 {
        fill: #939390;
      }

      .cls-3 {
        fill: #fff;
      }
    </style>
  </defs>
  <g>
    <g>
      <rect class="cls-1" x="13.63" y="8.28" width="390.23" height="93" rx="46.5"/>
      <rect class="cls-2" x="1.15" y="-0.2" width="390.23" height="93" rx="46.5"/>
    </g>
    <g>
      <path class="cls-3" d="M87.29,71.3V20.85c0-5,2.29-7.66,6.52-7.66h11.1c20.84,0,27.59,8.4,27.59,25.53s-6.75,25.1-27.41,25.1H103V71.3c0,5-2.29,7.65-6.52,7.65H93.81C89.58,79,87.29,76.26,87.29,71.3Zm29.17-32.89c0-5.92-2.29-9.45-8.8-9.45H103V48.08h4.65C114.17,48.08,116.46,44.43,116.46,38.41Z"/>
      <path class="cls-3" d="M151.86,71.3V20.85c0-5,2.29-7.66,6.52-7.66h2.68c4.23,0,6.52,2.69,6.52,7.66v41.9h11.11c4.23,0,6.53,2.69,6.53,7.66v.89c0,5-2.3,7.65-6.53,7.65H158.38C154.15,79,151.86,76.26,151.86,71.3Z"/>
      <path class="cls-3" d="M253,70.13c1.69,5.27-.44,8.82-5.2,8.82H245c-3.81,0-6.16-2.06-7.33-6.4l-.93-3.44h-20l-.92,3.45c-1.15,4.33-3.52,6.39-7.34,6.39h-2.77c-4.78,0-6.9-3.56-5.22-8.8l16.24-50.81c1.33-4.18,3.73-6.15,7.49-6.15h4.93c3.76,0,6.15,2,7.49,6.15L253,70.13Zm-26.25-37-6.39,23.14H233.2Z"/>
      <path class="cls-3" d="M279.52,71.67V61.51L262.58,22.23c-2.29-5.31-.34-9,4.67-9h3.37c3.68,0,6,1.91,7.54,5.92l9.14,23.4,9.24-23.4c1.58-4,3.85-5.92,7.54-5.92h3.48c5,0,7.06,3.8,4.77,9L295.19,61.51V71.3c0,5-2.3,7.65-6.53,7.65H286C281.81,79,279.52,76.32,279.52,71.67Z"/>
    </g>
  </g>
</svg>
