<svg id="Layer_1" data-name="Layer 1" xmlns="http://www.w3.org/2000/svg" width="130" height="175" viewBox="0 0 130 175">
  <defs>
    <style>
      .cls-1 {
        fill: #7f604a;
      }

      .cls-2 {
        fill: #75b167;
      }

      .cls-3 {
        fill: #fff;
      }

      .cls-4 {
        fill: #585657;
      }
    </style>
  </defs>
  <g>
    <rect class="cls-1" x="63.01" y="24.81" width="73.08" height="30.2" rx="2.63" transform="translate(15.5 106.54) rotate(-60.25)"/>
    <path class="cls-2" d="M114.91,92.67l1-32.92,1.75-3.07h0l5.85-10.25c2.8-4.89.42-11.52-5.31-14.79l-1.49-.86-18-10.28-1.5-.86c-5.73-3.27-12.64-2-15.44,2.94L75.92,32.82h0l-1.75,3.07L46.3,53.46a14.23,14.23,0,0,0-4.75,4.92L.89,129.52c-1.74,3-.26,7.16,3.31,9.2l14.9,8.52L47.9,163.7l14.91,8.52c3.56,2,7.86,1.22,9.61-1.82l40.65-71.13A14.18,14.18,0,0,0,114.91,92.67Z"/>
    <g>
      <path class="cls-3" d="M95.76,94.13c5-8.66-.15-20.92-11.42-27.39s-24.44-4.67-29.4,4c-3.37,5.88-2.09,13.41,2.6,19.67L53,98.33c-1.94,3.39-.16,8.07,4,10.44l4.46,2.56c4.15,2.38,9.08,1.55,11-1.85l4.43-7.72C84.88,102.85,92.31,100.16,95.76,94.13Z"/>
      <path class="cls-3" d="M87.94,127a4,4,0,0,0,1.19-2.29,3.68,3.68,0,1,0-7.25-1.23l-57.52-9a3.77,3.77,0,0,0-3.05-4.11,3.81,3.81,0,0,0-4.25,3.3,4,4,0,0,0,.58,2.82,4.05,4.05,0,0,0-1.18,2.29,3.81,3.81,0,0,0,3,4.45,3.75,3.75,0,0,0,4.06-2.58l57.68,9a3.74,3.74,0,0,0,3,3.46,3.82,3.82,0,0,0,4.25-3.31A4,4,0,0,0,87.94,127Z"/>
      <path class="cls-3" d="M74.49,149.84a4.11,4.11,0,0,0,2.44-.83,3.68,3.68,0,1,0-4.37-5.92L37.41,96.68A3.67,3.67,0,1,0,32.71,91a4.09,4.09,0,0,0-1.54,2.43,4.09,4.09,0,0,0-2.44.82,3.81,3.81,0,0,0-.9,5.31,3.75,3.75,0,0,0,4.71,1L67.8,147.11a3.7,3.7,0,0,0-.2,4.6,3.81,3.81,0,0,0,5.35.56A4,4,0,0,0,74.49,149.84Z"/>
      <ellipse class="cls-4" cx="66.04" cy="81.68" rx="5.52" ry="5.47" transform="translate(-37.64 98.48) rotate(-60.25)"/>
      <ellipse class="cls-4" cx="80.32" cy="90.03" rx="5.52" ry="5.47" transform="translate(-37.7 115.09) rotate(-60.25)"/>
      <path class="cls-4" d="M69.69,93.66l0,6.42a.5.5,0,0,1-.75.44l-5.58-3.19a.5.5,0,0,1,0-.87l5.55-3.23A.5.5,0,0,1,69.69,93.66Z"/>
    </g>
  </g>
</svg>
