<svg id="Layer_1" data-name="Layer 1" xmlns="http://www.w3.org/2000/svg" width="600" height="565" viewBox="0 0 600 565">
  <defs>
    <style>
      .cls-1 {
        fill: #fddeb0;
      }

      .cls-2 {
        fill: #eba228;
      }

      .cls-3 {
        fill: #fff;
      }

      .cls-4 {
        fill: #ee7a68;
      }

      .cls-5 {
        fill: #f5cfe4;
      }

      .cls-6 {
        fill: #dadada;
      }

      .cls-7 {
        fill: #dda4ca;
      }

      .cls-8 {
        fill: #585657;
      }

      .cls-9 {
        fill: #915234;
      }

      .cls-10 {
        fill: none;
        stroke: #915334;
        stroke-miterlimit: 10;
        stroke-width: 1.29px;
      }
    </style>
  </defs>
  <g>
    <g>
      <g>
        <ellipse class="cls-1" cx="359.49" cy="208.19" rx="45.31" ry="73.81" transform="translate(145.88 564.48) rotate(-89.13)"/>
        <ellipse class="cls-2" cx="359.49" cy="208.19" rx="41.24" ry="67.18" transform="translate(145.88 564.48) rotate(-89.13)"/>
        <ellipse class="cls-1" cx="359.49" cy="208.19" rx="36.97" ry="60.24" transform="translate(145.88 564.48) rotate(-89.13)"/>
        <ellipse class="cls-2" cx="359.49" cy="208.19" rx="33.21" ry="53.17" transform="translate(145.89 564.49) rotate(-89.13)"/>
        <ellipse class="cls-1" cx="359.49" cy="208.19" rx="28.45" ry="48.14" transform="translate(145.86 564.47) rotate(-89.13)"/>
        <ellipse class="cls-2" cx="359.49" cy="208.19" rx="23.97" ry="41.82" transform="translate(145.85 564.46) rotate(-89.13)"/>
        <ellipse class="cls-1" cx="359.49" cy="208.19" rx="19.65" ry="34.29" transform="translate(145.85 564.46) rotate(-89.13)"/>
        <ellipse class="cls-2" cx="359.49" cy="208.19" rx="15.45" ry="27.6" transform="translate(145.84 564.45) rotate(-89.12)"/>
        <ellipse class="cls-1" cx="359.49" cy="208.19" rx="11.72" ry="20.93" transform="translate(145.84 564.45) rotate(-89.12)"/>
      </g>
      <g>
        <ellipse class="cls-1" cx="198.47" cy="256.44" rx="69.74" ry="67.91"/>
        <ellipse class="cls-2" cx="198.47" cy="256.44" rx="63.48" ry="61.81"/>
        <ellipse class="cls-1" cx="198.47" cy="256.44" rx="56.92" ry="55.42"/>
        <ellipse class="cls-2" cx="198.47" cy="256.44" rx="49.57" ry="50.45" transform="translate(-110.24 355.69) rotate(-70.08)"/>
        <ellipse class="cls-1" cx="198.47" cy="256.44" rx="45.39" ry="42.73" transform="translate(-49.19 47.12) rotate(-12.06)"/>
        <ellipse class="cls-2" cx="198.47" cy="256.44" rx="39.42" ry="36.02" transform="translate(-59.13 59.48) rotate(-14.86)"/>
        <ellipse class="cls-1" cx="198.47" cy="256.44" rx="32.32" ry="29.53" transform="translate(-59.13 59.48) rotate(-14.86)"/>
        <ellipse class="cls-2" cx="198.47" cy="256.44" rx="26.01" ry="23.22" transform="translate(-63.01 64.65) rotate(-16)"/>
        <ellipse class="cls-1" cx="198.47" cy="256.44" rx="19.73" ry="17.61" transform="translate(-63.01 64.65) rotate(-16)"/>
      </g>
      <g>
        <ellipse class="cls-1" cx="270.88" cy="238.93" rx="93.37" ry="60.3" transform="translate(-63.59 102.56) rotate(-19.23)"/>
        <ellipse class="cls-2" cx="270.88" cy="238.93" rx="84.98" ry="54.88" transform="translate(-63.59 102.56) rotate(-19.23)"/>
        <ellipse class="cls-1" cx="270.88" cy="238.93" rx="76.2" ry="49.21" transform="translate(-63.59 102.56) rotate(-19.23)"/>
        <ellipse class="cls-2" cx="270.88" cy="238.93" rx="67.26" ry="44.2" transform="translate(-63.48 102.3) rotate(-19.19)"/>
        <ellipse class="cls-1" cx="270.88" cy="238.93" rx="60.89" ry="37.87" transform="translate(-63.79 103.06) rotate(-19.32)"/>
        <ellipse class="cls-2" cx="270.88" cy="238.93" rx="52.9" ry="31.91" transform="translate(-63.93 103.4) rotate(-19.38)"/>
        <ellipse class="cls-1" cx="270.88" cy="238.93" rx="43.37" ry="26.16" transform="translate(-63.93 103.4) rotate(-19.38)"/>
        <ellipse class="cls-2" cx="270.88" cy="238.93" rx="34.91" ry="20.56" transform="translate(-64.02 103.64) rotate(-19.42)"/>
        <ellipse class="cls-1" cx="270.88" cy="238.93" rx="26.48" ry="15.6" transform="translate(-64.02 103.64) rotate(-19.42)"/>
      </g>
      <path class="cls-3" d="M445.44,156.05c.79,2.55,1.54,5.09,2.21,7.61q1.2,4.34,2.16,8.61c.35,1.52.68,3,1,4.56.61,3,1.13,5.9,1.59,8.82,8.46,54-8,99.74-37.91,133.1L424.54,345,265.16,402.87,255.1,376.61c-45-6.2-88.25-30.27-118.15-76.48-1.61-2.49-3.2-5.05-4.72-7.68-.79-1.33-1.56-2.7-2.33-4.07-1.41-2.57-2.8-5.2-4.14-7.89-1.19-2.33-2.33-4.73-3.44-7.16l8.76-3.18,272.13-98.77Z"/>
      <path class="cls-4" d="M446.35,154.45q2.4,7.52,4.55,14.88L127.32,286.77q-3.31-6.93-6.55-14.15Z"/>
      <ellipse class="cls-5" cx="263.18" cy="308.69" rx="13.24" ry="8.25" transform="matrix(0.94, -0.33, 0.33, 0.94, -87.29, 104.42)"/>
      <ellipse class="cls-5" cx="361.86" cy="272.88" rx="13.24" ry="8.25" transform="translate(-69.89 135.04) rotate(-19.31)"/>
      <polygon class="cls-6" points="415.13 321.58 255.91 379.36 254.56 375.83 413.78 318.05 415.13 321.58"/>
      <ellipse class="cls-7" cx="324.09" cy="321.27" rx="15.83" ry="15.41"/>
      <polygon class="cls-8" points="271.21 286.82 252.12 278.81 260.35 260.22 255.73 258.28 247.49 276.86 228.41 268.85 226.41 273.35 245.5 281.37 237.27 299.95 241.89 301.89 250.12 283.31 269.21 291.33 271.21 286.82"/>
      <polygon class="cls-8" points="372.96 250.11 353.88 242.09 362.11 223.51 357.48 221.56 349.25 240.15 330.16 232.13 328.17 236.64 347.25 244.65 339.02 263.24 343.65 265.18 351.88 246.6 370.97 254.61 372.96 250.11"/>
    </g>
    <g>
      <g>
        <path class="cls-9" d="M457.43,298.61a1.85,1.85,0,0,1,.61-.88c1.15-.9,3.24-.44,4.66,1s1.64,3.43.49,4.34a2,2,0,0,1-.83.4,4.27,4.27,0,0,1-3.82-1.43A3.63,3.63,0,0,1,457.43,298.61Z"/>
        <path class="cls-9" d="M462.36,303.51,455.94,308h0l-4-5.31,5.48-4.05a3.63,3.63,0,0,0,1.11,3.47A4.27,4.27,0,0,0,462.36,303.51Z"/>
        <polygon class="cls-9" points="455.94 307.98 454.46 309.02 454.44 309 450.67 304.1 450.42 303.78 451.94 302.65 451.95 302.66 455.93 307.97 455.94 307.98"/>
        <polygon class="cls-9" points="454.46 309.02 309.59 410.02 308.57 408.7 450.42 303.78 450.67 304.1 454.44 309 454.46 309.02"/>
      </g>
      <g>
        <polyline class="cls-10" points="451.94 302.65 450.42 303.78 308.57 408.7 308.16 409"/>
        <polyline class="cls-10" points="457.49 298.56 457.43 298.61 451.95 302.66"/>
        <polyline class="cls-10" points="462.36 303.51 455.94 307.98 454.46 309.02 309.59 410.02"/>
        <path class="cls-10" d="M457.43,298.61a1.85,1.85,0,0,1,.61-.88c1.15-.9,3.24-.44,4.66,1s1.64,3.43.49,4.34a2,2,0,0,1-.83.4,4.27,4.27,0,0,1-3.82-1.43A3.63,3.63,0,0,1,457.43,298.61Z"/>
        <polyline class="cls-10" points="451.94 302.65 451.95 302.66 455.93 307.97"/>
        <line class="cls-10" x1="450.67" y1="304.1" x2="454.44" y2="309"/>
      </g>
    </g>
    <g>
      <g>
        <path class="cls-9" d="M473.33,349.44a2,2,0,0,1,.89-.62c1.41-.44,3.19.71,4,2.58s.31,3.76-1.1,4.23a2,2,0,0,1-.91.07h0a4.22,4.22,0,0,1-3.07-2.66A3.58,3.58,0,0,1,473.33,349.44Z"/>
        <path class="cls-9" d="M476.18,355.71l-7.63,2h0l-1.81-6.32,6.6-1.91a3.58,3.58,0,0,0-.22,3.61A4.22,4.22,0,0,0,476.18,355.71Z"/>
        <polygon class="cls-9" points="468.55 357.68 466.77 358.14 466.77 358.13 464.99 352.25 464.87 351.88 466.72 351.34 466.73 351.35 468.54 357.67 468.55 357.68"/>
        <polygon class="cls-9" points="466.77 358.14 294.41 402.9 293.93 401.32 464.87 351.88 464.99 352.25 466.77 358.13 466.77 358.14"/>
      </g>
      <g>
        <polyline class="cls-10" points="466.72 351.34 464.87 351.88 293.93 401.32 293.45 401.46"/>
        <polyline class="cls-10" points="473.41 349.41 473.33 349.44 466.73 351.35"/>
        <polyline class="cls-10" points="476.18 355.71 468.55 357.68 466.77 358.14 294.41 402.9"/>
        <path class="cls-10" d="M473.33,349.44a2,2,0,0,1,.89-.62c1.41-.44,3.19.71,4,2.58s.31,3.76-1.1,4.23a2,2,0,0,1-.91.07h0a4.22,4.22,0,0,1-3.07-2.66A3.58,3.58,0,0,1,473.33,349.44Z"/>
        <polyline class="cls-10" points="466.72 351.34 466.73 351.35 468.54 357.67"/>
        <line class="cls-10" x1="464.99" y1="352.25" x2="466.77" y2="358.13"/>
      </g>
    </g>
  </g>
</svg>
