<svg id="Layer_1" data-name="Layer 1" xmlns="http://www.w3.org/2000/svg" width="49" height="49.1" viewBox="0 0 49 49.1">
  <defs>
    <style>
      .cls-1 {
        fill: #fddeb0;
      }

      .cls-2 {
        fill: #eba228;
      }

      .cls-3 {
        fill: #915234;
      }

      .cls-4 {
        fill: none;
        stroke: #915334;
        stroke-miterlimit: 10;
        stroke-width: 0.19px;
      }

      .cls-5 {
        fill: #fff;
      }

      .cls-6 {
        fill: #ee7a68;
      }

      .cls-7 {
        fill: #dadada;
      }

      .cls-8 {
        fill: #f5cfe4;
      }

      .cls-9 {
        fill: #dda3ca;
      }

      .cls-10 {
        fill: #585657;
      }

      .cls-11 {
        fill: #84cee8;
      }

      .cls-12 {
        fill: #d4d6d7;
      }
    </style>
  </defs>
  <g>
    <g>
      <g>
        <ellipse class="cls-1" cx="34.8" cy="26.14" rx="6.86" ry="10.49" transform="translate(-3.21 47.34) rotate(-66.05)"/>
        <ellipse class="cls-2" cx="34.8" cy="26.14" rx="6.25" ry="9.55" transform="translate(-3.21 47.34) rotate(-66.05)"/>
        <ellipse class="cls-1" cx="34.8" cy="26.14" rx="5.6" ry="8.56" transform="translate(-3.21 47.34) rotate(-66.05)"/>
        <ellipse class="cls-2" cx="34.8" cy="26.14" rx="5.03" ry="7.56" transform="translate(-3.25 47.27) rotate(-65.95)"/>
        <ellipse class="cls-1" cx="34.8" cy="26.14" rx="4.31" ry="6.84" transform="translate(-3.14 47.46) rotate(-66.24)"/>
        <ellipse class="cls-2" cx="34.8" cy="26.14" rx="3.63" ry="5.94" transform="translate(-3.1 47.55) rotate(-66.37)"/>
        <ellipse class="cls-1" cx="34.8" cy="26.14" rx="2.98" ry="4.87" transform="translate(-3.1 47.55) rotate(-66.37)"/>
        <ellipse class="cls-2" cx="34.8" cy="26.14" rx="2.34" ry="3.92" transform="translate(-3.06 47.6) rotate(-66.45)"/>
        <ellipse class="cls-1" cx="34.8" cy="26.14" rx="1.78" ry="2.97" transform="matrix(0.4, -0.92, 0.92, 0.4, -3.06, 47.6)"/>
      </g>
      <g>
        <g>
          <path class="cls-3" d="M43.88.51a.33.33,0,0,1,0-.17.5.5,0,0,1,.64-.21c.28.09.45.32.38.53a.35.35,0,0,1-.07.12h0a.58.58,0,0,1-.57.1A.56.56,0,0,1,43.88.51Z"/>
          <path class="cls-3" d="M44.84.78l-.45,1.07h0l-.87-.39.37-.95a.56.56,0,0,0,.39.37A.58.58,0,0,0,44.84.78Z"/>
          <polygon class="cls-3" points="44.39 1.85 44.28 2.1 44.28 2.1 43.46 1.74 43.41 1.72 43.51 1.46 43.51 1.46 44.38 1.85 44.39 1.85"/>
          <polygon class="cls-3" points="44.28 2.1 34.1 26.41 33.88 26.31 43.41 1.72 43.46 1.74 44.28 2.1 44.28 2.1"/>
        </g>
        <g>
          <polyline class="cls-4" points="43.51 1.46 43.41 1.72 33.88 26.31 33.85 26.38"/>
          <polyline class="cls-4" points="43.88 0.49 43.88 0.51 43.51 1.46"/>
          <polyline class="cls-4" points="44.84 0.78 44.39 1.85 44.28 2.1 34.1 26.41"/>
          <path class="cls-4" d="M43.88.51a.33.33,0,0,1,0-.17.5.5,0,0,1,.64-.21c.28.09.45.32.38.53a.35.35,0,0,1-.07.12h0a.58.58,0,0,1-.57.1A.56.56,0,0,1,43.88.51Z"/>
          <polyline class="cls-4" points="43.51 1.46 43.51 1.46 44.38 1.85"/>
          <line class="cls-4" x1="43.46" y1="1.74" x2="44.28" y2="2.1"/>
        </g>
      </g>
      <g>
        <g>
          <path class="cls-3" d="M47.52,2a.41.41,0,0,1,0-.16.49.49,0,0,1,.66-.12c.27.13.41.39.31.58a.22.22,0,0,1-.09.1h0a.59.59,0,0,1-.58,0A.56.56,0,0,1,47.52,2Z"/>
          <path class="cls-3" d="M48.43,2.36l-.59,1L47,2.83,47.52,2a.56.56,0,0,0,.33.42A.59.59,0,0,0,48.43,2.36Z"/>
          <polygon class="cls-3" points="47.84 3.35 47.7 3.59 47.7 3.58 46.94 3.11 46.89 3.08 47.03 2.83 47.03 2.83 47.84 3.35"/>
          <polygon class="cls-3" points="47.7 3.59 34.41 26.15 34.2 26.03 46.89 3.08 46.94 3.11 47.7 3.58 47.7 3.59"/>
        </g>
        <g>
          <polyline class="cls-4" points="47.03 2.83 46.89 3.08 34.2 26.03 34.17 26.09"/>
          <polyline class="cls-4" points="47.53 1.93 47.52 1.95 47.03 2.83"/>
          <polyline class="cls-4" points="48.43 2.36 47.84 3.35 47.7 3.59 34.41 26.15"/>
          <path class="cls-4" d="M47.52,2a.41.41,0,0,1,0-.16.49.49,0,0,1,.66-.12c.27.13.41.39.31.58a.22.22,0,0,1-.09.1h0a.59.59,0,0,1-.58,0A.56.56,0,0,1,47.52,2Z"/>
          <polyline class="cls-4" points="47.03 2.83 47.03 2.83 47.84 3.35"/>
          <line class="cls-4" x1="46.94" y1="3.11" x2="47.7" y2="3.58"/>
        </g>
      </g>
      <g>
        <ellipse class="cls-1" cx="11.09" cy="24.68" rx="9.84" ry="10.37"/>
        <ellipse class="cls-2" cx="11.09" cy="24.68" rx="8.95" ry="9.44"/>
        <ellipse class="cls-1" cx="11.09" cy="24.68" rx="8.03" ry="8.46"/>
        <ellipse class="cls-2" cx="11.09" cy="24.68" rx="7.09" ry="7.6"/>
        <ellipse class="cls-1" cx="11.09" cy="24.68" rx="6.41" ry="6.51"/>
        <ellipse class="cls-2" cx="11.09" cy="24.68" rx="5.57" ry="5.49"/>
        <ellipse class="cls-1" cx="11.09" cy="24.68" rx="4.57" ry="4.5"/>
        <ellipse class="cls-2" cx="11.09" cy="24.68" rx="3.68" ry="3.54"/>
        <ellipse class="cls-1" cx="11.09" cy="24.68" rx="2.79" ry="2.68"/>
      </g>
      <g>
        <ellipse class="cls-1" cx="21.54" cy="25.94" rx="13.21" ry="9.18"/>
        <ellipse class="cls-2" cx="21.54" cy="25.94" rx="12.02" ry="8.35"/>
        <ellipse class="cls-1" cx="21.54" cy="25.94" rx="10.78" ry="7.49"/>
        <ellipse class="cls-2" cx="21.54" cy="25.94" rx="9.51" ry="6.73"/>
        <ellipse class="cls-1" cx="21.54" cy="25.94" rx="8.61" ry="5.76"/>
        <ellipse class="cls-2" cx="21.54" cy="25.94" rx="7.48" ry="4.86"/>
        <ellipse class="cls-1" cx="21.54" cy="25.94" rx="6.14" ry="3.98"/>
        <ellipse class="cls-2" cx="21.54" cy="25.94" rx="4.94" ry="3.13"/>
        <ellipse class="cls-1" cx="21.54" cy="25.94" rx="3.75" ry="2.37"/>
      </g>
      <path class="cls-5" d="M48.8,23.14c0,.41,0,.81-.09,1.21s-.09.9-.15,1.34c0,.24-.07.47-.1.71-.07.45-.15.9-.24,1.34-1.61,8.16-6.11,13.85-11.74,17.07V49.1h-24V44.82C6.86,41.59,2.36,35.9.75,27.74.66,27.3.58,26.85.51,26.4c0-.24-.07-.47-.1-.71C.35,25.25.3,24.8.26,24.35s-.07-.8-.09-1.2H48.8Z"/>
      <path class="cls-6" d="M49,23q-.06,1.2-.15,2.37H.15Q.06,24.16,0,23Z"/>
      <rect class="cls-7" x="12.46" y="44.68" width="23.96" height="0.58"/>
    </g>
    <ellipse class="cls-8" cx="16.51" cy="34.52" rx="1.9" ry="1.21"/>
    <ellipse class="cls-8" cx="31.61" cy="34.52" rx="1.9" ry="1.21"/>
    <path class="cls-9" d="M26.76,38.86c0,1.4-1.23-1.4-2.6-1.4s-2.36,2.8-2.36,1.4a2.48,2.48,0,1,1,5,0Z"/>
    <circle class="cls-10" cx="31.61" cy="30.22" r="1.92"/>
    <circle class="cls-10" cx="16.51" cy="30.22" r="1.92"/>
    <g>
      <path class="cls-11" d="M39.26,38h0l-1-.54,0,1.14h0a.64.64,0,0,0,.1.35.67.67,0,0,0,1.14-.7A.8.8,0,0,0,39.26,38Z"/>
      <path class="cls-12" d="M39.51,38.25c.06.09.1.35,0,.41s0-.26-.09-.35-.29-.2-.19-.26S39.45,38.16,39.51,38.25Z"/>
    </g>
    <g>
      <path class="cls-11" d="M37.49,35.42h0l-1-.54,0,1.14h0a.64.64,0,0,0,.1.35.66.66,0,0,0,.92.21.65.65,0,0,0,.21-.91A.69.69,0,0,0,37.49,35.42Z"/>
      <path class="cls-12" d="M37.74,35.72c.06.09.09.35,0,.41s0-.26-.09-.35-.29-.2-.19-.26S37.68,35.63,37.74,35.72Z"/>
    </g>
    <g>
      <path class="cls-11" d="M35.56,32.82h0l-1.08-.39.2,1.13h0a.76.76,0,0,0,.15.33.67.67,0,0,0,.94.07.65.65,0,0,0,.08-.93A.69.69,0,0,0,35.56,32.82Z"/>
      <path class="cls-12" d="M35.86,33.08c.07.08.14.33,0,.41s-.06-.26-.14-.34-.31-.15-.22-.23S35.79,33,35.86,33.08Z"/>
    </g>
    <g>
      <path class="cls-11" d="M8.88,38.09h0l1-.55,0,1.15h0a.66.66,0,0,1-1,.56.67.67,0,0,1-.22-.92A.69.69,0,0,1,8.88,38.09Z"/>
      <path class="cls-12" d="M8.63,38.39c-.06.09-.1.35,0,.41s0-.26.09-.36.28-.19.19-.25S8.68,38.29,8.63,38.39Z"/>
    </g>
    <g>
      <path class="cls-11" d="M10.65,35.56h0l1-.55,0,1.15h0a.64.64,0,0,1-.1.35.67.67,0,0,1-.92.22.68.68,0,0,1-.22-.92A.62.62,0,0,1,10.65,35.56Z"/>
      <path class="cls-12" d="M10.4,35.85c-.06.1-.1.36,0,.42s0-.26.09-.36.29-.2.19-.26S10.45,35.76,10.4,35.85Z"/>
    </g>
    <g>
      <path class="cls-11" d="M12.58,33h0l1.08-.39-.21,1.12h0a.62.62,0,0,1-.15.33.66.66,0,1,1-1-.86A.61.61,0,0,1,12.58,33Z"/>
      <path class="cls-12" d="M12.28,33.21c-.07.09-.14.34-.06.41s.07-.25.14-.33.32-.16.23-.23S12.35,33.13,12.28,33.21Z"/>
    </g>
  </g>
</svg>
