<svg id="Layer_1" data-name="Layer 1" xmlns="http://www.w3.org/2000/svg" width="592.97" height="456.17" viewBox="0 0 592.97 456.17">
  <defs>
    <style>
      .cls-1 {
        fill: #fddeb0;
      }

      .cls-2 {
        fill: #eba228;
      }

      .cls-3 {
        fill: #fff;
      }

      .cls-4 {
        fill: #ee7a68;
      }

      .cls-5 {
        fill: #f5cfe4;
      }

      .cls-6 {
        fill: #dadada;
      }

      .cls-7 {
        fill: #dda4ca;
      }

      .cls-8 {
        fill: #585657;
      }

      .cls-9 {
        fill: #915234;
      }

      .cls-10 {
        fill: none;
        stroke: #915334;
        stroke-miterlimit: 10;
        stroke-width: 2.25px;
      }
    </style>
  </defs>
  <g>
    <g>
      <g>
        <ellipse class="cls-1" cx="421.49" cy="138.26" rx="80.06" ry="126.66" transform="translate(133.48 475.63) rotate(-67.67)"/>
        <ellipse class="cls-2" cx="421.49" cy="138.26" rx="72.87" ry="115.28" transform="translate(133.48 475.63) rotate(-67.67)"/>
        <ellipse class="cls-1" cx="421.49" cy="138.26" rx="65.34" ry="103.36" transform="translate(133.48 475.63) rotate(-67.67)"/>
        <ellipse class="cls-2" cx="421.49" cy="138.26" rx="58.68" ry="91.25" transform="translate(133.25 475.43) rotate(-67.63)"/>
        <ellipse class="cls-1" cx="421.49" cy="138.26" rx="50.28" ry="82.6" transform="translate(133.92 476) rotate(-67.75)"/>
        <ellipse class="cls-2" cx="421.49" cy="138.26" rx="42.36" ry="71.76" transform="translate(134.23 476.27) rotate(-67.8)"/>
        <ellipse class="cls-1" cx="421.49" cy="138.26" rx="34.73" ry="58.84" transform="translate(134.23 476.27) rotate(-67.8)"/>
        <ellipse class="cls-2" cx="421.49" cy="138.26" rx="27.3" ry="47.35" transform="translate(134.44 476.45) rotate(-67.84)"/>
        <ellipse class="cls-1" cx="421.49" cy="138.26" rx="20.71" ry="35.92" transform="translate(134.44 476.45) rotate(-67.84)"/>
      </g>
      <g>
        <ellipse class="cls-1" cx="134.33" cy="120.66" rx="118.81" ry="120.88" transform="translate(-31.68 49.64) rotate(-18.77)"/>
        <ellipse class="cls-2" cx="134.33" cy="120.66" rx="108.14" ry="110.02" transform="translate(-31.68 49.64) rotate(-18.77)"/>
        <ellipse class="cls-1" cx="134.33" cy="120.66" rx="96.96" ry="98.64" transform="translate(-31.68 49.64) rotate(-18.77)"/>
        <ellipse class="cls-2" cx="134.33" cy="120.66" rx="85.66" ry="88.52" transform="translate(-18 23.72) rotate(-9.46)"/>
        <ellipse class="cls-1" cx="134.33" cy="120.66" rx="75.69" ry="77.7" transform="translate(-10.79 228.11) rotate(-78.45)"/>
        <ellipse class="cls-2" cx="134.33" cy="120.66" rx="63.81" ry="67.47" transform="translate(1.92 243.43) rotate(-84.77)"/>
        <ellipse class="cls-1" cx="134.33" cy="120.66" rx="52.32" ry="55.32" transform="translate(1.92 243.43) rotate(-84.77)"/>
        <ellipse class="cls-2" cx="134.33" cy="120.66" rx="41.13" ry="44.51" transform="matrix(0.06, -1, 1, 0.06, 5.39, 247.07)"/>
        <ellipse class="cls-1" cx="134.33" cy="120.66" rx="31.2" ry="33.76" transform="translate(5.39 247.07) rotate(-86.36)"/>
      </g>
      <g>
        <ellipse class="cls-1" cx="260.95" cy="135.55" rx="106.81" ry="159.84" transform="matrix(0.01, -1, 1, 0.01, 122.63, 395.05)"/>
        <ellipse class="cls-2" cx="260.95" cy="135.55" rx="97.22" ry="145.48" transform="translate(122.63 395.05) rotate(-89.39)"/>
        <ellipse class="cls-1" cx="260.95" cy="135.55" rx="87.17" ry="130.44" transform="matrix(0.01, -1, 1, 0.01, 122.63, 395.05)"/>
        <ellipse class="cls-2" cx="260.95" cy="135.55" rx="78.29" ry="115.15" transform="matrix(0.01, -1, 1, 0.01, 122.49, 394.97)"/>
        <ellipse class="cls-1" cx="260.95" cy="135.55" rx="67.07" ry="104.24" transform="translate(122.9 395.19) rotate(-89.45)"/>
        <ellipse class="cls-2" cx="260.95" cy="135.55" rx="56.51" ry="90.56" transform="matrix(0.01, -1, 1, 0.01, 123.09, 395.29)"/>
        <ellipse class="cls-1" cx="260.95" cy="135.55" rx="46.34" ry="74.25" transform="translate(123.09 395.29) rotate(-89.49)"/>
        <ellipse class="cls-2" cx="260.95" cy="135.55" rx="36.42" ry="59.76" transform="translate(123.22 395.36) rotate(-89.52)"/>
        <ellipse class="cls-1" cx="260.95" cy="135.55" rx="27.63" ry="45.32" transform="translate(123.22 395.36) rotate(-89.52)"/>
      </g>
      <path class="cls-3" d="M590.55,103.75c-.25,4.75-.57,9.42-1,14-.45,5.28-1,10.5-1.69,15.63-.35,2.74-.74,5.49-1.14,8.19-.8,5.31-1.72,10.5-2.73,15.63-18.72,94.93-72.59,161-140.46,198.39l.41,49.83-290.28-.64L153.25,355C84.76,317.34,29.79,251,9.49,156c-1.09-5.13-2.1-10.35-3-15.64-.47-2.7-.89-5.45-1.3-8.2C4.49,127,3.84,121.77,3.3,116.49c-.5-4.61-.9-9.29-1.23-14l16,0,495.61,1.09Z"/>
      <path class="cls-4" d="M593,101.66c-.42,9.3-1,18.49-1.61,27.52L2,127.88Q.87,114.34,0,100.35Z"/>
      <ellipse class="cls-5" cx="206.85" cy="246.93" rx="14.61" ry="22.67" transform="translate(-42.05 451.4) rotate(-89.45)"/>
      <ellipse class="cls-5" cx="386.57" cy="247.33" rx="14.61" ry="22.67" transform="translate(135.54 631.5) rotate(-89.45)"/>
      <polygon class="cls-6" points="442.87 360.72 152.89 360.08 152.84 353.39 442.82 354.03 442.87 360.72"/>
      <ellipse class="cls-7" cx="297.02" cy="304.88" rx="26.96" ry="27.43" transform="translate(-82.31 111.8) rotate(-18.77)"/>
      <polygon class="cls-8" points="232.81 215.42 206.99 190.48 231.32 164.57 225.06 158.53 200.74 184.44 174.92 159.5 169.02 165.78 194.84 190.72 170.51 216.63 176.77 222.68 201.1 196.76 226.92 221.7 232.81 215.42"/>
      <polygon class="cls-8" points="418.01 216.19 392.19 191.25 416.52 165.34 410.26 159.3 385.93 185.21 360.11 160.27 354.22 166.55 380.04 191.49 355.71 217.41 361.96 223.45 386.29 197.53 412.11 222.47 418.01 216.19"/>
    </g>
    <g>
      <g>
        <path class="cls-9" d="M524.47,348.22a3.29,3.29,0,0,1,1.5-1.09c2.4-.8,5.47,1.23,6.86,4.57s.57,6.7-1.81,7.52a3.32,3.32,0,0,1-1.57.15c-2-.24-4.18-2.06-5.27-4.7C523.15,352.21,523.32,349.68,524.47,348.22Z"/>
        <path class="cls-9" d="M529.45,359.37l-13,3.54v0l-3.2-11.26,11.21-3.41c-1.15,1.46-1.32,4-.29,6.45C525.27,357.31,527.42,359.13,529.45,359.37Z"/>
        <polygon class="cls-9" points="516.47 362.91 513.47 363.74 513.46 363.69 510.35 353.25 510.14 352.56 513.25 351.61 513.26 351.63 516.46 362.89 516.47 362.91"/>
        <polygon class="cls-9" points="513.47 363.74 220.66 443.71 219.8 440.9 510.14 352.56 510.35 353.25 513.46 363.69 513.47 363.74"/>
      </g>
      <g>
        <polyline class="cls-10" points="513.25 351.61 510.14 352.56 219.8 440.9 218.97 441.15"/>
        <polyline class="cls-10" points="524.61 348.17 524.47 348.22 513.26 351.63"/>
        <polyline class="cls-10" points="529.45 359.37 516.47 362.91 513.47 363.74 220.66 443.71"/>
        <path class="cls-10" d="M524.47,348.22a3.29,3.29,0,0,1,1.5-1.09c2.4-.8,5.47,1.23,6.86,4.57s.57,6.7-1.81,7.52a3.32,3.32,0,0,1-1.57.15c-2-.24-4.18-2.06-5.27-4.7C523.15,352.21,523.32,349.68,524.47,348.22Z"/>
        <polyline class="cls-10" points="513.25 351.61 513.26 351.63 516.46 362.89"/>
        <line class="cls-10" x1="510.35" y1="353.25" x2="513.46" y2="363.69"/>
      </g>
    </g>
    <g>
      <g>
        <path class="cls-9" d="M519.56,442.45a3.15,3.15,0,0,1,1.79-.48c2.52.11,4.69,3.11,4.85,6.71s-1.76,6.44-4.3,6.36a3.28,3.28,0,0,1-1.51-.43h0c-1.83-.95-3.2-3.42-3.32-6.29C516.94,445.64,518,443.39,519.56,442.45Z"/>
        <path class="cls-9" d="M520.37,454.61,507,453.26v0l.87-11.63,11.74.84c-1.59.94-2.62,3.19-2.51,5.87C517.17,451.19,518.54,453.66,520.37,454.61Z"/>
        <polygon class="cls-9" points="506.96 453.26 503.82 452.94 503.83 452.92 504.5 442.06 504.52 441.38 507.82 441.59 507.82 441.61 506.95 453.24 506.96 453.26"/>
        <polygon class="cls-9" points="503.82 452.94 200.57 422.64 200.73 419.72 504.52 441.38 504.5 442.06 503.83 452.92 503.82 452.94"/>
      </g>
      <g>
        <polyline class="cls-10" points="507.82 441.59 504.52 441.38 200.73 419.72 199.89 419.67"/>
        <polyline class="cls-10" points="519.7 442.45 519.56 442.45 507.82 441.61"/>
        <polyline class="cls-10" points="520.37 454.61 506.96 453.26 503.82 452.94 200.57 422.64"/>
        <path class="cls-10" d="M519.56,442.45a3.15,3.15,0,0,1,1.79-.48c2.52.11,4.69,3.11,4.85,6.71s-1.76,6.44-4.3,6.36a3.28,3.28,0,0,1-1.51-.43h0c-1.83-.95-3.2-3.42-3.32-6.29C516.94,445.64,518,443.39,519.56,442.45Z"/>
        <polyline class="cls-10" points="507.82 441.59 507.82 441.61 506.95 453.24"/>
        <line class="cls-10" x1="504.49" y1="442.06" x2="503.83" y2="452.92"/>
      </g>
    </g>
  </g>
</svg>
