<svg id="Layer_1" data-name="Layer 1" xmlns="http://www.w3.org/2000/svg" width="700" height="700" viewBox="0 0 700 700">
  <defs>
    <style>
      .cls-1 {
        fill: #dadada;
      }

      .cls-2 {
        fill: #ea8b86;
      }

      .cls-3 {
        fill: #edebec;
      }

      .cls-4 {
        fill: #915234;
      }

      .cls-11, .cls-12, .cls-5 {
        fill: none;
        stroke-miterlimit: 10;
      }

      .cls-5 {
        stroke: #915334;
        stroke-width: 1.7px;
      }

      .cls-6 {
        opacity: 0.6;
      }

      .cls-7 {
        fill: #f2c64c;
      }

      .cls-8 {
        fill: #eddaa6;
      }

      .cls-34, .cls-9 {
        fill: #fff;
      }

      .cls-10 {
        fill: #999696;
      }

      .cls-11 {
        stroke: #585657;
      }

      .cls-11, .cls-12 {
        stroke-width: 5.31px;
      }

      .cls-12 {
        stroke: #575757;
      }

      .cls-13 {
        fill: #dda3ca;
      }

      .cls-14 {
        fill: #f5cfe4;
      }

      .cls-15 {
        fill: #f4d77d;
      }

      .cls-16 {
        fill: #f2d17e;
      }

      .cls-17 {
        fill: #efddac;
      }

      .cls-18 {
        fill: #efdfb6;
      }

      .cls-19 {
        fill: #eac660;
      }

      .cls-20 {
        fill: #eadcbb;
      }

      .cls-21 {
        fill: #efc44b;
      }

      .cls-22 {
        fill: #ffe567;
      }

      .cls-23 {
        opacity: 0.9;
      }

      .cls-24 {
        fill: #e86dbf;
      }

      .cls-25 {
        fill: #ddc0ac;
      }

      .cls-26 {
        fill: #614636;
      }

      .cls-27 {
        fill: #7dba74;
      }

      .cls-28 {
        fill: #bddb93;
      }

      .cls-29 {
        opacity: 0.8;
      }

      .cls-30 {
        opacity: 0.5;
      }

      .cls-31 {
        fill: #b27666;
      }

      .cls-32 {
        fill: #c49a91;
      }

      .cls-33 {
        opacity: 0.3;
      }

      .cls-34 {
        opacity: 0.2;
      }
    </style>
  </defs>
  <g>
    <circle class="cls-1" cx="363.33" cy="421.35" r="266.83"/>
    <g>
      <path class="cls-2" d="M90.29,315.27,57.45,293.13c-3.81-2.6-4.82-5.82-2.91-9.45L58.05,277c1.84-3.51,4.88-4.6,9.19-3.3l28,8.4-22.8-18.35c-3.52-2.82-4.34-5.94-2.49-9.45l3.51-6.67c1.91-3.63,5.14-4.62,9.44-2.95l36.84,14.53c4.76,1.91,6.24,5.22,4.15,9.2l-1.3,2.46c-1.91,3.63-5.2,4.58-9.5,2.77l-21.87-9.19,19.13,15.67c3.42,2.84,4.24,6,2.39,9.47l-1.41,2.69c-1.85,3.51-4.88,4.61-9.16,3.4L78.46,288.8l20,12.81c3.93,2.52,5,5.78,3.11,9.4l-1.3,2.46C98.13,317.45,94.56,318.11,90.29,315.27Z"/>
      <path class="cls-2" d="M150.85,221.26c5.05,2,6.33,5.89,3.26,9.61l-1.81,2.2c-2.47,3-5.55,3.56-9.58,1.61l-.56-.27-8.59,10.45.37.49c2.69,3.58,2.74,6.7.26,9.72l-1.85,2.24c-3.06,3.73-7.07,3.17-10.06-1.34L99.57,221.26c-2.39-3.59-2.34-6.72.1-9.68l3.27-4c2.44-3,5.5-3.61,9.48-2l38.43,15.62Zm-20.1,7.66L116.42,222,126,234.74Z"/>
      <path class="cls-2" d="M156,218l-25.83-29.62c-3.21-3.67-3.19-7.17,0-10l2.09-1.83c3.24-2.82,6.71-2.36,9.91,1.31l8.63,9.89-5-15.72a8.64,8.64,0,0,1,2.78-9.68l2.64-2.3c4.44-3.87,7.71-3.24,9.31,3.82l4.21,18.42,20.29,8.38c6.59,2.72,6.87,6,2.48,9.77l-2.79,2.44a8.48,8.48,0,0,1-10,1.23l-17.26-8.73,10.55,12.1c3.2,3.67,3.18,7.17-.06,10l-2.09,1.83C162.68,222.09,159.21,221.63,156,218Z"/>
      <path class="cls-2" d="M191.91,187.85l-21.13-33.14c-2.62-4.11-2.08-7.57,1.54-9.88l16.33-10.42c3.62-2.31,7-1.34,9.6,2.77l.53.82c2.62,4.11,2.08,7.57-1.54,9.88l-8.42,5.37,2.58,4.05,7.42-4.73c3.62-2.31,6.78-1.66,9,1.76l0,.06c2.22,3.48,1.48,6.62-2.15,8.93l-7.41,4.73,2.62,4.11,8.42-5.37c3.62-2.31,7-1.34,9.6,2.77l.49.76c2.62,4.11,2.08,7.57-1.54,9.88l-16.33,10.42C197.9,192.93,194.53,192,191.91,187.85Z"/>
      <path class="cls-2" d="M276.76,144.32c4.28,4.54,4.05,7.94-1.52,10l-2.78,1.05c-3.59,1.36-6.55.38-9.17-3l-6.29-8-.9.35-2.47.93,2.88,7.65c1.72,4.56.48,7.83-3.54,9.35l-2.72,1c-4,1.52-7.11-.12-8.83-4.68l-13.86-36.77c-1.72-4.57-.48-7.84,3.54-9.35l11.69-4.41c15.71-5.92,22,.14,25.84,10.45,2,5.27,2.36,11.16-.41,16.27Zm-25.06-11c3.72-1.4,3.45-4.34,2.42-7.08s-2.7-4.91-6.41-3.51l-2.48.93,4,10.59Z"/>
      <path class="cls-2" d="M322.67,143.36l-2.79.55c-3.83.77-6.56-.76-8.44-4.82l-.26-.56-13.27,2.64,0,.62c-.19,4.47-2.13,6.92-6,7.68l-2.85.57c-4.73.94-7.48-2-6.93-7.42l4.39-41.25c.43-4.29,2.45-6.68,6.21-7.43l5.06-1c3.76-.75,6.54.68,8.58,4.48l19.85,36.44C328.87,138.61,327.4,142.42,322.67,143.36Zm-16.85-16.3-6.72-14.42-.66,15.89Z"/>
      <path class="cls-2" d="M330.34,133l4-39.41c.5-4.57,2.86-7,7-7l7.53,0c4,0,6.36,2.13,7.25,6.55l5.81,28.69L367.36,93c.83-4.43,3.19-6.63,7.16-6.65l7.53,0c4.1,0,6.5,2.35,7.06,6.93l4.56,39.34c.56,5.1-1.67,8-6.16,8l-2.78,0c-4.1,0-6.49-2.43-6.92-7.08l-2.21-23.61-4.79,24.26c-.9,4.35-3.27,6.55-7.23,6.57l-3,0c-4,0-6.36-2.13-7.32-6.47l-5.12-24.19-1.89,23.63c-.36,4.66-2.73,7.15-6.82,7.18h-2.78C332.12,141,329.85,138.14,330.34,133Z"/>
      <path class="cls-2" d="M400.11,135.09l6.95-38.68c.87-4.79,3.61-7,7.84-6.21L434,93.63c4.23.76,6,3.76,5.18,8.55l-.17,1c-.87,4.8-3.61,7-7.84,6.21l-9.82-1.76-.85,4.72,8.65,1.56c4.23.76,6.11,3.38,5.39,7.37v.07c-.73,4.06-3.4,5.86-7.63,5.1l-8.66-1.55-.86,4.8,9.83,1.76c4.22.76,6,3.76,5.17,8.55l-.15.89c-.87,4.8-3.61,7-7.84,6.21l-19.06-3.43C401.06,142.88,399.25,139.89,400.11,135.09Z"/>
      <path class="cls-2" d="M439.16,142.29l13-37.1c1.61-4.6,4.67-6.32,8.72-4.9L464,101.4c3.43,1.2,5.22,3.5,5.69,7.56l2.62,22,5.81-16.63c1.61-4.61,4.66-6.32,8.72-4.9l2.62.91c4.06,1.42,5.38,4.66,3.77,9.27l-13,37.1c-1.61,4.6-4.66,6.31-8.72,4.9l-3.18-1.12c-3.43-1.2-5.22-3.49-5.69-7.55L460.11,131l-5.79,16.57c-1.61,4.6-4.66,6.32-8.71,4.9l-2.69-.94C438.87,150.14,437.55,146.89,439.16,142.29Z"/>
      <path class="cls-2" d="M503.53,168.17l21.38-33c2.66-4.09,6-5,9.63-2.7l2.39,1.55c3.6,2.34,4.11,5.8,1.46,9.89l-6.32,9.75,7.87,5.11,6.33-9.76c2.65-4.09,6-5,9.63-2.69l2.38,1.55c3.61,2.33,4.12,5.79,1.47,9.88l-21.38,33c-2.66,4.09-6,5-9.63,2.69l-2.39-1.54c-3.6-2.34-4.11-5.8-1.46-9.89l6.36-9.82-7.87-5.1L517,176.91c-2.65,4.09-6,5-9.63,2.7L505,178.06C501.39,175.73,500.88,172.26,503.53,168.17Z"/>
      <path class="cls-2" d="M576.71,224c-2.32,4.92-6.27,6-9.8,2.67l-2.08-1.94c-2.85-2.66-3.21-5.76-1-9.67l.3-.54-9.9-9.21-.51.34c-3.74,2.46-6.86,2.32-9.72-.33l-2.12-2c-3.53-3.28-2.73-7.25,2-10l36-20.56c3.73-2.16,6.85-1.92,9.66.69l3.77,3.52c2.81,2.61,3.27,5.7,1.38,9.58L576.71,224Zm-6.42-20.53,7.76-13.89-13.27,8.76Z"/>
      <path class="cls-2" d="M579.62,229.38l31.27-23.8c3.88-3,7.37-2.7,10,.72l5.68,7.47c11.37,14.94,8.3,23.92-2.92,32.45s-20.27,8.79-31.52-6l-.07-.11-2.69,2c-3.88,3-7.37,2.7-10-.71l-1.72-2.27C575.05,235.77,575.74,232.33,579.62,229.38Zm26.31,3.74c2.4,3.15,5.51,1.78,8-.12s4.48-4.4,2.08-7.56l-1.73-2.26-10.08,7.67Z"/>
      <path class="cls-2" d="M606.59,266l34.83-18.21c4.32-2.26,7.71-1.43,9.7,2.38l4.36,8.31c8.7,16.64,4.18,25-8.32,31.51s-21.45,5.26-30.07-11.2l-.06-.12-3,1.57c-4.32,2.26-7.72,1.42-9.71-2.38L603,275.31C601,271.5,602.28,268.23,606.59,266Zm25.32,8.1c1.84,3.51,5.13,2.68,7.92,1.22s5.15-3.58,3.31-7.1l-1.32-2.52-11.23,5.88Z"/>
      <path class="cls-2" d="M629.59,316l6.63-2.17L662,291.46c4.31-3.71,8.35-2.94,9.93,1.9l1.07,3.27c1.17,3.58.15,6.49-3.27,9.06l-13.19,9.87,16.49.25c4.21.09,6.82,1.81,8,5.39l1.13,3.45c1.58,4.84-1.28,7.93-6.9,7.4l-34-3-6.21,2c-4.63,1.52-7.85.13-9.18-3.95l-.86-2.64C623.61,320.39,625.31,317.4,629.59,316Z"/>
    </g>
    <circle class="cls-3" cx="362.02" cy="421.35" r="243.71"/>
    <g>
      <g>
        <g>
          <path class="cls-4" d="M517.11,239.16a2.21,2.21,0,0,1,.08-1.34c.7-1.72,3.46-2.54,6.17-1.82s4.35,2.71,3.67,4.43a2.53,2.53,0,0,1-.68,1,6.13,6.13,0,0,1-5.47.86C518.88,241.72,517.43,240.47,517.11,239.16Z"/>
          <path class="cls-4" d="M526.35,241.39l-4.28,9h0l-8.42-3.28,3.48-7.9c.32,1.31,1.77,2.56,3.77,3.09A6.13,6.13,0,0,0,526.35,241.39Z"/>
          <polygon class="cls-4" points="522.07 250.34 521.09 252.42 521.06 252.4 513.17 249.44 512.65 249.25 513.62 247.06 513.63 247.06 522.05 250.34 522.07 250.34"/>
          <polygon class="cls-4" points="521.09 252.42 424.71 454.6 422.58 453.82 512.65 249.25 513.17 249.44 521.06 252.4 521.09 252.42"/>
        </g>
        <g>
          <polyline class="cls-5" points="513.62 247.06 512.65 249.25 422.58 453.82 422.32 454.4"/>
          <polyline class="cls-5" points="517.15 239.06 517.11 239.16 513.63 247.06"/>
          <polyline class="cls-5" points="526.35 241.39 522.07 250.34 521.09 252.42 424.71 454.6"/>
          <path class="cls-5" d="M517.11,239.16a2.21,2.21,0,0,1,.08-1.34c.7-1.72,3.46-2.54,6.17-1.82s4.35,2.71,3.67,4.43a2.53,2.53,0,0,1-.68,1,6.13,6.13,0,0,1-5.47.86C518.88,241.72,517.43,240.47,517.11,239.16Z"/>
          <polyline class="cls-5" points="513.62 247.06 513.63 247.06 522.05 250.34"/>
          <line class="cls-5" x1="513.17" y1="249.44" x2="521.06" y2="252.4"/>
        </g>
      </g>
      <g>
        <g>
          <path class="cls-4" d="M552.28,251a2.22,2.22,0,0,1,.28-1.32c1-1.61,3.81-2.05,6.39-1s3.9,3.22,3,4.85a2.33,2.33,0,0,1-.83.85h0a6.18,6.18,0,0,1-5.56.14C553.6,253.74,552.39,252.35,552.28,251Z"/>
          <path class="cls-4" d="M561.08,254.4l-5.61,8.31h0l-7.84-4.31,4.66-7.38c.11,1.34,1.32,2.73,3.24,3.53A6.18,6.18,0,0,0,561.08,254.4Z"/>
          <polygon class="cls-4" points="555.48 262.71 554.16 264.65 554.15 264.63 546.77 260.7 546.31 260.46 547.6 258.39 547.62 258.39 555.46 262.7 555.48 262.71"/>
          <polygon class="cls-4" points="554.16 264.65 427.63 452.51 425.65 451.46 546.31 260.46 546.77 260.7 554.15 264.63 554.16 264.65"/>
        </g>
        <g>
          <polyline class="cls-5" points="547.6 258.39 546.31 260.46 425.65 451.46 425.32 451.99"/>
          <polyline class="cls-5" points="552.33 250.92 552.28 251.01 547.62 258.39"/>
          <polyline class="cls-5" points="561.08 254.4 555.48 262.71 554.16 264.65 427.63 452.51"/>
          <path class="cls-5" d="M552.28,251a2.22,2.22,0,0,1,.28-1.32c1-1.61,3.81-2.05,6.39-1s3.9,3.22,3,4.85a2.33,2.33,0,0,1-.83.85h0a6.18,6.18,0,0,1-5.56.14C553.6,253.74,552.39,252.35,552.28,251Z"/>
          <polyline class="cls-5" points="547.6 258.39 547.62 258.39 555.46 262.7"/>
          <line class="cls-5" x1="546.77" y1="260.7" x2="554.15" y2="264.63"/>
        </g>
      </g>
      <g class="cls-6">
        <path class="cls-7" d="M409.29,355.42l20.34-4.57c4.41,4,8.64,8.22,9.2,13.18s-2.94,10.87-12.32,16.23-25.34,9.85-37.9,9.83c-12.18,0-18.28-4-21.87-8.08s-5.9-8.79-14.2-11.23c-11.7-3.44-34.88-1.08-51.32,5.22a19.75,19.75,0,0,0-4.29,2.07,3.71,3.71,0,0,0-1.62,2.61C292.34,397.17,323.19,407,363,407c3.78,0,8.05,0,9.25,1.27,2.31,2.41-8.05,6-16,7.84-2.88-4-15.3-4.49-25.53-5.48-23.44-2.26-40-9-45.56-18.43-4.21-7.2.49-17.8,20.5-24.73,12.41-4.3,27.36-5.93,39.87-6,23.92-.16,42.41,4.72,48.81,12.89,1.76,2.26,2.75,4.8,6.75,6.31s12.39,1.52,18.64-.89a16.85,16.85,0,0,0,5.66-3.44c4.68-4.47,2.43-8.43-1.67-11.49s-9.94-5.57-12.56-9"/>
      </g>
      <g class="cls-6">
        <path class="cls-8" d="M301.77,407.23c2.4-1.17-.16-2.68-3.7-2.58a20.45,20.45,0,0,0-9.1,2.47c-6.56,3.72-4.14,8.48,4.31,10.24s21.33.64,30.5-2.27,14.57-7.32,15.13-11.32c.36-2.56-1.46-5.17-7-6.24a47.56,47.56,0,0,0-10.17-.53c-14.77.5-29.26,4.05-43.87,6.44-4.37.71-9.33,1.33-13,.69a8.43,8.43,0,0,1-4.61-2.15c-6.4-6.08,5.15-15,23-19.18,18.73-4.43,41.63-4.34,59-9.62a9.59,9.59,0,0,0,3.35-1.47c1.55-1.46-2.33-2.41-5.71-2.88-13.1,3.23-26.73,6.08-40.67,8.49-6.58,1.14-13.26,2.19-19.6,3.6-10.1,2.24-19.34,5.48-24.83,9.33s-6.83,8.32-2.22,11.48,15.58,4.66,26.24,3.17c5.11-.71,9.79-2,14.63-3.08a100.76,100.76,0,0,1,20.14-2.57c6.71-.09,13,.93,15.67,3,2.42,1.91,1.49,4.44-.56,6.79-1.89,2.16-5.12,4.47-10.54,5.7a41.29,41.29,0,0,1-18.76-.5c-3.09-.86-5.67-2.09-5.58-3.69s3.75-3.53,8.1-3.76"/>
      </g>
      <path class="cls-9" d="M534,390.37c-.16,3.23-.35,6.41-.61,9.54-.28,3.6-.62,7.15-1,10.63-.22,1.87-.44,3.74-.69,5.58q-.72,5.42-1.64,10.64c-11.2,64.62-43.2,109.84-83.47,135.54l.18,33.88-172,1-.19-33.87c-40.55-25.28-73.05-70.12-85-134.63-.64-3.49-1.23-7-1.74-10.62q-.42-2.76-.76-5.57c-.43-3.48-.81-7-1.12-10.62-.3-3.13-.53-6.31-.72-9.52l9.46-.05,293.74-1.61Z"/>
      <path class="cls-10" d="M534.31,388.83c-.61,27.1-79.3,38-176,35.77s-174.18-13.43-173.56-40.53S263.51,339,360.21,341.23,534.93,361.74,534.31,388.83Z"/>
      <polyline class="cls-11" points="325.97 487.03 306.81 467.27 286.81 487.43"/>
      <polyline class="cls-12" points="430.6 486.46 411.45 466.7 391.44 486.85"/>
      <path class="cls-13" d="M340,520.88a5.7,5.7,0,0,0-5.39,7.5c4.12,11.79,13.79,20,25.05,20s20.84-8.43,24.83-20.26a5.69,5.69,0,0,0-5.47-7.44Z"/>
      <ellipse class="cls-14" cx="306.48" cy="504.58" rx="13.44" ry="8.54" transform="translate(-2.77 1.69) rotate(-0.31)"/>
      <ellipse class="cls-14" cx="411.12" cy="504" rx="13.44" ry="8.54" transform="translate(-2.76 2.27) rotate(-0.31)"/>
      <rect class="cls-3" x="274.3" y="566.59" width="171.87" height="3.91" transform="translate(-3.12 1.99) rotate(-0.31)"/>
      <path class="cls-15" d="M308.5,406.77l-1,9.33c-10.33,1-20.84,1.89-31.1,1.1s-20.42-3.44-26.52-8.41-7.19-12.49-.88-17.67c6.12-5,17.09-6.73,27.16-7.37s20.63-.63,29.68-3.56c12.75-4.12,19.56-14.18,15.08-22.26a5.36,5.36,0,0,0-2-2.2,13,13,0,0,0-4.43-1.2c-31.71-4.6-66.8,6.12-86.71,22.53-1.89,1.56-4.06,3.32-7.17,3.56-6,.46-8-4.55-7.79-8.21,9.5-.36,16.66-5.39,23.75-9.42,16.23-9.21,38-14.69,59.79-15,16.59-.26,35.57,3.85,39.54,13.54,2.46,6-1.7,12.51-7.78,17.69-11.61,9.91-30.65,16.54-50.28,17.51-5.41.26-11,.15-16.05,1.49s-9.24,4.8-7.51,7.88a8.45,8.45,0,0,0,4.1,3c6.66,2.85,15.76,2.73,23.94,1.67s16.17-3,24.47-3.33"/>
      <path class="cls-15" d="M430.83,407.48l-.95,9.33c-10.34,1-20.84,1.88-31.11,1.1s-20.41-3.45-26.51-8.42-7.19-12.48-.89-17.66c6.12-5,17.1-6.74,27.17-7.37s20.63-.64,29.68-3.57c12.75-4.12,19.56-14.18,15.08-22.26a5.39,5.39,0,0,0-2-2.19,13,13,0,0,0-4.44-1.2c-31.71-4.61-66.79,6.12-86.7,22.53-1.89,1.56-4.07,3.31-7.18,3.55-6,.47-8-4.54-7.79-8.2,9.51-.37,16.66-5.4,23.75-9.42,16.23-9.22,38-14.69,59.8-15,16.58-.26,35.57,3.86,39.54,13.54,2.46,6-1.71,12.51-7.78,17.69-11.61,9.91-30.66,16.54-50.29,17.51-5.41.27-11,.15-16.05,1.5s-9.23,4.8-7.51,7.88a8.43,8.43,0,0,0,4.11,3c6.66,2.85,15.75,2.73,23.94,1.66s16.17-3,24.47-3.33"/>
      <path class="cls-7" d="M288,428l-17.86,7.78c-6.06-3.5-12-7.16-14.7-12.2s-1.85-11.66,5-18.6,20.45-14,32.72-15.85c11.89-1.82,19.56,1.33,24.84,5s9.57,8.17,18.73,9.44c12.9,1.78,34.5-4.16,47.82-13.14a13.25,13.25,0,0,0,3.28-2.78,3.19,3.19,0,0,0,.45-2.93c-4.26-17.46-38.6-22.9-77.42-16.94-3.69.56-7.86,1.18-9.57.08-3.31-2.14,5.26-7.38,12.2-10.49,4.55,3.7,16.88,2.32,27.29,1.79,23.85-1.21,43,3.21,52.45,12.13,7.22,6.79,7.23,18.43-9.29,28.6-10.24,6.3-24.12,10.24-36.3,12.22-23.27,3.77-43.42,1.52-53.21-5.94-2.7-2.05-4.77-4.53-9.33-5.48s-12.74.3-17.8,3.73a11.55,11.55,0,0,0-4,4.4c-2.63,5.32,1.28,9.07,6.6,11.6s12.13,4.24,16.19,7.43"/>
      <path class="cls-8" d="M351.62,381.13c-1.83,1.57,1.32,2.74,4.73,2.11a15.32,15.32,0,0,0,7.81-3.92c4.79-4.83.36-9.38-8.64-9.92s-21.1,2.57-28.78,7-11.05,9.75-9.86,14c.76,2.69,3.67,5.11,9.5,5.38a44.69,44.69,0,0,0,10.15-1c14.2-2.74,26.8-8.59,40-13.26,4-1.39,8.53-2.78,12.35-2.67a10.8,10.8,0,0,1,5.44,1.52c8.88,5.31,1.45,16.2-14.12,23.25-16.35,7.39-38.74,10.75-53.42,18.83a6.74,6.74,0,0,0-2.63,2c-.88,1.75,3.32,2.14,6.82,2.11,11.38-5.31,23.45-10.3,36-14.89,5.93-2.17,12-4.26,17.57-6.67,8.88-3.84,16.49-8.57,20.18-13.37s3.06-9.62-2.81-12.17-17.22-2.46-27,.68c-4.68,1.51-8.68,3.55-12.94,5.39a82.29,82.29,0,0,1-18.53,5.69c-6.51,1.1-13.14,1-16.6-.74-3.2-1.61-3.38-4.35-2.4-7.08.91-2.52,3-5.39,7.81-7.48,5.68-2.49,13.15-3,18.52-2.31,3.39.42,6.44,1.3,7.05,3s-2.13,4.21-6.27,5.1"/>
      <path class="cls-16" d="M350.48,394.28c-3.07-.24-3.5,2-1.18,3.59s6,2.28,9,2.38c9.08.29,14-4.3,11.11-9.47s-12.39-10.27-22-12.35-18.88-1.35-24.61,1.32c-3.66,1.71-6,4.45-4.07,7.76,1,1.75,3.19,3.48,5.61,5.06,9.83,6.43,23.61,10.48,35.88,15.45,3.67,1.49,7.58,3.32,9,5.45a3.29,3.29,0,0,1,0,3.7c-4.21,7.38-23.31,8.56-40.06,3.45-17.58-5.36-31.67-15.95-49.57-20.08a12.89,12.89,0,0,0-4.05-.46c-2.94.35-1.8,2.83-.34,4.73,12.48,3.66,24.77,7.84,36.66,12.48,5.62,2.19,11.18,4.49,17,6.37,9.29,3,19.37,4.88,28,4.59s15.44-2.95,16.81-7.38-3.4-10.56-12-14.37c-4.13-1.83-8.77-3-13.22-4.47-5.9-1.91-11.68-4.35-16-7.37s-6.84-6.68-5.68-9.41c1.07-2.51,5-3.92,9.48-4.7a30,30,0,0,1,14.21.67c6,1.9,9.76,5.74,11,9,.76,2.05.7,4.14-1.5,5.27s-7.07.85-10.08-1"/>
      <path class="cls-17" d="M312.5,381c2.94,1.21,7.41-.78,7.59-3s-2.55-4.05-5.65-5.1c-9.41-3.18-22.83-.46-28.75,5.29s-4.45,13.56,2.41,18.58,18.29,7.31,29.23,6.65c7-.42,14.42-2.22,18.07-5.95a9.71,9.71,0,0,0,2.73-6.51c.52-9.16-7.44-17.36-12.15-25.93-1.41-2.57-2.48-5.53-.27-8,1.4-1.55,3.93-2.63,6.51-3.44,17.55-5.55,40.52-.54,49.88,9.6,9.83,10.64,6.67,25,19,34.64a7.76,7.76,0,0,0,3.62,1.73c3.84.61,6.95-2.07,8.67-4.31a126.46,126.46,0,0,1-18.23-23.4c-2.3-3.85-4.34-7.78-7.42-11.4-4.9-5.78-12.64-10.76-22.55-13.24s-22.06-2.19-31.31,1.5-14.81,11-12.07,17.28c1.32,3,4.29,5.64,6.63,8.41,3.11,3.67,5.15,7.81,4.53,12s-4.22,8.43-10.27,10.6c-5.57,2-12.4,2-18.62,1.36-5.72-.64-11.68-2.09-14.37-5.18-3.21-3.69-.61-8.49,3.76-11.91a20.47,20.47,0,0,1,10.87-4.44c4.38-.35,9.24,1.47,9.32,4.14"/>
      <path class="cls-18" d="M324.64,347.58a21.69,21.69,0,0,0-13.77-6.49c-6.4-.64-15.25,1.37-19.85,5.41-4,3.55-3.83,7.46-3.6,11s.24,7.05-2,10.75-7.17,7.56-13.34,9.16c-8.5,2.21-15.46-.45-23.13-1.09-13.77-1.15-31.67,5-41.7,13.54s-12.51,18.57-8.2,26c1.83,3.16,5.24,6.09,11.21,6.4,3.41.17,7.32-.54,10.68-.29,4.42.32,7.41,2.46,7.32,5.24a34.58,34.58,0,0,0,8.54-4.77c-8.93-4.26-24.48-3.81-30.75-9.57-4.85-4.47-2.39-11.86,4.51-17.85s17.54-10.59,28.23-13.34a46.59,46.59,0,0,1,10.6-1.7c6.58-.1,11.42,2.39,18.12,2,5.78-.3,11.87-2.67,17.13-5.28,4-2,8-4.39,9.87-7.12,1.46-2.18,1.32-4.3,1.35-6.38a36.78,36.78,0,0,1,1.4-9.29,8.26,8.26,0,0,1,2.75-4.55c3-2.41,8.4-3.39,12.21-2.87a20.27,20.27,0,0,1,8.8,3.78c2.37-.63,4.25-2.35,4-3.64"/>
      <path class="cls-19" d="M274.86,389.33c-2.19,4.18-4.4,8.46-4,12.77s4.09,8.71,10.66,10.22a34.93,34.93,0,0,0,11.74.23c15.44-1.89,29-9.43,33.46-18.64s-.29-19.63-11.81-25.77a50,50,0,0,0-23.51-5.44c-12.22.15-23.53,4.54-32.67,9.68C242,381.81,229.53,395.81,234.51,409a12.79,12.79,0,0,0,13.87,7.45c-7-5.58-9.5-13.16-6.75-20.17a26.79,26.79,0,0,1,4.47-7.17c6.08-7.33,15.85-13.89,28.38-16.9s27.89-1.88,36.79,3.91c7.21,4.69,9.29,12.09,5.13,18.23S302,405,291.27,405.58c-6.56.34-14.43-1.6-14.74-5.58-.13-1.66,1.13-3.26,2.11-4.84s1.67-3.4.47-4.87-5.07-2.07-6.72-.7"/>
      <path class="cls-20" d="M250,382.51c-2.19,4.17-4.4,8.46-4,12.77s4.09,8.7,10.66,10.22a34.93,34.93,0,0,0,11.74.23c15.44-1.89,29-9.43,33.46-18.64s-.29-19.64-11.81-25.78a50,50,0,0,0-23.51-5.43c-12.22.14-23.53,4.54-32.68,9.68C217.1,375,204.66,389,209.64,402.12a12.8,12.8,0,0,0,13.87,7.46c-7-5.58-9.5-13.17-6.75-20.17a26.85,26.85,0,0,1,4.46-7.17c6.09-7.34,15.86-13.89,28.39-16.91s27.89-1.88,36.79,3.91c7.21,4.7,9.29,12.09,5.13,18.24s-14.36,10.72-25.13,11.28c-6.56.34-14.43-1.61-14.74-5.58-.14-1.66,1.13-3.27,2.1-4.85s1.68-3.39.48-4.86-5.07-2.07-6.72-.7"/>
      <path class="cls-15" d="M404.6,369.63l4.69-9c10.32.57,20.76,1.27,30.29,3.57s18.19,6.43,22,12.21,1.84,13.3-6.31,17.43c-7.9,4-19.13,4-29.05,3.15s-20.05-2.46-29.92-.95c-13.9,2.13-24.51,10.95-23.48,19.54a3.81,3.81,0,0,0,1.06,2.45,10,10,0,0,0,3.76,1.84c28.56,9.26,66.57,4,92.32-9.09,2.44-1.24,5.24-2.63,8.32-2.4,5.95.44,5.85,5.65,4.15,9.2-9.27-1.07-18.17,2.79-26.6,5.67-19.3,6.59-42.43,8.69-63.46,5.77-16-2.23-32.56-9.09-32.45-19.17.07-6.25,6.71-12,14.63-16.16,15.16-8,36.11-11.61,55.34-9.62,5.3.55,10.63,1.5,16,.94s10.81-3.32,10.4-6.59c-.17-1.35-1.3-2.57-2.71-3.59-5.23-3.79-14-5-22.29-5.22s-16.71.48-24.83-.4"/>
      <path class="cls-7" d="M432.85,351.88l20.29-4.94c4.39,4.34,8.6,8.81,9.16,14.14s-3,11.7-12.32,17.47-25.29,10.63-37.82,10.63c-12.14,0-18.22-4.23-21.79-8.65s-5.87-9.43-14.15-12c-11.66-3.67-34.78-1.1-51.19,5.71a19.19,19.19,0,0,0-4.29,2.23,4.05,4.05,0,0,0-1.61,2.8c-3,17.73,27.75,28.2,67.41,28.17,3.77,0,8,0,9.22,1.36,2.31,2.58-8,6.44-16,8.45-2.86-4.31-15.25-4.8-25.45-5.84-23.37-2.39-39.92-9.58-45.41-19.73-4.18-7.73.52-19.12,20.5-26.61,12.38-4.64,27.29-6.42,39.77-6.53,23.86-.21,42.28,5,48.65,13.77,1.76,2.42,2.73,5.15,6.73,6.76s12.34,1.61,18.59-1a16.83,16.83,0,0,0,5.64-3.71c4.68-4.82,2.44-9.07-1.63-12.34s-9.91-6-12.52-9.7"/>
      <path class="cls-8" d="M352.84,388.28c2.38-1.27-.17-2.88-3.69-2.77a19.51,19.51,0,0,0-9.08,2.67c-6.55,4-4.15,9.13,4.27,11s21.28.65,30.43-2.5,14.55-7.88,15.11-12.18c.36-2.75-1.45-5.56-6.93-6.7a44.83,44.83,0,0,0-10.14-.55c-14.73.56-29.2,4.41-43.76,7-4.37.78-9.32,1.45-12.94.77a8.16,8.16,0,0,1-4.6-2.3c-6.37-6.53,5.17-16.08,23-20.65,18.68-4.79,41.52-4.73,58.87-10.44A9.34,9.34,0,0,0,396.7,350c1.55-1.57-2.32-2.59-5.69-3.09-13.08,3.5-26.68,6.59-40.58,9.2-6.57,1.24-13.23,2.37-19.56,3.9-10.07,2.43-19.29,5.92-24.77,10.07s-6.83,9-2.24,12.34,15.53,5,26.17,3.37c5.1-.78,9.76-2.18,14.59-3.34a93.81,93.81,0,0,1,20.09-2.8c6.69-.1,13,1,15.63,3.21,2.41,2.05,1.47,4.76-.58,7.29-1.88,2.33-5.11,4.82-10.52,6.15a38.31,38.31,0,0,1-18.7-.5c-3.08-.92-5.65-2.24-5.57-4s3.75-3.8,8.09-4.05"/>
      <path class="cls-16" d="M359.26,375.58c2.84.69,4.18-1.47,2.58-3.34s-4.81-3.13-7.64-3.67c-8.59-1.65-15.16,2.12-14.49,7.61s7.73,11.91,16.1,15.38S373.38,395.71,380,394c4.21-1.12,7.61-3.45,7.05-7-.29-1.87-1.65-3.88-3.33-5.79-6.82-7.76-18.4-13.8-28.16-20.5-2.92-2-5.93-4.38-6.41-6.68a3.88,3.88,0,0,1,1.52-3.62c7-6.6,25.84-4.89,39.84,2.62,14.69,7.88,23.92,20.36,39.42,27.08a11,11,0,0,0,3.7,1.06c3,.09,2.88-2.51,2.24-4.59a325.64,325.64,0,0,1-30.12-17.7c-4.5-3-8.9-6.07-13.73-8.79-7.7-4.32-16.61-7.67-25-8.67s-16,.58-19.12,4.7-1,10.86,5.71,15.88c3.23,2.41,7.19,4.28,10.88,6.35,4.88,2.75,9.44,6,12.32,9.61s3.86,7.56,1.65,10.06c-2.05,2.3-6.44,3.09-11,3.19-4.2.09-9.19-.48-13.36-2.79-5-2.75-7-7.08-6.88-10.44a5,5,0,0,1,3.57-4.93,10.74,10.74,0,0,1,9.28,2.46"/>
      <path class="cls-17" d="M390.3,394.28c-2.32-1.62-7.42-.34-8.48,1.78s.8,4.34,3.35,5.83c7.74,4.52,21.73,3.87,29.73-.87s9.76-12.61,5.21-18.56-14.58-9.89-25.35-10.88c-6.88-.64-14.73,0-19.74,3.12a13.67,13.67,0,0,0-5.26,6c-4.2,8.88.11,18.11,1.15,27.2.32,2.73.15,5.79-3,7.85a19.51,19.51,0,0,1-7.65,2.39c-19.08,2.81-39.08-5.54-44-16.87-5.11-11.89,3.75-25.52-4.2-36.75a5.45,5.45,0,0,0-2.78-2.24c-3.44-1.17-7.5,1-10.06,2.92a94.17,94.17,0,0,1,8,25.64c.65,4.11,1,8.27,2.5,12.28,2.36,6.39,7.77,12.43,16.27,16.33a51.39,51.39,0,0,0,30.65,3.22c10.38-2.23,18.65-8.51,18.57-15.11,0-3.17-1.83-6.17-2.95-9.23-1.49-4.06-1.78-8.41.51-12.43s7.47-7.62,14.15-8.84c6.16-1.13,12.74-.15,18.42,1.46,5.22,1.48,10.36,3.79,11.69,7.22,1.59,4.09-2.85,8.4-8.43,11.09a24.68,24.68,0,0,1-12.23,2.72c-4.35-.31-8.26-2.82-7.27-5.45"/>
      <path class="cls-21" d="M440.67,434.79c5.62,1.15,11.85,1.76,17.59.58s10.68-4.62,10.17-8.24c-.45-3.18-4.65-5.52-8.48-7.64s-7.45-4.26-9.5-7.08-2.11-6.42,1.13-8.93c4.46-3.46,12.73-3.55,19.47-5.05,12.1-2.7,19.89-10.94,19.1-18.63s-9.22-14.5-20.32-18c-4.72-1.49-10.44-2.45-15.48-1.15-2.88.73-5.25,2.14-8.16,2.82-3.85.89-8.42.32-11.21-1.41a7.92,7.92,0,0,0-1.86,5c11.47.4,23.33-3.72,34.23-1.73,8.45,1.54,14.12,6.68,14.82,12.07s-3,10.84-8.63,15.17a22.21,22.21,0,0,1-6.65,3.67c-5.12,1.69-11.51,1.36-16.46,3.24A14.81,14.81,0,0,0,442.3,407c-1.14,2.24-1.86,4.69-.49,6.81,1.1,1.7,3.4,3,5.51,4.26a67.29,67.29,0,0,1,8.46,6c1.22,1,2.42,2.18,2.5,3.47.14,2.22-3.16,4.17-6.72,4.79a39.53,39.53,0,0,1-10.86-.14c-1.23,1-.95,2.5.59,3.22"/>
      <path class="cls-18" d="M365.13,425.17c1.68,3.49,4.7,6.82,10.58,8.41s15.19.94,21.24-2.32c5.32-2.87,6.69-6.73,7.9-10.23s2.63-6.93,6.26-10.22a30.47,30.47,0,0,1,16.51-7c9-.89,14.65,2.76,21.75,4.54,12.74,3.18,32.42-.21,45.48-7s19.53-16.31,18.42-24.26c-.48-3.38-2.56-6.76-8.17-7.94-3.2-.68-7.24-.57-10.36-1.32-4.11-1-6.11-3.52-4.9-6.23A44.83,44.83,0,0,0,479.71,365c6.85,5.51,21.94,7.39,25.62,14,2.85,5.09-2.5,12-11.55,16.8s-21.12,7.74-32.49,8.83a47.59,47.59,0,0,1-10.85.08c-6.36-.89-10-4-16.56-4.7-5.68-.57-12.48.84-18.58,2.61-4.69,1.36-9.5,3.09-12.35,5.49-2.28,1.93-3,4-3.88,6.05A46.79,46.79,0,0,1,394,423a11.85,11.85,0,0,1-4.48,4,19.28,19.28,0,0,1-12.87,1c-3.44-1.08-5.23-3.08-6.91-5-2.53.27-5,1.68-5.29,3"/>
      <path class="cls-19" d="M429.8,391.74c3.79-3.76,7.65-7.63,9-11.91s-.39-9.14-6.09-11.6a31.28,31.28,0,0,0-11.16-2c-15.58-.46-31.62,4.89-39.66,13.24s-7.68,19.27.89,27c4.76,4.29,12,7.64,20.36,8.83,11.78,1.69,24.4-.92,35.27-4.58,19.9-6.72,37.51-18.57,38.05-32.18.17-4.27-3.25-9.5-10.28-9.37,4.42,6.5,3.78,14.31-1.69,20.76a39.63,39.63,0,0,1-7.19,6.35,69.46,69.46,0,0,1-34.08,12.3c-13.25,1.08-27.52-2.33-33.72-9.33-5-5.68-4-13.23,2.47-18.62s18.12-8.35,28.68-7.29c6.43.65,13.19,3.73,11.88,7.67-.54,1.65-2.4,3-4,4.43s-3,3.07-2.43,4.69,4,2.79,6.17,1.69"/>
      <g class="cls-6">
        <path class="cls-7" d="M316.57,423.68l-17.9,7.21c-6.08-3.27-12-6.69-14.76-11.38s-1.87-10.85,5-17.3,20.49-13,32.78-14.7c11.92-1.67,19.62,1.27,24.92,4.73s9.61,7.62,18.8,8.81c12.94,1.68,34.59-3.81,47.92-12.14a13.51,13.51,0,0,0,3.29-2.59,2.83,2.83,0,0,0,.45-2.73c-4.3-16.25-38.75-21.37-77.66-15.89-3.7.52-7.88,1.09-9.6.06-3.32-2,5.26-6.86,12.22-9.74,4.56,3.45,16.92,2.19,27.36,1.71,23.92-1.08,43.09,3.06,52.61,11.37,7.26,6.33,7.29,17.16-9.26,26.6-10.26,5.85-24.17,9.5-36.38,11.31-23.33,3.48-43.54,1.35-53.37-5.61-2.71-1.91-4.78-4.22-9.35-5.11s-12.78.26-17.85,3.44a11,11,0,0,0-4,4.09c-2.63,4.94,1.3,8.44,6.64,10.8s12.16,4,16.24,6.94"/>
      </g>
      <g class="cls-6">
        <path class="cls-21" d="M275.08,350.68c-6-.25-12.35.06-17.5,1.91s-8.6,5.6-6.62,8.76c1.74,2.78,6.82,4.29,11.43,5.65s9.06,2.79,12.22,5,4.68,5.44,2.53,8.13c-3,3.7-11.05,4.92-17.05,7.19-10.77,4.08-15.07,12.51-11.15,19.28s15,11.68,27.29,13.29c5.24.69,11.24.75,15.67-1.1,2.52-1.06,4.27-2.63,6.85-3.64a18.43,18.43,0,0,1,11.58-.29,6,6,0,0,0-.23-4.76c-11.42,1.22-21.38,6.54-32.9,6.26-8.91-.21-16.58-4-19.46-8.74s-1.49-10.1,2.28-14.75a15.41,15.41,0,0,1,5-4.19c4.34-2.21,10.74-2.8,14.84-5.16a9.51,9.51,0,0,0,4.93-7.8c.2-2.16-.09-4.45-2.3-6.16-1.77-1.37-4.54-2.18-7.14-3a97.72,97.72,0,0,1-10.77-4.24c-1.62-.76-3.26-1.61-3.87-2.75-1-2,1.41-4.16,4.64-5.2s7.06-1.22,10.73-1.37c.8-1-.1-2.37-1.9-2.8"/>
      </g>
      <g class="cls-6">
        <path class="cls-18" d="M353.15,348.88a22.54,22.54,0,0,0-13.81-6.06c-6.43-.61-15.3,1.25-19.9,5-4.06,3.3-3.83,6.94-3.59,10.23s.25,6.55-2,10-7.18,7-13.36,8.51c-8.52,2-15.51-.45-23.2-1.06-13.81-1.09-31.74,4.64-41.79,12.53s-12.51,17.26-8.18,24.21c1.84,2.95,5.27,5.68,11.26,6,3.42.17,7.33-.48,10.7-.25,4.44.31,7.44,2.31,7.35,4.9a35.5,35.5,0,0,0,8.56-4.43c-9-4-24.55-3.58-30.85-9-4.87-4.16-2.42-11,4.49-16.6s17.57-9.83,28.29-12.37a49.93,49.93,0,0,1,10.62-1.56c6.6-.08,11.45,2.24,18.18,1.92,5.79-.27,11.9-2.47,17.16-4.89,4.06-1.86,8.07-4.07,9.89-6.61,1.45-2,1.31-4,1.34-5.94a31.64,31.64,0,0,1,1.39-8.64,7.5,7.5,0,0,1,2.75-4.22c3-2.25,8.42-3.15,12.23-2.65a21,21,0,0,1,8.83,3.53c2.38-.59,4.27-2.19,4-3.38"/>
      </g>
      <g class="cls-6">
        <path class="cls-15" d="M433.36,369.53l4.69-8.36c10.35.55,20.82,1.22,30.38,3.38s18.25,6,22.11,11.4,1.86,12.37-6.3,16.2c-7.92,3.71-19.18,3.73-29.12,2.89s-20.11-2.33-30-.94c-13.94,2-24.56,10.16-23.52,18.15a3.49,3.49,0,0,0,1.07,2.28,10.11,10.11,0,0,0,3.78,1.72c28.65,8.66,66.75,3.83,92.55-8.3,2.44-1.15,5.25-2.45,8.34-2.23,6,.43,5.87,5.27,4.17,8.57-9.29-1-18.21,2.57-26.66,5.23-19.35,6.11-42.53,8-63.62,5.27-16.06-2.1-32.67-8.52-32.57-17.9.06-5.81,6.7-11.15,14.65-15,15.18-7.39,36.18-10.74,55.46-8.86,5.32.52,10.67,1.42,16.05.9s10.83-3.07,10.42-6.12c-.17-1.25-1.31-2.39-2.72-3.34-5.26-3.54-14.06-4.71-22.36-4.89s-16.76.42-24.9-.41"/>
      </g>
      <g class="cls-6">
        <path class="cls-7" d="M457.38,357.83l20.33-4.56c4.42,4,8.65,8.21,9.21,13.17S484,377.32,474.6,382.68s-25.34,9.85-37.9,9.83c-12.18,0-18.28-4-21.87-8.09s-5.9-8.78-14.21-11.22c-11.69-3.44-34.87-1.08-51.32,5.22a19.74,19.74,0,0,0-4.29,2.07,3.73,3.73,0,0,0-1.62,2.61c-3,16.49,27.88,26.28,67.65,26.32,3.77,0,8,0,9.24,1.28,2.32,2.41-8,6-16,7.83-2.87-4-15.29-4.49-25.53-5.47-23.43-2.26-40-9-45.56-18.43-4.2-7.2.5-17.8,20.51-24.73,12.4-4.3,27.36-5.93,39.87-6,23.92-.15,42.4,4.73,48.8,12.9,1.77,2.25,2.75,4.8,6.76,6.3s12.38,1.52,18.64-.88a17.11,17.11,0,0,0,5.66-3.44c4.68-4.48,2.43-8.44-1.67-11.49s-9.95-5.57-12.56-9"/>
      </g>
      <g class="cls-6">
        <path class="cls-8" d="M250.89,384.81c2.39-1.18-.17-2.68-3.7-2.59a20.72,20.72,0,0,0-9.1,2.47c-6.56,3.72-4.14,8.49,4.3,10.25s21.34.63,30.51-2.28,14.57-7.32,15.13-11.31c.36-2.56-1.46-5.18-7-6.25a48.34,48.34,0,0,0-10.17-.52c-14.77.49-29.27,4.05-43.87,6.43-4.38.71-9.33,1.33-13,.69a8.4,8.4,0,0,1-4.62-2.15c-6.39-6.08,5.16-14.95,23-19.17,18.72-4.43,41.62-4.34,59-9.62a10.07,10.07,0,0,0,3.35-1.47c1.55-1.47-2.33-2.42-5.71-2.89-13.11,3.24-26.74,6.08-40.67,8.49-6.58,1.14-13.27,2.19-19.61,3.6-10.1,2.24-19.33,5.48-24.82,9.33s-6.83,8.33-2.22,11.48S217.35,384,228,382.47c5.11-.71,9.78-2,14.62-3.08a101,101,0,0,1,20.15-2.57c6.7-.08,13,.94,15.67,3,2.42,1.91,1.48,4.44-.57,6.79-1.88,2.16-5.11,4.48-10.53,5.71a41.42,41.42,0,0,1-18.76-.51c-3.09-.86-5.67-2.09-5.59-3.69s3.76-3.53,8.11-3.76"/>
      </g>
      <g class="cls-6">
        <path class="cls-16" d="M403.48,377.53c2.86.65,4.2-1.36,2.59-3.1s-4.83-2.92-7.67-3.43c-8.61-1.55-15.19,1.95-14.52,7.06s7.77,11.09,16.18,14.34,17.62,3.89,24.21,2.26c4.21-1,7.61-3.2,7.05-6.49-.29-1.74-1.66-3.62-3.34-5.4-6.86-7.23-18.48-12.87-28.28-19.12-2.93-1.87-5.95-4.09-6.44-6.23-.31-1.36.49-2.46,1.53-3.36,7-6.13,25.89-4.51,39.94,2.5,14.75,7.36,24,19,39.57,25.26a11.73,11.73,0,0,0,3.72,1c3,.09,2.88-2.33,2.24-4.26A336.84,336.84,0,0,1,450,362c-4.52-2.78-8.93-5.66-13.78-8.2a73.89,73.89,0,0,0-25.05-8.11c-8.38-.94-16.05.51-19.16,4.35s-1,10.09,5.75,14.78c3.24,2.24,7.22,4,10.92,5.93,4.9,2.57,9.48,5.61,12.37,9s3.88,7,1.66,9.36c-2,2.14-6.44,2.87-11,2.95-4.22.08-9.22-.45-13.41-2.61-5-2.57-7.06-6.6-6.91-9.73a4.61,4.61,0,0,1,3.57-4.58c2.57-.72,7.15.22,9.31,2.31"/>
      </g>
      <g class="cls-6">
        <path class="cls-17" d="M419.07,392.45c-2.34-1.51-7.44-.33-8.51,1.64s.82,4,3.38,5.43c7.77,4.22,21.79,3.64,29.8-.76s9.77-11.72,5.2-17.26-14.64-9.23-25.44-10.17c-6.9-.6-14.77,0-19.79,2.87a13,13,0,0,0-5.26,5.55c-4.2,8.26.14,16.85,1.2,25.32.32,2.53.15,5.38-3,7.29a20.51,20.51,0,0,1-7.66,2.22c-19.14,2.58-39.2-5.22-44.11-15.77-5.15-11.07,3.72-23.75-4.28-34.22a5.44,5.44,0,0,0-2.78-2.08c-3.45-1.1-7.52.91-10.09,2.7a83.49,83.49,0,0,1,8.08,23.87c.66,3.83,1,7.7,2.52,11.43,2.38,5.95,7.81,11.58,16.35,15.23a55.35,55.35,0,0,0,30.74,3.05c10.4-2.06,18.68-7.9,18.59-14,0-2.94-1.84-5.74-3-8.59-1.5-3.78-1.79-7.83.5-11.56s7.48-7.08,14.17-8.21c6.18-1,12.77-.12,18.47,1.39,5.24,1.38,10.39,3.54,11.73,6.74,1.6,3.81-2.84,7.81-8.43,10.31a26.44,26.44,0,0,1-12.25,2.51c-4.37-.3-8.3-2.64-7.3-5.08"/>
      </g>
      <g class="cls-6">
        <path class="cls-21" d="M469.64,430.23c5.63,1.07,11.88,1.66,17.64.56s10.7-4.27,10.18-7.64c-.46-3-4.67-5.15-8.51-7.12s-7.48-4-9.54-6.61-2.12-6,1.12-8.31c4.46-3.21,12.75-3.28,19.51-4.67,12.12-2.49,19.93-10.14,19.12-17.3s-9.27-13.51-20.41-16.8c-4.72-1.39-10.46-2.29-15.52-1.09-2.89.68-5.25,2-8.18,2.61-3.85.82-8.44.28-11.24-1.33a7,7,0,0,0-1.86,4.69c11.5.39,23.39-3.43,34.33-1.56,8.47,1.45,14.17,6.25,14.88,11.26s-3,10.08-8.64,14.1a22.73,22.73,0,0,1-6.65,3.41c-5.13,1.56-11.54,1.24-16.5,3a14.38,14.38,0,0,0-8.14,6.95c-1.14,2.08-1.86,4.36-.48,6.34,1.1,1.59,3.41,2.77,5.53,4a66.9,66.9,0,0,1,8.49,5.64c1.23,1,2.43,2,2.51,3.23.15,2.07-3.16,3.87-6.72,4.44a42.33,42.33,0,0,1-10.9-.14c-1.23.9-.94,2.32.6,3"/>
      </g>
      <g class="cls-6">
        <path class="cls-19" d="M458.67,390.15c3.79-3.49,7.66-7.09,9-11.07s-.41-8.5-6.12-10.8a33.66,33.66,0,0,0-11.2-1.87c-15.62-.45-31.7,4.51-39.74,12.26s-7.67,17.92.94,25.13c4.78,4,12,7.13,20.42,8.26,11.82,1.59,24.47-.82,35.36-4.21,19.95-6.22,37.59-17.21,38.11-29.88.16-4-3.28-8.85-10.33-8.74,4.44,6.06,3.82,13.33-1.66,19.32a38.48,38.48,0,0,1-7.2,5.89,72.81,72.81,0,0,1-34.16,11.4c-13.28,1-27.59-2.22-33.81-8.74-5-5.29-4-12.32,2.44-17.33S438.86,372,449.45,373c6.45.62,13.24,3.5,11.93,7.16-.54,1.53-2.41,2.81-4,4.11s-3,2.86-2.43,4.37,4.05,2.59,6.19,1.58"/>
      </g>
      <g>
        <path class="cls-9" d="M516.91,409.59c-13,15-32.49,15.1-43.22,5.81S459,385.88,472,370.88a39.85,39.85,0,0,1,4.39-4.31C491,354.26,517,347.79,526.63,356.14,537.37,365.43,529.88,394.6,516.91,409.59Z"/>
        <ellipse class="cls-22" cx="493.82" cy="391.38" rx="17.74" ry="14.33" transform="translate(-125.26 508.77) rotate(-49.14)"/>
      </g>
      <g>
        <path class="cls-9" d="M484.56,400.38c-7.25,18.45-25.62,25-38.83,19.85s-23.64-23-16.39-41.42a39.18,39.18,0,0,1,2.71-5.53c9.64-16.45,32-31.21,43.9-26.54C489.16,351.93,491.8,381.92,484.56,400.38Z"/>
        <ellipse class="cls-22" cx="456.73" cy="390.89" rx="17.74" ry="14.33" transform="translate(-74.02 673.19) rotate(-68.57)"/>
      </g>
      <g class="cls-23">
        <path class="cls-9" d="M379.88,413.8a4.31,4.31,0,0,1,3.94-7.33c-1.67-1.05-1.74-3.7-.45-5.2a6,6,0,0,1,5.42-1.65,6,6,0,0,1,.75-6c1.37-1.59,4.15-1.93,5.57-.38a6.28,6.28,0,0,1,9.46-6c.81-2.28,2.7-4.34,5.1-4.65s5,1.77,4.73,4.17a5.63,5.63,0,0,1,6.15-1.85c2.11.87,3.16,3.93,1.63,5.63,2.39-.12,5,.45,6.47,2.37s.69,5.34-1.67,5.77c1.46,1.74,2.78,3.8,2.79,6.08s-1.79,4.67-4.06,4.53a9.32,9.32,0,0,1-7,15,4.17,4.17,0,0,1-6.54,4.77,7.5,7.5,0,0,1-4.8,6.67c-1.62.6-4.15-.16-3.83-1.85l-4.15,3.73c-1,.85-2.06,1.76-3.34,1.71s-2.41-1.73-1.5-2.64a10.89,10.89,0,0,1-6.94,1,5.22,5.22,0,0,1-3.65-2.21c-.72-1.27-.3-3.23,1.09-3.69-2.33-.43-4.78-1.53-5.74-3.7s.58-5.33,2.94-5.09c-2.33-.17-4.79-1.35-5.64-3.53s.84-5.17,3.17-4.93"/>
        <path class="cls-24" d="M405.43,410.37a1.22,1.22,0,0,1,.12,1.32c-.38.63-1,.34-1.42-.13a2.85,2.85,0,0,1,.1-3.46,3.21,3.21,0,0,1,5.64.6c.93,2.06-.34,4.68-1.67,6.28-1.6,1.92-3.85,2.57-6.07,1.26-4-2.37-3.66-7.53-1-10.8,3.09-3.82,9.05-5,12.62-1.14,3.23,3.48,1.65,8.84-.08,12.64s-4.67,7.88-8.8,9.55a9.57,9.57,0,0,1-11.37-2.74,20,20,0,0,1-3.8-13.29c.56-5.45,4.47-9,8.72-12,4.75-3.31,10.65-6,16.41-3.69.48.2,2.11-.53,1.44-.8-6-2.42-12.64-.05-17.81,3.3s-10.19,7.5-10.58,14a20.3,20.3,0,0,0,1.73,9.05c1.1,2.61,2.59,5.19,5.16,6.59,4.67,2.55,10.78,1,14.71-2.21a21.33,21.33,0,0,0,5.27-6.66,20.62,20.62,0,0,0,2.63-8.54,7.88,7.88,0,0,0-3.39-7.13,9.82,9.82,0,0,0-7.63-1.18c-5,1.15-10.51,6.28-8.81,11.91,1.57,5.22,8.08,6,11.69,2.47,1.91-1.88,3.77-5.4,2.13-7.94-1.52-2.35-4.69-2.45-7-1.18-2.08,1.17-4.15,5.1-1,6.36,1.8.72,5.27-1,3.68-3.16-.32-.43-2,.15-1.67.66Z"/>
      </g>
      <g>
        <path class="cls-25" d="M441.88,426.86l-9.31-4.62c-5.11-2.53-2.77-7.87,1.14-12.2l7.48-5.6,10.51,4.73-2.45,9.91C447.08,424.91,446.73,429.27,441.88,426.86Z"/>
        <path class="cls-26" d="M467.93,416.76c-3.11,6.26-15.06,2.58-25.11-2.41s-20.81-11.7-17.7-18,20.32-13,30.37-8.06S471,410.5,467.93,416.76Z"/>
      </g>
      <g class="cls-6">
        <ellipse class="cls-27" cx="342.92" cy="390.76" rx="6.95" ry="8.69" transform="translate(-55.56 724.69) rotate(-88.69)"/>
        <ellipse class="cls-28" cx="342.92" cy="390.76" rx="5.3" ry="6.62" transform="translate(-55.56 724.69) rotate(-88.69)"/>
      </g>
      <g class="cls-6">
        <ellipse class="cls-27" cx="366.99" cy="411.61" rx="6.95" ry="8.69" transform="translate(-52.88 769.12) rotate(-88.69)"/>
        <ellipse class="cls-28" cx="366.99" cy="411.61" rx="5.3" ry="6.62" transform="translate(-52.88 769.12) rotate(-88.69)"/>
      </g>
      <g>
        <ellipse class="cls-27" cx="376.03" cy="397.68" rx="6.95" ry="8.69" transform="matrix(0.02, -1, 1, 0.02, -30.13, 764.55)"/>
        <ellipse class="cls-28" cx="376.03" cy="397.68" rx="5.3" ry="6.62" transform="translate(-30.13 764.55) rotate(-88.69)"/>
      </g>
      <g class="cls-23">
        <ellipse class="cls-27" cx="373.61" cy="411.76" rx="6.95" ry="8.69" transform="translate(-46.56 775.88) rotate(-88.69)"/>
        <ellipse class="cls-28" cx="373.61" cy="411.76" rx="5.3" ry="6.62" transform="translate(-46.56 775.88) rotate(-88.69)"/>
      </g>
      <g class="cls-29">
        <ellipse class="cls-27" cx="358.63" cy="406.2" rx="6.95" ry="8.69" transform="translate(-55.63 755.47) rotate(-88.69)"/>
        <ellipse class="cls-28" cx="358.63" cy="406.2" rx="5.3" ry="6.62" transform="translate(-55.63 755.47) rotate(-88.69)"/>
      </g>
      <g>
        <ellipse class="cls-27" cx="409.45" cy="366.09" rx="6.95" ry="8.69" transform="translate(34.12 767.08) rotate(-88.69)"/>
        <ellipse class="cls-28" cx="409.45" cy="366.09" rx="5.3" ry="6.62" transform="translate(34.12 767.08) rotate(-88.69)"/>
      </g>
      <g>
        <ellipse class="cls-27" cx="382.26" cy="369.64" rx="6.95" ry="8.69" transform="translate(3.99 743.37) rotate(-88.69)"/>
        <ellipse class="cls-28" cx="382.26" cy="369.64" rx="5.3" ry="6.62" transform="translate(3.99 743.37) rotate(-88.69)"/>
      </g>
      <g>
        <ellipse class="cls-27" cx="330.8" cy="405.34" rx="6.95" ry="8.69" transform="translate(-81.98 726.81) rotate(-88.69)"/>
        <ellipse class="cls-28" cx="330.8" cy="405.34" rx="5.3" ry="6.62" transform="translate(-81.98 726.81) rotate(-88.69)"/>
      </g>
      <g class="cls-30">
        <ellipse class="cls-27" cx="403.71" cy="374.2" rx="6.95" ry="8.69" transform="matrix(0.02, -1, 1, 0.02, 20.4, 769.27)"/>
        <ellipse class="cls-28" cx="403.71" cy="374.2" rx="5.3" ry="6.62" transform="translate(20.4 769.27) rotate(-88.69)"/>
      </g>
      <g>
        <ellipse class="cls-27" cx="365.38" cy="401.05" rx="6.95" ry="8.69" transform="translate(-43.9 757.19) rotate(-88.69)"/>
        <ellipse class="cls-28" cx="365.38" cy="401.05" rx="5.3" ry="6.62" transform="translate(-43.9 757.19) rotate(-88.69)"/>
      </g>
      <g>
        <ellipse class="cls-27" cx="349.22" cy="408.33" rx="6.95" ry="8.69" transform="translate(-66.96 748.15) rotate(-88.69)"/>
        <ellipse class="cls-28" cx="349.22" cy="408.33" rx="5.3" ry="6.62" transform="translate(-66.96 748.15) rotate(-88.69)"/>
      </g>
      <g>
        <ellipse class="cls-27" cx="322.77" cy="379.75" rx="6.95" ry="8.69" transform="translate(-64.24 693.78) rotate(-88.69)"/>
        <ellipse class="cls-28" cx="322.77" cy="379.75" rx="5.3" ry="6.62" transform="translate(-64.24 693.78) rotate(-88.69)"/>
      </g>
      <g>
        <path class="cls-31" d="M190.06,390.07,305.6,404.75s21.8-12.44-10.32-29.21-44.6-23.61-61.84-23.79-38.8-3.6-47.21,7.88S190.06,390.07,190.06,390.07Z"/>
        <path class="cls-32" d="M192.05,390.48l111.76,14.2s21.09-12-10-28.26-43.14-22.83-59.81-23-37.54-3.49-45.67,7.62S192.05,390.48,192.05,390.48Z"/>
      </g>
      <g>
        <path class="cls-31" d="M198.48,398.35,314,413s21.8-12.44-10.32-29.21-44.6-23.6-61.84-23.78-38.8-3.6-47.21,7.87S198.48,398.35,198.48,398.35Z"/>
        <path class="cls-32" d="M200.47,398.76,312.24,413s21.08-12-10-28.26-43.14-22.84-59.81-23-37.54-3.48-45.67,7.62S200.47,398.76,200.47,398.76Z"/>
      </g>
      <g>
        <path class="cls-31" d="M207.64,409l115.55,14.68S345,411.28,312.86,394.5s-44.6-23.6-61.83-23.78-38.81-3.6-47.22,7.87S207.64,409,207.64,409Z"/>
        <path class="cls-32" d="M209.63,409.44,321.4,423.65s21.08-12-10-28.26-43.14-22.83-59.81-23-37.53-3.48-45.67,7.62S209.63,409.44,209.63,409.44Z"/>
      </g>
      <path class="cls-2" d="M359.78,421.75c-85.91-2-159.44-14.8-174.35-37.24-2.11,3.15-.22,9.77-.3,13.2-.67,29.36,76.93,41.28,174.21,43.5s173.29-9,174-38.34c.08-3.43,2.28-10,.3-13.2C517.54,412,445.7,423.71,359.78,421.75Z"/>
      <g class="cls-6">
        <path class="cls-19" d="M326.11,395c-2.19,3.88-4.4,7.87-4,11.88s4.11,8.11,10.7,9.53a37.64,37.64,0,0,0,11.77.23c15.48-1.73,29-8.73,33.53-17.29s-.33-18.27-11.89-24a53.46,53.46,0,0,0-23.58-5.09c-12.25.11-23.59,4.18-32.75,8.95-16.8,8.75-29.26,21.75-24.24,34,1.58,3.84,7.07,8,13.92,7-7-5.21-9.55-12.27-6.81-18.78a25.15,25.15,0,0,1,4.47-6.67c6.09-6.81,15.88-12.9,28.44-15.68s28-1.7,36.89,3.7c7.24,4.38,9.34,11.27,5.18,17s-14.39,9.95-25.19,10.45c-6.57.31-14.47-1.52-14.79-5.21-.13-1.55,1.13-3,2.11-4.51s1.68-3.16.47-4.53-5.09-1.93-6.74-.66"/>
      </g>
      <g class="cls-33">
        <ellipse class="cls-27" cx="309.81" cy="403.09" rx="6.95" ry="8.69" transform="translate(-100.24 703.63) rotate(-88.69)"/>
        <ellipse class="cls-28" cx="309.81" cy="403.09" rx="5.3" ry="6.62" transform="translate(-100.24 703.63) rotate(-88.69)"/>
      </g>
    </g>
    <path class="cls-34" d="M255.92,378.17l56.29,28.71s7.66-1.27-11.34-13.27S255.92,378.17,255.92,378.17Z"/>
  </g>
</svg>
