<svg id="Layer_1" data-name="Layer 1" xmlns="http://www.w3.org/2000/svg" width="155" height="125" viewBox="0 0 155 125">
  <defs>
    <style>
      .cls-1 {
        fill: #ea8b86;
      }

      .cls-2 {
        fill: #efe1e1;
      }
    </style>
  </defs>
  <g>
    <path class="cls-1" d="M123,62.5A60.56,60.56,0,1,1,62.43,1.94,60.29,60.29,0,0,1,123,62.5Z"/>
    <circle class="cls-2" cx="62.43" cy="62.5" r="45.61"/>
    <path class="cls-2" d="M118.18,86.51a60.77,60.77,0,0,1-36.17,34L63.58,102.06,53.49,92,88.57,56.9Z"/>
    <path class="cls-1" d="M76.7,53.7l35.61,33A4.78,4.78,0,0,0,115,88a4.84,4.84,0,0,0,4.9-1.45l32.08-36.46a4.83,4.83,0,0,0-.44-6.79h0a4.82,4.82,0,0,0-6.79.43l-29.05,33L83.25,46.64A4.82,4.82,0,1,0,76.7,53.7Z"/>
  </g>
</svg>
