<svg id="Layer_1" data-name="Layer 1" xmlns="http://www.w3.org/2000/svg" width="86" height="95" viewBox="0 0 86 95">
  <defs>
    <style>
      .cls-1 {
        fill: #af3c02;
      }
    </style>
  </defs>
  <g>
    <g>
      <path class="cls-1" d="M74.27.82a.62.62,0,0,1,0-.33A.81.81,0,0,1,75.4,0a1,1,0,0,1,.66,1.12.72.72,0,0,1-.12.25.88.88,0,0,1-1,.2A1,1,0,0,1,74.27.82Z"/>
      <path class="cls-1" d="M75.94,1.4l-.79,2.24-1.52-.83.64-2A1,1,0,0,0,75,1.6.88.88,0,0,0,75.94,1.4Z"/>
      <polygon class="cls-1" points="75.15 3.64 74.97 4.16 74.96 4.16 73.54 3.41 73.44 3.36 73.63 2.81 75.15 3.64"/>
      <polygon class="cls-1" points="74.97 4.16 57.18 54.97 56.79 54.77 73.44 3.36 73.54 3.41 74.96 4.16 74.97 4.16"/>
    </g>
    <g>
      <path class="cls-1" d="M80.63,3.83a.76.76,0,0,1,.05-.33.78.78,0,0,1,1.16-.25,1,1,0,0,1,.53,1.22.48.48,0,0,1-.15.22h0a.84.84,0,0,1-1,0A1.15,1.15,0,0,1,80.63,3.83Z"/>
      <path class="cls-1" d="M82.22,4.69l-1,2.09h0l-1.42-1.1.86-1.85a1.15,1.15,0,0,0,.58.89A.84.84,0,0,0,82.22,4.69Z"/>
      <polygon class="cls-1" points="81.19 6.78 80.95 7.26 80.95 7.26 79.62 6.26 79.53 6.21 79.77 5.68 81.19 6.78 81.19 6.78"/>
      <polygon class="cls-1" points="80.95 7.26 57.71 54.45 57.35 54.18 79.53 6.21 79.62 6.26 80.95 7.26 80.95 7.26"/>
    </g>
    <path class="cls-1" d="M74.39,40.71H.5c0,.85.09,1.69.16,2.51S.82,45.11.92,46c.06.5.11,1,.18,1.48.12,1,.26,1.88.41,2.8C4.33,67.38,12.19,79.28,22,86V95H64V86c9.85-6.73,17.71-18.63,20.53-35.7.15-.92.29-1.85.41-2.8L85.08,46c.1-.92.19-1.86.26-2.81s.12-1.66.16-2.51Z"/>
  </g>
</svg>
