<svg id="Layer_1" data-name="Layer 1" xmlns="http://www.w3.org/2000/svg" width="437" height="83.89" viewBox="0 0 437 83.89">
  <defs>
    <style>
      .cls-1 {
        fill: #f7efed;
      }

      .cls-2 {
        fill: #666;
      }

      .cls-3 {
        fill: #af3c02;
      }
    </style>
  </defs>
  <g>
    <rect class="cls-1" width="437" height="82" rx="12"/>
    <g>
      <path class="cls-2" d="M9.93,57.22V22.65c0-3.41,1.57-5.25,4.47-5.25H22c14.29,0,18.91,5.75,18.91,17.5S36.29,52.1,22.13,52.1H20.71v5.12c0,3.4-1.58,5.25-4.48,5.25H14.4C11.5,62.47,9.93,60.62,9.93,57.22Zm20-22.53c0-4.06-1.57-6.48-6-6.48H20.71v13.1h3.18C28.35,41.31,29.92,38.81,29.92,34.69Z"/>
      <path class="cls-2" d="M44.75,40c0-16.06,8.69-22.95,18.4-22.95,9.55,0,18.31,6.89,18.31,23,0,16.37-8.71,22.94-18.42,22.94S44.75,56.37,44.75,40Zm26,0c0-7.62-3.14-11.9-7.65-11.9-4.66,0-7.72,4.26-7.72,11.9,0,8,3,12.06,7.69,12.06S70.72,47.91,70.72,40Z"/>
      <path class="cls-2" d="M87.61,57.22V22.65c0-3.41,1.57-5.25,4.47-5.25h1.84c2.89,0,4.47,1.84,4.47,5.25V57.22c0,3.4-1.58,5.25-4.47,5.25H92.08C89.18,62.47,87.61,60.62,87.61,57.22Z"/>
      <path class="cls-2" d="M106,57.22V22.65c0-3.41,1.58-5.25,4.47-5.25h2.33c2.45,0,4.08,1.1,5.38,3.59l11.16,21.39V22.65c0-3.41,1.58-5.25,4.47-5.25h1.8c2.9,0,4.47,1.84,4.47,5.25V57.22c0,3.4-1.57,5.25-4.47,5.25h-2.29c-2.45,0-4.08-1.1-5.38-3.59L116.8,37.47V57.22c0,3.4-1.58,5.25-4.47,5.25h-1.84C107.6,62.47,106,60.62,106,57.22Z"/>
      <path class="cls-2" d="M153.43,57.22V28.55h-3.81c-2.9,0-4.48-1.85-4.48-5.25v-.65c0-3.41,1.58-5.25,4.48-5.25h18.31c2.9,0,4.48,1.84,4.48,5.25v.65c0,3.4-1.58,5.25-4.48,5.25h-3.76V57.22c0,3.4-1.57,5.25-4.47,5.25h-1.8C155,62.47,153.43,60.62,153.43,57.22Z"/>
      <path class="cls-2" d="M191,62.92c-6.31,0-12.24-2.86-14.79-7.66-1.67-3.12-.71-5.68,2.16-6.6l.85-.27c2.4-.77,3.87.16,5.33,1.93a8.07,8.07,0,0,0,6.36,3.24c2.92,0,4.73-1.47,4.73-3.84,0-6.82-19.72-2.81-19.72-19.24,0-8.17,5.93-13.49,14.55-13.49,6.41,0,11.7,2.36,14.13,6.8,2,3.58,1.12,6.17-2.1,6.94l-.87.21c-3.33.79-4.43-.94-6.09-2.55a6.39,6.39,0,0,0-4.65-2c-2.67,0-4.37,1.42-4.37,3.64,0,7.85,20,2.81,20,19.12,0,8.39-6.51,13.8-15.53,13.8Z"/>
      <path class="cls-2" d="M210.45,32.06c0-3.86,2.4-5.87,5.76-5.87A5.51,5.51,0,0,1,222,32.06a5.49,5.49,0,0,1-5.76,5.87C212.85,37.93,210.45,36,210.45,32.06Zm0,25.12c0-3.86,2.4-5.87,5.76-5.87A5.51,5.51,0,0,1,222,57.18a5.48,5.48,0,0,1-5.76,5.87C212.85,63.05,210.45,61.09,210.45,57.18Z"/>
      <path class="cls-3" d="M313.52,56.38l11.83-34.86c.94-2.77,2.55-4.12,5.12-4.12h.15c3.32,0,5.11,1.39,3.53,6.05L322.41,58.3c-.94,2.77-2.56,4.13-5.14,4.13h-1C313.43,62.43,311.92,61.08,313.52,56.38Z"/>
      <path class="cls-3" d="M354.23,63c-5.94,0-11.92-2.57-14.64-7.8-1.59-3.07-.47-5.94,2.56-6.6l.88-.19a5.37,5.37,0,0,1,5.54,1.69c1.8,1.75,3.35,2.59,5.48,2.59,3.12,0,5.1-1.75,5.1-4.51s-1.76-4.22-5.57-4.22H352c-2.59,0-3.62-1.4-3.62-4.1s1.13-4.11,3.49-4.11h1.56c3.53,0,5.42-1.44,5.42-4.1s-1.78-4.45-4.82-4.45a6.79,6.79,0,0,0-4.75,2.17,6.14,6.14,0,0,1-5.7,1.92l-.77-.09c-3-.38-4.16-3.39-2.62-6.53,2.41-4.9,8.31-7.64,14-7.64,9.1,0,15.24,4.93,15.24,12.87,0,4.85-2,8.63-5.95,10,4.13,1.28,6.58,5.11,6.58,10.16,0,7.84-6.86,12.92-15.82,12.92Z"/>
      <path class="cls-3" d="M374.63,40c0-16.06,8-23,16.82-23s16.72,6.91,16.72,23c0,16.37-7.91,22.94-16.82,22.94S374.63,56.37,374.63,40Zm22.85,0c0-7.62-2.48-11.9-6.12-11.9s-6.14,4.28-6.14,11.9c0,8,2.42,12.06,6.13,12.06S397.48,47.91,397.48,40Z"/>
    </g>
  </g>
</svg>
