<svg id="Layer_1" data-name="Layer 1" xmlns="http://www.w3.org/2000/svg" width="755" height="515" viewBox="0 0 755 515">
  <defs>
    <style>
      .cls-1 {
        fill: #d6baba;
      }

      .cls-2 {
        fill: #efe1e1;
      }

      .cls-3 {
        opacity: 0.5;
      }

      .cls-4 {
        fill: #ea8b86;
      }
    </style>
  </defs>
  <g>
    <rect class="cls-1" x="12.7" y="13.78" width="740.49" height="500.46"/>
    <rect class="cls-2" x="1.81" y="0.76" width="737.47" height="500.46"/>
  </g>
  <g>
    <g class="cls-3">
      <g>
        <path d="M206.13,178.27c-9.14,0-18.08-3.49-21.81-10.16-3-5.44-1.26-10.14,3.73-11.49l1.46-.39c4.26-1.16,7,.46,9.17,2.88a9.44,9.44,0,0,0,7.29,3.6c2.86,0,4.76-1.44,4.76-3.6,0-7.38-27.7-3.78-27.7-26.91,0-12.3,9.24-20,22.77-20,10.08,0,17.73,2.8,21.42,9.14s2.12,11-3.71,12.21l-1.27.26c-6.34,1.31-8.28-2-10.89-4.22a7.41,7.41,0,0,0-4.83-1.89c-2.66,0-4.45,1.41-4.45,3.51,0,9.18,28.26,3.94,28.26,26.67,0,12.49-10.32,20.42-24.2,20.42Z"/>
        <path d="M238.73,168.73V121.58c0-5.85,2.77-9,7.93-9H269.9c5.16,0,7.94,3.15,7.94,9v1.17c0,5.85-2.78,9-7.94,9h-12v5.76h10.55c5.15,0,7.93,2.7,7.93,7.56v.09c0,5-2.78,7.65-7.93,7.65H257.93v5.85h12c5.16,0,7.94,3.15,7.94,9v1.08c0,5.86-2.78,9-7.94,9H246.66C241.5,177.73,238.73,174.59,238.73,168.73Z"/>
        <path d="M294.33,168.73v-37h-3c-5.16,0-7.93-3.15-7.93-9v-1.17c0-5.85,2.77-9,7.93-9h25.15c5.15,0,7.93,3.15,7.93,9v1.17c0,5.85-2.78,9-7.93,9h-2.94v37c0,5.86-2.77,9-7.93,9h-3.33C297.11,177.73,294.33,174.59,294.33,168.73Z"/>
        <path d="M338.52,168.73v-37h-3c-5.15,0-7.93-3.15-7.93-9v-1.17c0-5.85,2.78-9,7.93-9h25.15c5.16,0,7.93,3.15,7.93,9v1.17c0,5.85-2.77,9-7.93,9h-2.94v37c0,5.86-2.77,9-7.93,9h-3.33C341.29,177.73,338.52,174.59,338.52,168.73Z"/>
        <path d="M375.72,168.73V121.58c0-5.85,2.78-9,7.93-9h3.41c5.16,0,7.94,3.15,7.94,9v47.15c0,5.86-2.78,9-7.94,9h-3.41C378.5,177.73,375.72,174.59,375.72,168.73Z"/>
        <path d="M406.1,168.73V121.58c0-5.85,2.78-9,7.93-9h4.05c4.36,0,7.3,1.89,9.44,6.3l11.66,23.85V121.58c0-5.85,2.78-9,7.93-9h3.33c5.16,0,7.94,3.15,7.94,9v47.15c0,5.86-2.78,9-7.94,9h-4c-4.36,0-7.3-1.88-9.44-6.29l-11.58-23.76v21c0,5.86-2.78,9-7.94,9H414C408.88,177.73,406.1,174.59,406.1,168.73Z"/>
        <path d="M467.1,145c0-19.89,11.26-32.81,27.76-32.81,10.08,0,17.54,2.57,21.9,9.5,3.33,5.31,1.67,8.64-4,10.35l-3,.9c-4.13,1.26-6.59-.45-9.36-2a9,9,0,0,0-4.68-1.26c-5.64,0-9.13,6.12-9.13,15.57s3.42,15.21,9,15.21c3.49,0,6-2.52,6.66-6.75H499.7c-4.52,0-7.06-2.7-7.06-7.56v-.09c0-4.77,2.78-7.47,7.94-7.47h13.56c5,0,8.09,1.17,8.09,5.76v1.44c0,20.52-10.31,32.48-27.6,32.48C477.89,178.27,467.1,165.31,467.1,145Z"/>
        <path d="M552.14,178.27c-9.14,0-18.08-3.49-21.81-10.16-3-5.44-1.26-10.14,3.73-11.49l1.46-.39c4.26-1.16,7,.46,9.16,2.88a9.48,9.48,0,0,0,7.3,3.6c2.86,0,4.76-1.44,4.76-3.6,0-7.38-27.7-3.78-27.7-26.91,0-12.3,9.24-20,22.77-20,10.08,0,17.73,2.8,21.42,9.14s2.12,11-3.72,12.21l-1.26.26c-6.34,1.31-8.28-2-10.89-4.22a7.42,7.42,0,0,0-4.84-1.89c-2.65,0-4.44,1.41-4.44,3.51,0,9.18,28.26,3.94,28.26,26.67,0,12.49-10.32,20.42-24.2,20.42Z"/>
      </g>
    </g>
    <g>
      <path class="cls-4" d="M199.13,171.27c-9.14,0-18.08-3.49-21.81-10.16-3-5.44-1.26-10.14,3.73-11.49l1.46-.39c4.26-1.16,7,.46,9.17,2.88a9.44,9.44,0,0,0,7.29,3.6c2.86,0,4.76-1.44,4.76-3.6,0-7.38-27.7-3.78-27.7-26.91,0-12.3,9.24-20,22.77-20,10.08,0,17.73,2.8,21.42,9.14s2.12,11-3.71,12.21l-1.27.26c-6.34,1.31-8.28-2-10.89-4.22a7.41,7.41,0,0,0-4.83-1.89c-2.66,0-4.45,1.41-4.45,3.51,0,9.18,28.26,3.94,28.26,26.67,0,12.49-10.32,20.42-24.2,20.42Z"/>
      <path class="cls-4" d="M231.73,161.73V114.58c0-5.85,2.77-9,7.93-9H262.9c5.16,0,7.94,3.15,7.94,9v1.17c0,5.85-2.78,9-7.94,9h-12v5.76h10.55c5.15,0,7.93,2.7,7.93,7.56v.09c0,5-2.78,7.65-7.93,7.65H250.93v5.85h12c5.16,0,7.94,3.15,7.94,9v1.08c0,5.86-2.78,9-7.94,9H239.66C234.5,170.73,231.73,167.59,231.73,161.73Z"/>
      <path class="cls-4" d="M287.33,161.73v-37h-3c-5.16,0-7.93-3.15-7.93-9v-1.17c0-5.85,2.77-9,7.93-9h25.15c5.15,0,7.93,3.15,7.93,9v1.17c0,5.85-2.78,9-7.93,9h-2.94v37c0,5.86-2.77,9-7.93,9h-3.33C290.11,170.73,287.33,167.59,287.33,161.73Z"/>
      <path class="cls-4" d="M331.52,161.73v-37h-3c-5.15,0-7.93-3.15-7.93-9v-1.17c0-5.85,2.78-9,7.93-9h25.15c5.16,0,7.93,3.15,7.93,9v1.17c0,5.85-2.77,9-7.93,9h-2.94v37c0,5.86-2.77,9-7.93,9h-3.33C334.29,170.73,331.52,167.59,331.52,161.73Z"/>
      <path class="cls-4" d="M368.72,161.73V114.58c0-5.85,2.78-9,7.93-9h3.41c5.16,0,7.94,3.15,7.94,9v47.15c0,5.86-2.78,9-7.94,9h-3.41C371.5,170.73,368.72,167.59,368.72,161.73Z"/>
      <path class="cls-4" d="M399.1,161.73V114.58c0-5.85,2.78-9,7.93-9h4.05c4.36,0,7.3,1.89,9.44,6.3l11.66,23.85V114.58c0-5.85,2.78-9,7.93-9h3.33c5.16,0,7.94,3.15,7.94,9v47.15c0,5.86-2.78,9-7.94,9h-4c-4.36,0-7.3-1.88-9.44-6.29l-11.58-23.76v21c0,5.86-2.78,9-7.94,9H407C401.88,170.73,399.1,167.59,399.1,161.73Z"/>
      <path class="cls-4" d="M460.1,138c0-19.89,11.26-32.81,27.76-32.81,10.08,0,17.54,2.57,21.9,9.5,3.33,5.31,1.67,8.64-4.05,10.35l-3,.9c-4.13,1.26-6.59-.45-9.36-2a9,9,0,0,0-4.68-1.26c-5.64,0-9.13,6.12-9.13,15.57s3.42,15.21,9,15.21c3.49,0,6-2.52,6.66-6.75H492.7c-4.52,0-7.06-2.7-7.06-7.56v-.09c0-4.77,2.78-7.47,7.94-7.47h13.56c5,0,8.09,1.17,8.09,5.76v1.44c0,20.52-10.31,32.48-27.6,32.48C470.89,171.27,460.1,158.31,460.1,138Z"/>
      <path class="cls-4" d="M545.14,171.27c-9.14,0-18.08-3.49-21.81-10.16-3-5.44-1.26-10.14,3.73-11.49l1.46-.39c4.26-1.16,7,.46,9.16,2.88a9.48,9.48,0,0,0,7.3,3.6c2.86,0,4.76-1.44,4.76-3.6,0-7.38-27.7-3.78-27.7-26.91,0-12.3,9.24-20,22.77-20,10.08,0,17.73,2.8,21.42,9.14s2.12,11-3.72,12.21l-1.26.26c-6.34,1.31-8.28-2-10.89-4.22a7.42,7.42,0,0,0-4.84-1.89c-2.65,0-4.44,1.41-4.44,3.51,0,9.18,28.26,3.94,28.26,26.67,0,12.49-10.32,20.42-24.2,20.42Z"/>
    </g>
  </g>
</svg>
