<svg id="Layer_1" data-name="Layer 1" xmlns="http://www.w3.org/2000/svg" width="86" height="86" viewBox="0 0 86 86">
  <defs>
    <style>
      .cls-1 {
        fill: #7c7c7c;
      }

      .cls-2 {
        fill: #a3a0a0;
      }
    </style>
  </defs>
  <g>
    <ellipse class="cls-1" cx="42.38" cy="42.52" rx="32.53" ry="32.61"/>
    <ellipse class="cls-2" cx="42.38" cy="42.52" rx="18.33" ry="18.38"/>
    <rect class="cls-1" x="35.28" y="1" width="12.13" height="15.47" rx="5"/>
    <rect class="cls-1" x="35.83" y="69.53" width="12.13" height="15.47" rx="5"/>
    <rect class="cls-1" x="72.2" y="33.62" width="12.16" height="15.44" rx="5" transform="translate(119.62 -36.94) rotate(90)"/>
    <rect class="cls-1" x="1.64" y="33.62" width="12.16" height="15.44" rx="5" transform="translate(49.06 33.62) rotate(90)"/>
    <path class="cls-1" d="M62.41,62.09l1.47-1.57a5,5,0,0,1,7.05-.25l4,3.74a5,5,0,0,1,.24,7.07l-1.47,1.57a5,5,0,0,1-7,.25l-4-3.74A5,5,0,0,1,62.41,62.09Z"/>
    <path class="cls-1" d="M10.84,13.82l1.47-1.58a5,5,0,0,1,7-.24l4,3.73a5,5,0,0,1,.24,7.07l-1.47,1.58a5,5,0,0,1-7,.24l-4-3.74A5,5,0,0,1,10.84,13.82Z"/>
    <path class="cls-1" d="M21.14,60.74l1.57,1.48a5,5,0,0,1,.22,7.07l-3.74,4a5,5,0,0,1-7,.22L10.57,72A5,5,0,0,1,10.35,65l3.74-4A5,5,0,0,1,21.14,60.74Z"/>
    <path class="cls-1" d="M69.45,9.19,71,10.66a5,5,0,0,1,.22,7.07l-3.74,4a5,5,0,0,1-7,.22l-1.57-1.48a5,5,0,0,1-.22-7.06l3.74-4A5,5,0,0,1,69.45,9.19Z"/>
  </g>
</svg>
