<svg id="Layer_1" data-name="Layer 1" xmlns="http://www.w3.org/2000/svg" width="85" height="85" viewBox="0 0 85 85">
  <defs>
    <style>
      .cls-1 {
        opacity: 0.3;
      }

      .cls-2 {
        fill: #474747;
      }

      .cls-3 {
        fill: #a3a0a0;
      }
    </style>
  </defs>
  <g>
    <g class="cls-1">
      <ellipse cx="45.56" cy="45.68" rx="29.83" ry="29.9"/>
      <rect x="39.05" y="7.61" width="11.12" height="14.19" rx="5"/>
      <rect x="39.55" y="70.45" width="11.12" height="14.19" rx="5"/>
      <rect x="71.4" y="39.03" width="14.15" height="11.15" rx="5"/>
      <rect x="6.69" y="39.03" width="14.15" height="11.15" rx="5"/>
      <path d="M63.92,63.63l1.35-1.44A4.58,4.58,0,0,1,71.74,62l3.66,3.43a4.62,4.62,0,0,1,.22,6.48l-1.35,1.45a4.58,4.58,0,0,1-6.46.22l-3.66-3.43A4.61,4.61,0,0,1,63.92,63.63Z"/>
      <path d="M16.63,19.36,18,17.92a4.56,4.56,0,0,1,6.46-.22l3.66,3.42a4.6,4.6,0,0,1,.22,6.48L27,29.05a4.59,4.59,0,0,1-6.47.22l-3.66-3.43A4.6,4.6,0,0,1,16.63,19.36Z"/>
      <path d="M26.08,62.39l1.44,1.36a4.61,4.61,0,0,1,.2,6.48l-3.43,3.66a4.57,4.57,0,0,1-6.46.2l-1.44-1.35a4.6,4.6,0,0,1-.21-6.48l3.43-3.66A4.59,4.59,0,0,1,26.08,62.39Z"/>
      <path d="M70.38,15.12l1.44,1.35A4.61,4.61,0,0,1,72,23l-3.43,3.66a4.57,4.57,0,0,1-6.46.2l-1.44-1.35a4.59,4.59,0,0,1-.2-6.48l3.42-3.66A4.58,4.58,0,0,1,70.38,15.12Z"/>
      <ellipse cx="46.12" cy="46.12" rx="16.81" ry="16.85"/>
    </g>
    <g>
      <g>
        <ellipse class="cls-2" cx="42.56" cy="42.68" rx="29.83" ry="29.9"/>
        <rect class="cls-2" x="36.05" y="4.61" width="11.12" height="14.19" rx="5"/>
        <rect class="cls-2" x="36.55" y="67.45" width="11.12" height="14.19" rx="5"/>
        <rect class="cls-2" x="68.4" y="36.03" width="14.15" height="11.15" rx="5"/>
        <rect class="cls-2" x="3.69" y="36.03" width="14.15" height="11.15" rx="5"/>
        <path class="cls-2" d="M60.92,60.63l1.35-1.44A4.58,4.58,0,0,1,68.74,59l3.66,3.43a4.62,4.62,0,0,1,.22,6.48l-1.35,1.45a4.58,4.58,0,0,1-6.46.22l-3.66-3.43A4.61,4.61,0,0,1,60.92,60.63Z"/>
        <path class="cls-2" d="M13.63,16.36,15,14.92a4.56,4.56,0,0,1,6.46-.22l3.66,3.42a4.6,4.6,0,0,1,.22,6.48L24,26.05a4.59,4.59,0,0,1-6.47.22l-3.66-3.43A4.6,4.6,0,0,1,13.63,16.36Z"/>
        <path class="cls-2" d="M23.08,59.39l1.44,1.36a4.61,4.61,0,0,1,.2,6.48l-3.43,3.66a4.57,4.57,0,0,1-6.46.2l-1.44-1.35a4.6,4.6,0,0,1-.21-6.48l3.43-3.66A4.59,4.59,0,0,1,23.08,59.39Z"/>
        <path class="cls-2" d="M67.38,12.12l1.44,1.35A4.61,4.61,0,0,1,69,20l-3.43,3.66a4.57,4.57,0,0,1-6.46.2l-1.44-1.35a4.59,4.59,0,0,1-.2-6.48l3.42-3.66A4.58,4.58,0,0,1,67.38,12.12Z"/>
      </g>
      <ellipse class="cls-3" cx="43.12" cy="43.12" rx="16.81" ry="16.85"/>
    </g>
  </g>
</svg>
