<svg id="Layer_1" data-name="Layer 1" xmlns="http://www.w3.org/2000/svg" width="400" height="100" viewBox="0 0 400 100">
  <defs>
    <style>
      .cls-1 {
        opacity: 0.5;
      }

      .cls-2 {
        fill: #939390;
      }

      .cls-3 {
        fill: #fff;
      }
    </style>
  </defs>
  <g>
    <g class="cls-1">
      <rect x="9.65" y="7.03" width="390" height="93" rx="46.5"/>
    </g>
    <rect class="cls-2" x="2.65" y="0.03" width="390" height="93" rx="46.5"/>
  </g>
  <g>
    <path class="cls-3" d="M83.42,79.66c-9.13,0-17.7-4.13-21.39-11.06-2.41-4.52-1-8.22,3.13-9.55l1.23-.39c3.46-1.11,5.59.23,7.71,2.79a11.66,11.66,0,0,0,9.19,4.68c4.22,0,6.84-2.12,6.84-5.55,0-9.86-28.52-4.06-28.52-27.81,0-11.82,8.58-19.5,21-19.5,9.27,0,16.92,3.41,20.44,9.83,2.83,5.17,1.61,8.92-3,10l-1.25.3c-4.81,1.14-6.4-1.36-8.8-3.68a9.29,9.29,0,0,0-6.73-2.94c-3.86,0-6.32,2.05-6.32,5.26,0,11.36,28.93,4.06,28.93,27.65,0,12.13-9.41,19.94-22.45,19.94Z"/>
    <path class="cls-3" d="M133.44,71.43V30h-5.52c-4.19,0-6.46-2.67-6.46-7.59v-.94c0-4.92,2.27-7.59,6.46-7.59h26.49c4.19,0,6.46,2.67,6.46,7.59v.94c0,4.92-2.27,7.59-6.46,7.59H149V71.43c0,4.92-2.28,7.59-6.47,7.59h-2.59C135.72,79,133.44,76.35,133.44,71.43Z"/>
    <path class="cls-3" d="M222.66,70.28c1.67,5.21-.45,8.74-5.16,8.74h-2.74c-3.78,0-6.11-2-7.27-6.34l-.92-3.42H186.8l-.92,3.42C184.74,77,182.39,79,178.62,79h-2.75c-4.74,0-6.83-3.54-5.17-8.73L186.79,20c1.32-4.14,3.7-6.09,7.42-6.09h4.88c3.72,0,6.1,2,7.42,6.09l16.15,50.33Zm-26-36.69-6.33,22.92H203Z"/>
    <path class="cls-3" d="M279.79,79h-2.9c-3.7,0-5.87-1.89-7.44-5.88l-5.62-13.91c-.62,0-1.25,0-1.91,0h-4.63V71.43c0,4.92-2.27,7.59-6.47,7.59H248.1c-4.19,0-6.47-2.67-6.47-7.59v-50c0-4.92,2.28-7.59,6.47-7.59h14.14c18.78,0,24,8.32,24,22.31,0,7.94-2.56,14.88-8.67,19L284.45,70C287.13,75.84,285.73,79,279.79,79ZM270.6,37.67c0-5.56-2.3-8.64-8.75-8.64h-4.64V46.41h4.64C268.3,46.41,270.6,43.36,270.6,37.67Z"/>
    <path class="cls-3" d="M314.23,71.43V30h-5.51c-4.19,0-6.47-2.67-6.47-7.59v-.94c0-4.92,2.28-7.59,6.47-7.59H335.2c4.19,0,6.47,2.67,6.47,7.59v.94c0,4.92-2.28,7.59-6.47,7.59h-5.44V71.43c0,4.92-2.27,7.59-6.46,7.59h-2.6C316.51,79,314.23,76.35,314.23,71.43Z"/>
  </g>
</svg>
