<svg id="Layer_1" data-name="Layer 1" xmlns="http://www.w3.org/2000/svg" width="1350" height="940" viewBox="0 0 1350 940">
  <defs>
    <style>
      .cls-1 {
        fill: #d6baba;
      }

      .cls-2 {
        fill: #efe1e1;
      }

      .cls-3 {
        opacity: 0.5;
      }

      .cls-37, .cls-4 {
        fill: #fff;
      }

      .cls-5 {
        fill: #ffe567;
      }

      .cls-6 {
        opacity: 0.7;
      }

      .cls-7 {
        fill: #e86dbf;
      }

      .cls-8 {
        opacity: 0.6;
      }

      .cls-9 {
        fill: #ddc0ac;
      }

      .cls-10 {
        fill: #614636;
      }

      .cls-11 {
        fill: #dadada;
      }

      .cls-12 {
        fill: #ea8b86;
      }

      .cls-13 {
        fill: #edebec;
      }

      .cls-14 {
        fill: #915234;
      }

      .cls-15, .cls-19, .cls-20 {
        fill: none;
        stroke-miterlimit: 10;
      }

      .cls-15 {
        stroke: #915334;
        stroke-width: 1.92px;
      }

      .cls-16 {
        fill: #f2c64c;
      }

      .cls-17 {
        fill: #eddaa6;
      }

      .cls-18 {
        fill: #999696;
      }

      .cls-19 {
        stroke: #585657;
      }

      .cls-19, .cls-20 {
        stroke-width: 5.99px;
      }

      .cls-20 {
        stroke: #575757;
      }

      .cls-21 {
        fill: #dda3ca;
      }

      .cls-22 {
        fill: #f5cfe4;
      }

      .cls-23 {
        fill: #f4d77d;
      }

      .cls-24 {
        fill: #f2d17e;
      }

      .cls-25 {
        fill: #efddac;
      }

      .cls-26 {
        fill: #efdfb6;
      }

      .cls-27 {
        fill: #eac660;
      }

      .cls-28 {
        fill: #eadcbb;
      }

      .cls-29 {
        fill: #efc44b;
      }

      .cls-30 {
        opacity: 0.9;
      }

      .cls-31 {
        fill: #7dba74;
      }

      .cls-32 {
        fill: #bddb93;
      }

      .cls-33 {
        opacity: 0.8;
      }

      .cls-34 {
        fill: #b27666;
      }

      .cls-35 {
        fill: #c49a91;
      }

      .cls-36 {
        opacity: 0.3;
      }

      .cls-37 {
        opacity: 0.2;
      }
    </style>
  </defs>
  <g>
    <rect class="cls-1" x="24.14" y="25.27" width="1321.14" height="913.2"/>
    <rect class="cls-2" x="4.72" y="1.53" width="1315.74" height="913.2"/>
  </g>
  <g class="cls-3">
    <path class="cls-4" d="M1216.66,506.52c27,35.29,18.42,78.19-6.85,97.56s-71.48,18.79-98.53-16.5A88.18,88.18,0,0,1,1103.8,576c-20.43-37.57-22.86-97.62-.12-115C1128.94,441.56,1189.61,471.23,1216.66,506.52Z"/>
    <ellipse class="cls-5" cx="1166.2" cy="548.96" rx="32.13" ry="39.78" transform="translate(-93.34 822.72) rotate(-37.47)"/>
  </g>
  <g class="cls-6">
    <path class="cls-4" d="M82.66,394.38a10.89,10.89,0,0,1,18-10.8c-2.26-4.44,1-10.28,5.74-11.87s10.06.27,13.91,3.43c1-5.22,4.3-10.28,9.33-12s11.5,1.16,12.58,6.36a15.86,15.86,0,0,1,28.27-.75c4.71-3.91,11.48-5.94,17.09-3.49s8.65,10.34,4.88,15.16c5.47-1.85,12.27-.69,15.74,3.93S210,397,204.5,398.72c5.34,2.84,10.35,7.51,11,13.53s-5.42,12.48-11.08,10.35c.92,5.68,1.12,11.85-1.8,16.81s-9.93,7.82-14.69,4.59a23.54,23.54,0,0,1-34.56,23.37A10.53,10.53,0,0,1,133,469.28a19,19,0,0,1-19,8.27c-4.29-.81-8.81-5.72-5.92-9l-13.85,2.72c-3.18.63-6.74,1.19-9.46-.58s-3-6.88.16-7.7a27.44,27.44,0,0,1-16.33-6.84c-2.77-2.47-5.12-5.8-5-9.51s3.51-7.39,7.12-6.59c-4.5-3.95-8.39-9.52-7.68-15.47s8.17-10.8,13-7.25c-4.85-3.38-8.67-9.11-7.68-14.94s8.5-10.14,13.24-6.61"/>
    <path class="cls-7" d="M142.54,421a2.59,2.59,0,0,1-1.21,2.7c.32-.16.35.12-.09-.09-.27-.13-.57-.2-.84-.36a4.6,4.6,0,0,1-1.42-1.39c-1.64-2.43-.78-5.51,1.26-7.39,4.21-3.89,11.06-1.09,13.22,3.66a9.26,9.26,0,0,1,.1,7.79c-1.24,2.62-3.74,4.67-6.18,6.14-4.73,2.85-10.71,3.75-15.42.33a15.71,15.71,0,0,1-6.12-12.81c.06-5.43,3.23-10.23,7.52-13.34,9.51-6.88,24.11-4.82,31.34,4.4A18.21,18.21,0,0,1,168,427.16c-1.72,5.68-5.84,10.35-10.28,14.13-9.16,7.79-21.4,14.38-33.8,13.15-10.78-1.07-21.65-7.95-24.12-19-1.41-6.32-.49-13.22,1-19.46a47,47,0,0,1,6.57-15.71,30.37,30.37,0,0,1,12.51-10.86c5.89-2.66,12.4-3.53,18.78-4.09,13.15-1.15,27.58-.4,38.47,8a30.8,30.8,0,0,1,5.94,6c.81,1.08,5.16-.41,4.2-1.69-9.15-12.29-25.57-15.39-40-15-14.62.39-31,2.47-41.26,14.07a44.32,44.32,0,0,0-9,17.2c-1.92,6.75-3.1,14.41-2,21.38,2.19,13.36,15.57,21,28.2,21.59A47.58,47.58,0,0,0,145,452.17,67.87,67.87,0,0,0,163.33,440c4.85-4.59,9.3-10.44,9.89-17.32a20.22,20.22,0,0,0-7.83-17.27c-11-8.77-29.06-6.87-38.76,3.06a17.51,17.51,0,0,0-4.88,16.13,15.46,15.46,0,0,0,11.06,11.81c7.09,1.8,15-1,20.5-5.5,2.56-2.06,5-4.77,5.48-8.15a10.78,10.78,0,0,0-2.45-8.43c-4.56-5.44-13.6-4.92-18.92-1-2.49,1.83-4.5,4.95-3.64,8.14a6.14,6.14,0,0,0,7.07,4.37c3-.43,6.72-2.59,6.19-6.06-.2-1.31-4.73-.3-4.5,1.2Z"/>
  </g>
  <g class="cls-8">
    <path class="cls-9" d="M194.39,186.91l-26.91-9.61c-14.74-5.27-10.07-20.58-.8-33.67L185.28,126l30.21,9.51L212,163.3C208,179.91,208.41,191.92,194.39,186.91Z"/>
    <path class="cls-10" d="M262.22,151c-6.46,18.08-40.27,11.88-69.3,1.51s-60.54-25.23-54.08-43.31S190.09,67,219.12,77.4,268.68,132.89,262.22,151Z"/>
  </g>
  <g>
    <circle class="cls-11" cx="681.38" cy="430.92" r="301.08"/>
    <g>
      <path class="cls-12" d="M364.62,336.46l-41.36-23.54c-4.79-2.77-6.3-6.54-4.34-11.05l3.6-8.31c1.89-4.37,5.43-6,10.72-4.79l34.35,7.52-29-19.91c-4.47-3.06-5.73-6.72-3.84-11.1l3.6-8.3c2-4.52,5.74-6,11-4.4l45.45,14.07c5.88,1.85,7.95,5.69,5.8,10.65l-1.33,3.06c-1.95,4.52-5.82,6-11.14,4.17l-27-9,24.34,17c4.35,3.09,5.61,6.75,3.72,11.13L387.78,307c-1.9,4.37-5.43,6-10.67,4.9L348,305.83l25.06,13.54c4.94,2.66,6.53,6.46,4.57,11l-1.32,3.06C374.2,338.36,370,339.48,364.62,336.46Z"/>
      <path class="cls-12" d="M429.24,218.84c6.2,2,8,6.58,4.64,11.28l-2,2.77c-2.74,3.79-6.39,4.69-11.37,2.66l-.69-.28-9.51,13.17.49.56c3.49,4.09,3.79,7.83,1.05,11.63l-2.05,2.83c-3.39,4.7-8.24,4.34-12.16-.85l-29.88-39.89c-3.14-4.12-3.32-7.87-.62-11.61l3.62-5c2.7-3.73,6.32-4.74,11.22-3.06l47.26,15.81Zm-23.52,10.71L388,222.37l12.41,14.51Z"/>
      <path class="cls-12" d="M435.17,214.57,402.3,180.7c-4.08-4.2-4.28-8.4-.58-12l2.39-2.32c3.71-3.59,7.9-3.27,12,.94l11,11.31-7-18.53a10.39,10.39,0,0,1,2.72-11.8l3-2.93c5.07-4.92,9-4.38,11.4,4l6.24,21.81,24.87,8.76c8.07,2.84,8.62,6.7,3.6,11.57l-3.19,3.1a10.22,10.22,0,0,1-11.89,2.12l-21.26-9.37L449,201.19c4.07,4.2,4.27,8.4.57,12l-2.39,2.32C443.44,219.1,439.25,218.78,435.17,214.57Z"/>
      <path class="cls-12" d="M476.32,176.23,449.2,137.59c-3.36-4.79-2.9-9,1.32-11.93l19.05-13.37c4.22-3,8.31-2,11.68,2.82l.67,1c3.36,4.8,2.9,9-1.33,11.94l-9.81,6.89,3.31,4.72,8.65-6.07c4.22-3,8.05-2.35,10.85,1.63l.05.08c2.84,4.05,2.12,7.86-2.1,10.83l-8.65,6.06,3.37,4.8,9.81-6.89c4.23-3,8.31-2,11.68,2.81l.62.89c3.36,4.79,2.9,9-1.33,11.93l-19,13.37C483.77,182,479.69,181,476.32,176.23Z"/>
      <path class="cls-12" d="M576.08,120.18c5.32,5.29,5.17,9.37-1.44,12.1l-3.3,1.37c-4.25,1.76-7.84.7-11.12-3.19l-7.87-9.34-1.05.45-2.94,1.22,3.76,9.07c2.24,5.41.88,9.39-3.88,11.36L545,144.56c-4.77,2-8.54.13-10.79-5.29L516.15,95.66c-2.24-5.41-.88-9.38,3.89-11.36l13.86-5.74c18.64-7.72,26.37-.68,31.44,11.55,2.58,6.24,3.26,13.3.13,19.54ZM545.57,108c4.4-1.83,4-5.36,2.62-8.6-1.27-3.08-3.43-5.8-7.83-4l-2.93,1.21,5.2,12.57Z"/>
      <path class="cls-12" d="M635.19,106c3.33,5.62,1.7,10.24-4,11.54l-3.33.76c-4.57,1-7.9-.68-10.3-5.49l-.33-.67-15.84,3.63v.74c-.07,5.38-2.31,8.39-6.88,9.44l-3.4.78c-5.65,1.29-9-2.18-8.58-8.66l3.84-49.69c.37-5.16,2.71-8.11,7.2-9.13l6-1.39c4.49-1,7.88.6,10.46,5.09L635.19,106Zm-24.74-7.45-8.58-17.08-.24,19.1Z"/>
      <path class="cls-12" d="M640,105l4.4-47.38c.54-5.51,3.35-8.44,8.27-8.52l9.06-.14c4.76-.08,7.66,2.49,8.78,7.79l7.3,34.39,6.2-34.61c.94-5.33,3.76-8,8.52-8.07l9-.15c4.92-.08,7.83,2.76,8.55,8.24l5.93,47.22c.73,6.12-1.91,9.58-7.31,9.67l-3.34,0c-4.92.08-7.82-2.84-8.39-8.42l-2.92-28.34L688.65,106c-1,5.24-3.84,7.9-8.6,8l-3.65.06c-4.77.08-7.67-2.49-8.86-7.69l-6.43-29-2,28.42c-.39,5.6-3.2,8.61-8.12,8.69l-3.34.06C642.26,114.56,639.5,111.18,640,105Z"/>
      <path class="cls-12" d="M723.78,106.87l8.48-46.44c1-5.76,4.35-8.36,9.43-7.43l22.89,4.17c5.08.93,7.25,4.53,6.19,10.29l-.21,1.15c-1,5.76-4.35,8.37-9.43,7.44L749.34,73.9l-1,5.67,10.39,1.9c5.08.92,7.33,4.08,6.45,8.87v.08c-.89,4.88-4.11,7-9.19,6.11l-10.39-1.89-1,5.76,11.79,2.15c5.08.92,7.25,4.53,6.2,10.29l-.2,1.06c-1,5.76-4.35,8.36-9.43,7.44L730,117.16C724.9,116.23,722.73,112.63,723.78,106.87Z"/>
      <path class="cls-12" d="M770.64,115.65,786.8,71.29c2-5.5,5.7-7.51,10.55-5.75l3.81,1.39c4.1,1.5,6.21,4.28,6.72,9.16l2.79,26.43,7.25-19.89c2-5.51,5.69-7.52,10.55-5.75L831.6,78c4.85,1.77,6.38,5.68,4.38,11.19l-16.17,44.36c-2,5.5-5.69,7.51-10.54,5.75l-3.81-1.39c-4.1-1.5-6.22-4.28-6.72-9.16L796,102.45l-7.22,19.81c-2,5.5-5.69,7.51-10.54,5.75L775,126.84C770.17,125.07,768.64,121.16,770.64,115.65Z"/>
      <path class="cls-12" d="M847.35,147.94l26.86-38.82c3.34-4.81,7.42-5.82,11.66-2.89l2.81,2c4.24,2.93,4.73,7.11,1.4,11.92l-7.94,11.49,9.27,6.41,7.94-11.48c3.34-4.82,7.42-5.83,11.66-2.89l2.81,1.94c4.24,2.94,4.73,7.11,1.4,11.93l-26.86,38.82c-3.33,4.81-7.41,5.82-11.66,2.89l-2.81-2c-4.24-2.93-4.73-7.11-1.4-11.92l8-11.56-9.27-6.41-8,11.55c-3.33,4.82-7.41,5.83-11.66,2.89l-2.81-1.94C844.51,156.93,844,152.76,847.35,147.94Z"/>
      <path class="cls-12" d="M932.62,218.13c-3,5.78-7.83,6.82-11.89,2.69l-2.4-2.44c-3.29-3.34-3.56-7.08-.73-11.65l.39-.63L906.6,194.52l-.64.38c-4.61,2.76-8.35,2.43-11.64-.91l-2.45-2.49c-4.07-4.13-2.89-8.85,2.87-11.85l44.32-22.79c4.59-2.4,8.32-2,11.55,1.33l4.35,4.42c3.23,3.28,3.62,7,1.15,11.57l-23.49,43.95Zm-6.64-25,10-16.25-16.39,9.81Z"/>
      <path class="cls-12" d="M935.73,224.72l39.12-26.42c4.85-3.28,9-2.74,11.91,1.54l6.31,9.34c12.62,18.69,8.34,29.25-5.7,38.73s-24.91,9.15-37.39-9.34l-.09-.13-3.36,2.27c-4.85,3.28-9,2.74-11.91-1.54l-1.91-2.83C929.82,232.06,930.88,228,935.73,224.72ZM967,231c2.67,3.94,6.48,2.52,9.62.4s5.66-5,3-8.92l-1.91-2.84-12.62,8.53Z"/>
      <path class="cls-12" d="M965.52,270.44l43.22-19c5.36-2.35,9.36-1.08,11.44,3.65l4.54,10.32c9.07,20.65,3,30.27-12.54,37.09s-26.14,4.56-35.12-15.87l-.07-.15-3.71,1.63c-5.36,2.36-9.36,1.09-11.44-3.64l-1.38-3.12C958.39,276.61,960.16,272.8,965.52,270.44Zm29.67,11.76c1.92,4.36,5.93,3.64,9.4,2.11s6.46-3.88,4.54-8.24l-1.37-3.13-13.94,6.13Z"/>
      <path class="cls-12" d="M988.84,332.27l8.14-2,32.89-24.46c5.5-4,10.27-2.75,11.72,3.19l1,4c1.07,4.39-.42,7.78-4.75,10.56l-16.7,10.61,19.73,1.8c5,.49,8,2.79,9.08,7.19l1,4.24c1.45,5.94-2.25,9.38-8.93,8.23l-40.5-6.7-7.61,1.86c-5.69,1.38-9.41-.57-10.64-5.58L982.5,342C981.28,337,983.59,333.55,988.84,332.27Z"/>
    </g>
    <circle class="cls-13" cx="681.38" cy="430.92" r="275"/>
    <g>
      <g>
        <g>
          <path class="cls-14" d="M854.91,225.34a2.41,2.41,0,0,1,.09-1.52c.79-1.94,3.89-2.86,7-2s4.91,3.06,4.14,5a2.87,2.87,0,0,1-.77,1.08c-1.3,1.17-3.75,1.62-6.17,1C856.9,228.22,855.26,226.82,854.91,225.34Z"/>
          <path class="cls-14" d="M865.33,227.85,860.5,238h0l-9.5-3.71,3.93-8.91c.35,1.48,2,2.88,4.25,3.48C861.58,229.47,864,229,865.33,227.85Z"/>
          <polygon class="cls-14" points="860.5 237.96 859.4 240.3 859.36 240.28 850.46 236.94 849.88 236.72 850.96 234.25 850.98 234.25 860.48 237.96 860.5 237.96"/>
          <polygon class="cls-14" points="859.4 240.3 750.65 468.44 748.25 467.55 849.88 236.72 850.46 236.94 859.36 240.28 859.4 240.3"/>
        </g>
        <g>
          <polyline class="cls-15" points="850.96 234.25 849.88 236.72 748.25 467.55 747.95 468.21"/>
          <polyline class="cls-15" points="854.95 225.23 854.91 225.34 850.98 234.25"/>
          <polyline class="cls-15" points="865.33 227.85 860.5 237.96 859.4 240.3 750.65 468.44"/>
          <path class="cls-15" d="M854.91,225.34a2.41,2.41,0,0,1,.09-1.52c.79-1.94,3.89-2.86,7-2s4.91,3.06,4.14,5a2.87,2.87,0,0,1-.77,1.08c-1.3,1.17-3.75,1.62-6.17,1C856.9,228.22,855.26,226.82,854.91,225.34Z"/>
          <polyline class="cls-15" points="850.96 234.25 850.98 234.25 860.48 237.96"/>
          <line class="cls-15" x1="850.46" y1="236.94" x2="859.36" y2="240.28"/>
        </g>
      </g>
      <g>
        <g>
          <path class="cls-14" d="M894.59,238.71a2.48,2.48,0,0,1,.32-1.49c1.08-1.82,4.3-2.32,7.21-1.13s4.4,3.63,3.33,5.47a2.67,2.67,0,0,1-.93,1v0a7,7,0,0,1-6.27.15C896.08,241.79,894.71,240.22,894.59,238.71Z"/>
          <path class="cls-14" d="M904.52,242.54l-6.33,9.37h0L889.33,247l5.26-8.33c.12,1.51,1.49,3.08,3.66,4A7,7,0,0,0,904.52,242.54Z"/>
          <polygon class="cls-14" points="898.19 251.91 896.72 254.1 896.7 254.08 888.38 249.65 887.85 249.38 889.31 247.03 889.33 247.03 898.17 251.9 898.19 251.91"/>
          <polygon class="cls-14" points="896.72 254.1 753.94 466.07 751.7 464.89 887.85 249.38 888.38 249.65 896.7 254.08 896.72 254.1"/>
        </g>
        <g>
          <polyline class="cls-15" points="889.31 247.03 887.85 249.38 751.7 464.89 751.33 465.49"/>
          <polyline class="cls-15" points="894.64 238.61 894.59 238.71 889.33 247.03"/>
          <polyline class="cls-15" points="904.52 242.54 898.19 251.91 896.72 254.1 753.94 466.07"/>
          <path class="cls-15" d="M894.59,238.71a2.48,2.48,0,0,1,.32-1.49c1.08-1.82,4.3-2.32,7.21-1.13s4.4,3.63,3.33,5.47a2.67,2.67,0,0,1-.93,1v0a7,7,0,0,1-6.27.15C896.08,241.79,894.71,240.22,894.59,238.71Z"/>
          <polyline class="cls-15" points="889.31 247.03 889.33 247.03 898.17 251.9"/>
          <line class="cls-15" x1="888.38" y1="249.65" x2="896.7" y2="254.08"/>
        </g>
      </g>
      <g class="cls-8">
        <path class="cls-16" d="M733.25,356.52l22.94-5.15c5,4.56,9.76,9.26,10.39,14.86s-3.32,12.28-13.9,18.32-28.6,11.12-42.77,11.09c-13.74,0-20.63-4.47-24.67-9.12s-6.66-9.91-16-12.67c-13.2-3.88-39.36-1.22-57.91,5.9a22.55,22.55,0,0,0-4.84,2.33,4.19,4.19,0,0,0-1.83,2.94c-3.34,18.61,31.46,29.66,76.33,29.71,4.26,0,9.07,0,10.43,1.44,2.61,2.72-9.08,6.74-18,8.84-3.24-4.53-17.26-5.07-28.81-6.18-26.45-2.55-45.18-10.12-51.41-20.79-4.74-8.13.56-20.09,23.14-27.91,14-4.85,30.87-6.69,45-6.79,27-.17,47.84,5.34,55.07,14.56,2,2.54,3.1,5.41,7.62,7.11s14,1.71,21-1a19,19,0,0,0,6.38-3.88c5.29-5.05,2.75-9.52-1.87-13s-11.23-6.29-14.18-10.21"/>
      </g>
      <g class="cls-8">
        <path class="cls-17" d="M611.93,415c2.7-1.32-.19-3-4.18-2.91a23.2,23.2,0,0,0-10.27,2.78c-7.4,4.2-4.67,9.58,4.86,11.56s24.08.72,34.42-2.57,16.44-8.25,17.07-12.76c.41-2.89-1.65-5.84-7.85-7.05a55,55,0,0,0-11.48-.59c-16.66.56-33,4.57-49.5,7.26-4.94.8-10.53,1.5-14.63.78a9.48,9.48,0,0,1-5.21-2.43c-7.21-6.86,5.82-16.87,26-21.63,21.13-5,47-4.9,66.59-10.86a10.92,10.92,0,0,0,3.78-1.66c1.76-1.65-2.63-2.72-6.44-3.25-14.79,3.65-30.17,6.86-45.89,9.58-7.43,1.29-15,2.47-22.12,4.06-11.4,2.53-21.82,6.18-28,10.53s-7.71,9.39-2.51,12.95,17.58,5.26,29.61,3.58c5.77-.8,11-2.26,16.5-3.47A114,114,0,0,1,625.35,406c7.57-.09,14.72,1.06,17.68,3.4,2.74,2.16,1.68,5-.63,7.66-2.13,2.44-5.78,5.05-11.89,6.44a46.64,46.64,0,0,1-21.17-.57c-3.48-1-6.39-2.36-6.3-4.16s4.24-4,9.14-4.25"/>
      </g>
      <path class="cls-4" d="M873.94,396c-.18,3.64-.4,7.23-.69,10.76q-.46,6.09-1.15,12c-.24,2.11-.5,4.22-.77,6.29-.55,4.08-1.17,8.07-1.85,12C856.84,509.94,820.73,561,775.29,590l.21,38.23-194.13,1.06L581.16,591c-45.76-28.52-82.43-79.12-95.88-151.92q-1.09-5.89-2-12c-.31-2.07-.59-4.17-.86-6.28-.48-3.93-.91-7.93-1.26-12-.33-3.53-.59-7.11-.81-10.73l10.68-.06,331.44-1.82Z"/>
      <path class="cls-18" d="M874.32,394.22c-.7,30.58-89.48,42.85-198.6,40.37s-196.54-15.17-195.84-45.74,88.88-50.83,198-48.34S875,363.65,874.32,394.22Z"/>
      <polyline class="cls-19" points="639.23 505.03 617.61 482.73 595.04 505.47"/>
      <polyline class="cls-20" points="757.29 504.38 735.68 482.08 713.11 504.82"/>
      <path class="cls-21" d="M655,543.22a6.42,6.42,0,0,0-6.08,8.46c4.64,13.31,15.56,22.63,28.26,22.56s23.52-9.51,28-22.87A6.43,6.43,0,0,0,699,543Z"/>
      <ellipse class="cls-22" cx="617.24" cy="524.83" rx="15.16" ry="9.64" transform="translate(-2.87 3.4) rotate(-0.31)"/>
      <ellipse class="cls-22" cx="735.31" cy="524.18" rx="15.16" ry="9.64" transform="translate(-2.87 4.05) rotate(-0.31)"/>
      <rect class="cls-13" x="580.93" y="594.8" width="193.93" height="4.41" transform="translate(-3.27 3.73) rotate(-0.31)"/>
      <path class="cls-23" d="M619.51,414.46,618.44,425c-11.66,1.12-23.52,2.13-35.1,1.24s-23-3.88-29.92-9.49-8.11-14.09-1-19.93c6.91-5.67,19.29-7.6,30.66-8.32s23.27-.72,33.49-4c14.38-4.65,22.07-16,17-25.12a6.11,6.11,0,0,0-2.29-2.48,14.92,14.92,0,0,0-5-1.35c-35.79-5.2-75.37,6.91-97.84,25.42-2.13,1.76-4.59,3.74-8.1,4-6.77.53-9-5.13-8.79-9.26,10.73-.41,18.81-6.08,26.8-10.62,18.32-10.4,42.9-16.58,67.47-17,18.72-.29,40.14,4.35,44.62,15.28,2.77,6.77-1.93,14.11-8.78,20-13.1,11.18-34.59,18.66-56.74,19.76-6.11.3-12.44.17-18.11,1.68s-10.42,5.42-8.47,8.89c.8,1.44,2.6,2.57,4.63,3.43,7.51,3.22,17.77,3.09,27,1.89s18.24-3.35,27.61-3.77"/>
      <path class="cls-23" d="M757.55,415.26l-1.07,10.53c-11.67,1.12-23.52,2.12-35.1,1.24s-23-3.89-29.92-9.5-8.11-14.08-1-19.93c6.91-5.66,19.29-7.6,30.66-8.31s23.27-.72,33.48-4c14.39-4.65,22.08-16,17-25.11a6,6,0,0,0-2.29-2.48,14.91,14.91,0,0,0-5-1.36c-35.78-5.19-75.36,6.91-97.83,25.43-2.13,1.76-4.59,3.74-8.1,4-6.77.52-9-5.13-8.79-9.26,10.73-.41,18.8-6.09,26.8-10.63,18.31-10.4,42.9-16.58,67.47-17,18.72-.3,40.14,4.34,44.62,15.27,2.77,6.77-1.93,14.12-8.78,20-13.1,11.18-34.59,18.66-56.74,19.75-6.11.3-12.44.17-18.11,1.69s-10.42,5.42-8.48,8.89c.81,1.43,2.61,2.56,4.63,3.43,7.52,3.22,17.78,3.08,27,1.88s18.24-3.34,27.61-3.76"/>
      <path class="cls-16" d="M596.41,438.45l-20.16,8.77c-6.83-4-13.53-8.09-16.58-13.76s-2.08-13.16,5.62-21,23.09-15.78,36.93-17.89c13.42-2.05,22.07,1.5,28,5.68s10.8,9.22,21.13,10.64c14.56,2,38.93-4.68,54-14.82a15.44,15.44,0,0,0,3.71-3.14,3.58,3.58,0,0,0,.5-3.3c-4.8-19.7-43.55-25.84-87.36-19.12-4.16.64-8.87,1.34-10.8.09-3.73-2.41,5.93-8.32,13.77-11.84,5.13,4.18,19,2.62,30.79,2,26.91-1.37,48.48,3.62,59.18,13.68,8.16,7.66,8.17,20.8-10.48,32.27-11.55,7.11-27.22,11.56-41,13.79-26.26,4.26-49,1.72-60-6.69-3-2.32-5.37-5.12-10.52-6.19s-14.38.34-20.09,4.21a13,13,0,0,0-4.55,5c-3,6,1.45,10.23,7.46,13.09s13.67,4.78,18.26,8.38"/>
      <path class="cls-17" d="M668.17,385.53c-2.06,1.78,1.5,3.09,5.34,2.38a17.25,17.25,0,0,0,8.81-4.43c5.41-5.44.41-10.57-9.75-11.18s-23.8,2.89-32.47,7.84-12.47,11-11.13,15.74c.86,3,4.14,5.77,10.73,6.08a50.19,50.19,0,0,0,11.45-1.12c16-3.09,30.24-9.7,45.15-14.95,4.47-1.58,9.63-3.14,13.94-3a12.22,12.22,0,0,1,6.14,1.72c10,6,1.64,18.28-15.94,26.23C682,419.16,656.73,423,640.17,432.06a7.64,7.64,0,0,0-3,2.28c-1,2,3.74,2.41,7.69,2.39,12.85-6,26.47-11.63,40.63-16.81,6.69-2.45,13.53-4.8,19.82-7.52,10-4.34,18.61-9.67,22.77-15.09s3.45-10.85-3.17-13.74-19.43-2.77-30.44.78c-5.28,1.7-9.79,4-14.6,6.08A93,93,0,0,1,659,396.85c-7.34,1.24-14.82,1.13-18.73-.83-3.6-1.82-3.8-4.92-2.7-8,1-2.84,3.44-6.08,8.81-8.43,6.41-2.81,14.84-3.36,20.9-2.61,3.82.47,7.27,1.47,8,3.34s-2.41,4.74-7.08,5.76"/>
      <path class="cls-24" d="M666.89,400.37c-3.46-.27-4,2.3-1.34,4.05s6.75,2.57,10.13,2.68c10.24.33,15.77-4.85,12.53-10.68s-14-11.59-24.83-13.94S642.08,381,635.62,384c-4.13,1.93-6.82,5-4.59,8.76,1.17,2,3.6,3.93,6.32,5.71,11.09,7.25,26.64,11.83,40.49,17.43,4.15,1.68,8.55,3.74,10.14,6.15a3.73,3.73,0,0,1,0,4.18c-4.75,8.33-26.3,9.66-45.2,3.89-19.84-6-35.73-18-55.93-22.66a14.59,14.59,0,0,0-4.58-.52c-3.31.4-2,3.2-.38,5.34,14.09,4.13,28,8.84,41.37,14.08,6.34,2.47,12.61,5.07,19.19,7.19,10.48,3.39,21.86,5.51,31.55,5.17s17.42-3.32,19-8.31-3.83-11.93-13.56-16.23c-4.66-2.06-9.9-3.41-14.92-5-6.65-2.15-13.19-4.91-18-8.32s-7.72-7.53-6.41-10.61c1.2-2.83,5.69-4.43,10.69-5.3a34,34,0,0,1,16,.75c6.75,2.14,11,6.48,12.38,10.14.86,2.31.79,4.67-1.69,5.94s-8,1-11.38-1.1"/>
      <path class="cls-25" d="M624,385.36c3.31,1.37,8.35-.88,8.56-3.35s-2.88-4.57-6.38-5.75c-10.61-3.59-25.77-.52-32.44,6s-5,15.3,2.72,21,20.64,8.25,33,7.51c7.9-.48,16.27-2.51,20.39-6.72a11,11,0,0,0,3.09-7.35c.58-10.33-8.4-19.58-13.72-29.25-1.59-2.9-2.8-6.24-.3-9,1.58-1.75,4.43-3,7.35-3.88,19.8-6.26,45.71-.6,56.28,10.84,11.08,12,7.52,28.26,21.44,39.08a8.83,8.83,0,0,0,4.09,1.95c4.34.69,7.84-2.33,9.78-4.86a143.36,143.36,0,0,1-20.57-26.4c-2.6-4.34-4.9-8.78-8.37-12.87-5.53-6.52-14.26-12.14-25.44-14.94s-24.89-2.47-35.34,1.7-16.71,12.36-13.61,19.49c1.49,3.42,4.84,6.37,7.48,9.49,3.5,4.14,5.81,8.81,5.11,13.54s-4.76,9.51-11.59,12c-6.29,2.26-14,2.32-21,1.53-6.45-.72-13.17-2.35-16.21-5.84-3.63-4.16-.69-9.57,4.24-13.43a23,23,0,0,1,12.26-5c4.95-.4,10.43,1.65,10.52,4.67"/>
      <path class="cls-26" d="M637.72,347.67a24.47,24.47,0,0,0-15.53-7.31c-7.22-.73-17.21,1.54-22.4,6.1-4.57,4-4.32,8.41-4.06,12.4s.28,7.95-2.23,12.13-8.09,8.53-15.06,10.34c-9.58,2.49-17.44-.52-26.1-1.24-15.54-1.3-35.73,5.69-47.05,15.27s-14.11,21-9.25,29.38c2.06,3.57,5.91,6.88,12.66,7.22,3.84.19,8.25-.61,12-.33,5,.37,8.36,2.78,8.26,5.92a38.87,38.87,0,0,0,9.64-5.38c-10.08-4.81-27.62-4.3-34.7-10.81-5.47-5-2.7-13.38,5.09-20.13s19.79-12,31.85-15.05a52.15,52.15,0,0,1,12-1.92c7.43-.11,12.88,2.69,20.45,2.29,6.53-.34,13.4-3,19.32-6,4.57-2.27,9.1-4.95,11.15-8,1.64-2.47,1.48-4.86,1.52-7.21a41,41,0,0,1,1.58-10.48,9.24,9.24,0,0,1,3.1-5.12c3.35-2.73,9.48-3.83,13.78-3.24s7.18,2.45,9.92,4.26c2.68-.71,4.8-2.66,4.49-4.11"/>
      <path class="cls-27" d="M581.56,394.79c-2.47,4.7-5,9.55-4.49,14.41s4.61,9.82,12,11.53a39.36,39.36,0,0,0,13.24.26c17.42-2.14,32.7-10.64,37.76-21s-.32-22.15-13.33-29.08a56.25,56.25,0,0,0-26.53-6.13c-13.78.16-26.54,5.12-36.86,10.92-18.93,10.64-33,26.43-27.35,41.26a14.44,14.44,0,0,0,15.65,8.41c-7.86-6.3-10.72-14.85-7.62-22.76a30.63,30.63,0,0,1,5-8.09c6.87-8.27,17.89-15.67,32-19.07s31.48-2.12,41.51,4.41c8.14,5.3,10.49,13.64,5.79,20.57s-16.2,12.1-28.36,12.73c-7.39.38-16.28-1.81-16.63-6.29-.15-1.88,1.27-3.69,2.38-5.47s1.89-3.83.54-5.49-5.72-2.34-7.59-.79"/>
      <path class="cls-28" d="M553.5,387.09c-2.47,4.7-5,9.55-4.49,14.41s4.61,9.82,12,11.53a39.42,39.42,0,0,0,13.25.26c17.42-2.14,32.69-10.64,37.76-21s-.33-22.15-13.33-29.08A56.31,56.31,0,0,0,572.18,357c-13.78.16-26.54,5.12-36.87,10.92-18.92,10.64-33,26.43-27.34,41.26a14.43,14.43,0,0,0,15.65,8.41c-7.86-6.3-10.72-14.85-7.62-22.76a30.38,30.38,0,0,1,5-8.09c6.86-8.27,17.89-15.67,32-19.07s31.47-2.12,41.51,4.41c8.14,5.3,10.49,13.64,5.79,20.57s-16.2,12.1-28.36,12.73c-7.39.38-16.28-1.81-16.63-6.29-.15-1.88,1.27-3.69,2.38-5.47s1.89-3.83.54-5.49-5.73-2.34-7.59-.79"/>
      <path class="cls-23" d="M728,372.55l5.29-10.14c11.65.64,23.42,1.43,34.18,4s20.53,7.25,24.86,13.78,2.08,15-7.12,19.66c-8.92,4.52-21.59,4.56-32.78,3.56s-22.62-2.78-33.75-1.08c-15.69,2.41-27.66,12.37-26.5,22.05a4.31,4.31,0,0,0,1.19,2.77,11.26,11.26,0,0,0,4.25,2.08c32.23,10.44,75.11,4.51,104.16-10.26,2.76-1.4,5.92-3,9.4-2.71,6.71.5,6.59,6.37,4.68,10.38-10.46-1.2-20.51,3.15-30,6.4-21.78,7.44-47.87,9.81-71.6,6.51-18.07-2.51-36.74-10.26-36.61-21.63.08-7.05,7.56-13.54,16.5-18.24,17.1-9,40.75-13.09,62.44-10.85,6,.62,12,1.69,18.06,1.06s12.19-3.75,11.73-7.44c-.19-1.52-1.46-2.9-3-4.05-5.91-4.28-15.81-5.68-25.16-5.88s-18.86.54-28-.45"/>
      <path class="cls-16" d="M759.83,352.53,782.72,347c5,4.9,9.71,9.95,10.33,16s-3.33,13.2-13.89,19.71-28.54,12-42.67,12c-13.71,0-20.57-4.77-24.6-9.75s-6.62-10.65-16-13.59c-13.15-4.15-39.25-1.24-57.77,6.44a21.65,21.65,0,0,0-4.83,2.52,4.6,4.6,0,0,0-1.82,3.16c-3.37,20,31.32,31.82,76.07,31.79,4.25,0,9,0,10.4,1.53,2.6,2.91-9.07,7.26-18,9.53-3.23-4.86-17.21-5.42-28.72-6.59-26.37-2.69-45-10.8-51.24-22.26-4.71-8.72.59-21.58,23.13-30,14-5.23,30.8-7.24,44.88-7.37,26.92-.23,47.71,5.65,54.9,15.54,2,2.73,3.08,5.82,7.58,7.63s13.94,1.82,21-1.11a18.82,18.82,0,0,0,6.37-4.18c5.28-5.43,2.76-10.23-1.85-13.93s-11.18-6.73-14.12-10.94"/>
      <path class="cls-17" d="M669.54,393.6c2.7-1.43-.18-3.25-4.15-3.13a22,22,0,0,0-10.25,3c-7.39,4.52-4.68,10.3,4.82,12.41s24,.73,34.34-2.82,16.41-8.9,17-13.75c.41-3.1-1.63-6.27-7.82-7.56a49.61,49.61,0,0,0-11.44-.61c-16.62.62-32.94,5-49.38,7.88-4.93.88-10.51,1.64-14.6.87a9.25,9.25,0,0,1-5.19-2.6c-7.18-7.36,5.84-18.14,25.92-23.3,21.08-5.4,46.85-5.34,66.43-11.78a10.51,10.51,0,0,0,3.77-1.79c1.76-1.78-2.61-2.92-6.41-3.48-14.76,4-30.1,7.42-45.79,10.37-7.41,1.4-14.93,2.68-22.07,4.4-11.37,2.75-21.77,6.69-28,11.37s-7.7,10.11-2.52,13.92,17.51,5.62,29.52,3.8c5.75-.88,11-2.46,16.47-3.77a106.69,106.69,0,0,1,22.66-3.16c7.55-.11,14.68,1.11,17.64,3.62,2.72,2.32,1.66,5.38-.65,8.24-2.13,2.62-5.77,5.44-11.87,6.94a43.26,43.26,0,0,1-21.11-.58c-3.47-1-6.37-2.52-6.28-4.46s4.23-4.29,9.13-4.58"/>
      <path class="cls-24" d="M676.79,379.26c3.21.79,4.72-1.66,2.92-3.76s-5.44-3.53-8.63-4.14c-9.69-1.86-17.1,2.39-16.35,8.58s8.72,13.44,18.17,17.36,19.83,4.68,27.24,2.7c4.75-1.27,8.58-3.9,8-7.89-.33-2.11-1.87-4.38-3.76-6.54-7.7-8.75-20.77-15.57-31.78-23.13-3.3-2.26-6.69-4.94-7.23-7.53-.35-1.65.55-3,1.72-4.08,7.93-7.45,29.15-5.53,44.94,2.95,16.58,8.89,27,23,44.48,30.55a12.25,12.25,0,0,0,4.19,1.2c3.34.1,3.24-2.83,2.52-5.17a370.16,370.16,0,0,1-34-20c-5.08-3.37-10-6.85-15.49-9.92-8.68-4.88-18.74-8.65-28.18-9.78s-18,.65-21.56,5.31-1.15,12.24,6.44,17.91c3.63,2.72,8.11,4.83,12.27,7.17,5.51,3.1,10.66,6.78,13.91,10.84s4.35,8.53,1.85,11.35c-2.31,2.59-7.26,3.48-12.41,3.59-4.75.11-10.38-.53-15.08-3.13-5.61-3.11-7.94-8-7.77-11.78.11-2.39,1.13-4.69,4-5.57s8,.25,10.47,2.78"/>
      <path class="cls-25" d="M711.82,400.37c-2.62-1.83-8.37-.39-9.58,2s.92,4.9,3.79,6.58c8.74,5.1,24.52,4.36,33.54-1s11-14.23,5.89-20.94-16.46-11.16-28.6-12.28c-7.77-.72-16.63,0-22.28,3.52a15.49,15.49,0,0,0-5.94,6.74c-4.74,10,.12,20.43,1.3,30.7.36,3.07.17,6.52-3.34,8.85-2.23,1.48-5.46,2.24-8.63,2.7-21.54,3.17-44.1-6.25-49.6-19-5.77-13.42,4.23-28.8-4.75-41.48a6.23,6.23,0,0,0-3.13-2.53c-3.88-1.31-8.46,1.12-11.35,3.31a106.87,106.87,0,0,1,9,28.92c.73,4.64,1.14,9.33,2.82,13.86,2.66,7.21,8.76,14,18.36,18.43a58,58,0,0,0,34.58,3.63c11.71-2.51,21-9.61,21-17.05,0-3.57-2.07-7-3.34-10.41-1.68-4.58-2-9.5.58-14s8.43-8.59,16-10c6.95-1.28,14.37-.18,20.78,1.64,5.89,1.67,11.69,4.27,13.19,8.15,1.79,4.62-3.22,9.48-9.52,12.52a28,28,0,0,1-13.79,3.07c-4.91-.36-9.33-3.19-8.2-6.15"/>
      <path class="cls-29" d="M768.66,446.08c6.33,1.29,13.36,2,19.84.65s12-5.21,11.47-9.29c-.5-3.59-5.24-6.24-9.56-8.62s-8.41-4.81-10.72-8-2.38-7.24,1.28-10.07c5-3.9,14.35-4,22-5.7,13.65-3.05,22.45-12.34,21.55-21s-10.4-16.36-22.93-20.32c-5.32-1.69-11.77-2.76-17.47-1.3-3.25.83-5.91,2.41-9.2,3.18-4.34,1-9.5.36-12.65-1.59a9,9,0,0,0-2.1,5.69c12.94.45,26.32-4.2,38.63-2,9.53,1.74,15.93,7.55,16.72,13.62s-3.38,12.24-9.74,17.13a25.07,25.07,0,0,1-7.5,4.13c-5.78,1.91-13,1.54-18.57,3.66a16.65,16.65,0,0,0-9.17,8.44c-1.29,2.52-2.11,5.29-.56,7.69,1.24,1.92,3.83,3.35,6.22,4.8A74.62,74.62,0,0,1,785.7,434c1.38,1.17,2.73,2.45,2.82,3.92.16,2.5-3.56,4.69-7.58,5.4s-8.22.27-12.26-.16c-1.38,1.09-1.06,2.82.67,3.63"/>
      <path class="cls-26" d="M683.42,435.23c1.9,3.93,5.3,7.69,11.94,9.48s17.13,1.07,24-2.61c6-3.24,7.55-7.6,8.92-11.54s3-7.83,7-11.54a34.4,34.4,0,0,1,18.63-7.87c10.21-1,16.54,3.11,24.55,5.11,14.38,3.6,36.58-.22,51.32-7.91s22-18.41,20.78-27.38c-.53-3.81-2.89-7.62-9.22-9-3.61-.77-8.16-.64-11.68-1.48-4.65-1.11-6.9-4-5.54-7a51.09,51.09,0,0,0-11.42,3.83c7.72,6.21,24.76,8.34,28.91,15.77,3.21,5.75-2.83,13.51-13,19s-23.83,8.74-36.66,10a54,54,0,0,1-12.24.09c-7.18-1-11.27-4.57-18.69-5.31-6.4-.64-14.08.95-21,2.95-5.3,1.53-10.73,3.49-13.94,6.19-2.57,2.17-3.39,4.54-4.38,6.83a53.12,53.12,0,0,1-5.76,10,13.41,13.41,0,0,1-5.06,4.55,21.72,21.72,0,0,1-14.52,1.11c-3.88-1.22-5.9-3.47-7.8-5.66-2.85.3-5.68,1.89-6,3.35"/>
      <path class="cls-27" d="M756.39,397.5c4.27-4.24,8.63-8.61,10.14-13.44s-.44-10.31-6.86-13.08c-3.59-1.56-8.14-2.11-12.6-2.24-17.59-.52-35.69,5.52-44.75,14.94s-8.67,21.74,1,30.47c5.38,4.85,13.52,8.62,23,10,13.29,1.9,27.54-1.05,39.8-5.18,22.46-7.58,42.33-20.95,42.94-36.31.19-4.82-3.67-10.72-11.61-10.58,5,7.35,4.28,16.15-1.9,23.43a44.63,44.63,0,0,1-8.12,7.17A78.39,78.39,0,0,1,749,416.54c-15,1.21-31.06-2.63-38-10.53-5.66-6.41-4.54-14.93,2.78-21s20.45-9.42,32.36-8.22c7.25.73,14.89,4.21,13.41,8.65-.62,1.86-2.71,3.42-4.5,5s-3.36,3.46-2.74,5.29,4.55,3.15,7,1.91"/>
      <g class="cls-8">
        <path class="cls-16" d="M628.62,433.55l-20.2,8.13c-6.86-3.69-13.58-7.55-16.65-12.84s-2.11-12.24,5.61-19.52,23.12-14.65,37-16.59c13.45-1.88,22.13,1.43,28.12,5.33s10.84,8.6,21.21,9.95c14.6,1.89,39-4.3,54.07-13.71a14.92,14.92,0,0,0,3.71-2.91,3.16,3.16,0,0,0,.51-3.08c-4.85-18.34-43.72-24.12-87.63-17.93-4.17.59-8.89,1.23-10.83.07-3.75-2.25,5.93-7.74,13.79-11,5.15,3.9,19.09,2.47,30.87,1.94,27-1.23,48.62,3.45,59.37,12.83,8.19,7.14,8.22,19.36-10.46,30-11.57,6.6-27.27,10.71-41,12.76-26.33,3.92-49.13,1.52-60.22-6.32-3.06-2.17-5.4-4.77-10.56-5.78s-14.42.3-20.14,3.88a12.55,12.55,0,0,0-4.55,4.62c-3,5.58,1.47,9.52,7.5,12.18s13.72,4.48,18.32,7.84"/>
      </g>
      <g class="cls-8">
        <path class="cls-29" d="M581.81,351.18c-6.75-.28-13.93.06-19.75,2.15s-9.7,6.31-7.47,9.88c2,3.14,7.69,4.85,12.9,6.38s10.22,3.15,13.79,5.67,5.28,6.14,2.85,9.18c-3.35,4.18-12.46,5.55-19.23,8.11-12.16,4.61-17,14.12-12.58,21.75s16.88,13.19,30.79,15c5.9.78,12.68.85,17.67-1.24,2.85-1.19,4.82-3,7.74-4.11a20.8,20.8,0,0,1,13.07-.32,6.78,6.78,0,0,0-.27-5.37c-12.88,1.37-24.12,7.37-37.12,7.06-10.06-.24-18.71-4.55-22-9.87s-1.68-11.39,2.58-16.64a17.47,17.47,0,0,1,5.67-4.73c4.89-2.49,12.12-3.15,16.74-5.81a10.72,10.72,0,0,0,5.56-8.81c.24-2.43-.09-5-2.59-6.95-2-1.54-5.12-2.46-8.06-3.43A111.94,111.94,0,0,1,570,364.3c-1.84-.86-3.68-1.82-4.37-3.11-1.18-2.22,1.58-4.69,5.23-5.87s8-1.37,12.1-1.54c.91-1.18-.1-2.67-2.13-3.16"/>
      </g>
      <g class="cls-8">
        <path class="cls-26" d="M669.9,349.14a25.46,25.46,0,0,0-15.59-6.83c-7.25-.69-17.25,1.41-22.45,5.64-4.58,3.72-4.32,7.82-4.05,11.53s.29,7.4-2.22,11.28-8.1,7.93-15.08,9.6c-9.61,2.3-17.49-.51-26.17-1.19-15.59-1.24-35.82,5.24-47.15,14.14s-14.12,19.47-9.23,27.32c2.07,3.32,5.93,6.41,12.7,6.73,3.86.19,8.27-.55,12.07-.28,5,.35,8.4,2.6,8.3,5.52a40.23,40.23,0,0,0,9.66-5c-10.12-4.49-27.71-4.05-34.81-10.11-5.5-4.7-2.73-12.46,5.06-18.73s19.83-11.09,31.92-14a55.87,55.87,0,0,1,12-1.76c7.45-.09,12.93,2.52,20.51,2.17,6.54-.31,13.43-2.79,19.37-5.52,4.57-2.1,9.11-4.59,11.16-7.46,1.64-2.29,1.47-4.52,1.51-6.7a35.6,35.6,0,0,1,1.57-9.75,8.5,8.5,0,0,1,3.1-4.77c3.35-2.53,9.5-3.54,13.81-3s7.21,2.3,10,4c2.68-.66,4.81-2.47,4.49-3.82"/>
      </g>
      <g class="cls-8">
        <path class="cls-23" d="M760.4,372.45l5.3-9.44c11.67.62,23.48,1.37,34.27,3.81s20.6,6.78,24.95,12.86,2.11,14-7.11,18.29c-8.93,4.19-21.63,4.2-32.86,3.26s-22.68-2.63-33.85-1.06c-15.72,2.21-27.71,11.46-26.53,20.47a3.94,3.94,0,0,0,1.2,2.58,11.65,11.65,0,0,0,4.27,1.94c32.33,9.77,75.31,4.33,104.43-9.37,2.76-1.3,5.92-2.76,9.41-2.51,6.73.48,6.62,5.94,4.71,9.67-10.49-1.14-20.56,2.89-30.09,5.9-21.82,6.89-48,9-71.78,5.95-18.13-2.37-36.86-9.62-36.75-20.2.07-6.55,7.56-12.58,16.52-16.94,17.13-8.33,40.83-12.12,62.59-10,6,.58,12,1.59,18.11,1s12.22-3.47,11.75-6.9c-.19-1.42-1.47-2.7-3.07-3.78-5.93-4-15.86-5.31-25.23-5.51s-18.91.47-28.09-.47"/>
      </g>
      <g class="cls-8">
        <path class="cls-16" d="M787.51,359.24l22.94-5.15c5,4.56,9.75,9.27,10.39,14.87s-3.32,12.27-13.9,18.32-28.6,11.11-42.77,11.09c-13.74,0-20.63-4.48-24.67-9.12s-6.66-9.92-16-12.67c-13.2-3.88-39.36-1.22-57.91,5.89a22.31,22.31,0,0,0-4.84,2.34,4.19,4.19,0,0,0-1.83,2.94c-3.34,18.61,31.46,29.66,76.33,29.71,4.26,0,9.07,0,10.43,1.44,2.61,2.72-9.08,6.74-18,8.84-3.24-4.53-17.26-5.07-28.81-6.18-26.45-2.55-45.18-10.13-51.41-20.8-4.75-8.12.56-20.08,23.14-27.9,14-4.85,30.87-6.7,45-6.79,27-.18,47.84,5.33,55.07,14.55,2,2.54,3.1,5.42,7.62,7.12s14,1.71,21-1a18.81,18.81,0,0,0,6.38-3.88c5.29-5,2.75-9.51-1.87-13s-11.23-6.28-14.18-10.21"/>
      </g>
      <g class="cls-8">
        <path class="cls-17" d="M554.51,389.68c2.7-1.33-.18-3-4.17-2.92a23.29,23.29,0,0,0-10.27,2.79c-7.4,4.2-4.67,9.58,4.86,11.56s24.07.72,34.42-2.57,16.44-8.25,17.07-12.77c.4-2.88-1.65-5.83-7.86-7a53.57,53.57,0,0,0-11.47-.59c-16.67.55-33,4.57-49.5,7.25-4.94.81-10.53,1.51-14.63.79a9.63,9.63,0,0,1-5.22-2.43c-7.21-6.86,5.82-16.87,26-21.64,21.12-5,47-4.89,66.59-10.85a11.12,11.12,0,0,0,3.78-1.66c1.75-1.66-2.63-2.73-6.45-3.26-14.78,3.65-30.16,6.87-45.88,9.59-7.43,1.28-15,2.46-22.13,4.05-11.39,2.54-21.81,6.19-28,10.53s-7.71,9.4-2.5,13,17.57,5.26,29.61,3.58c5.76-.81,11-2.27,16.5-3.48a113.87,113.87,0,0,1,22.72-2.9c7.57-.1,14.72,1.05,17.69,3.4,2.73,2.15,1.67,5-.64,7.66-2.13,2.44-5.77,5-11.89,6.43a46.61,46.61,0,0,1-21.16-.56c-3.49-1-6.4-2.37-6.3-4.17s4.23-4,9.14-4.24"/>
      </g>
      <g class="cls-8">
        <path class="cls-24" d="M726.69,381.47c3.22.73,4.74-1.54,2.92-3.5s-5.45-3.3-8.65-3.87c-9.72-1.74-17.15,2.2-16.38,8s8.76,12.52,18.25,16.19,19.88,4.38,27.31,2.55c4.76-1.17,8.6-3.61,8-7.33-.33-2-1.88-4.08-3.78-6.08-7.74-8.17-20.85-14.53-31.9-21.58-3.32-2.12-6.72-4.61-7.27-7-.35-1.53.55-2.77,1.72-3.79,7.94-6.92,29.22-5.1,45.07,2.82,16.64,8.3,27.1,21.42,44.65,28.5a12.57,12.57,0,0,0,4.2,1.12c3.35.1,3.24-2.62,2.52-4.8A377.59,377.59,0,0,1,779.21,364c-5.1-3.14-10.08-6.39-15.56-9.25-8.71-4.56-18.8-8.09-28.26-9.15s-18.11.57-21.62,4.9-1.13,11.39,6.49,16.68c3.65,2.53,8.14,4.51,12.31,6.69,5.53,2.9,10.7,6.33,14,10.11s4.38,8,1.87,10.56c-2.3,2.42-7.27,3.24-12.44,3.33-4.75.09-10.4-.51-15.12-2.94-5.63-2.91-8-7.45-7.81-11a5.23,5.23,0,0,1,4-5.17c2.91-.81,8.07.24,10.51,2.6"/>
      </g>
      <g class="cls-8">
        <path class="cls-25" d="M744.28,398.3c-2.64-1.7-8.4-.37-9.6,1.85s.92,4.56,3.81,6.13c8.77,4.77,24.59,4.11,33.63-.86s11-13.22,5.87-19.47-16.53-10.42-28.71-11.48c-7.79-.68-16.67,0-22.33,3.24A14.69,14.69,0,0,0,721,384c-4.74,9.32.16,19,1.36,28.57.36,2.86.17,6.07-3.34,8.23-2.24,1.37-5.47,2.08-8.65,2.5-21.59,2.91-44.23-5.89-49.77-17.79-5.81-12.5,4.2-26.79-4.82-38.61a6.2,6.2,0,0,0-3.15-2.35c-3.89-1.24-8.48,1-11.38,3.05a94.35,94.35,0,0,1,9.12,26.93c.74,4.32,1.16,8.69,2.84,12.9,2.69,6.71,8.82,13.07,18.44,17.18A62.4,62.4,0,0,0,706.35,428c11.74-2.32,21.08-8.9,21-15.84,0-3.32-2.08-6.47-3.36-9.69-1.69-4.26-2-8.84.56-13.05s8.44-8,16-9.26c7-1.17,14.4-.13,20.83,1.57,5.92,1.56,11.73,4,13.24,7.6,1.81,4.31-3.21,8.82-9.52,11.64a29.78,29.78,0,0,1-13.82,2.83c-4.92-.34-9.36-3-8.24-5.74"/>
      </g>
      <g class="cls-8">
        <path class="cls-29" d="M801.34,440.94c6.36,1.21,13.41,1.87,19.9.63s12.07-4.83,11.49-8.63c-.51-3.34-5.27-5.81-9.6-8s-8.44-4.5-10.77-7.46-2.39-6.74,1.27-9.37c5-3.63,14.39-3.7,22-5.27,13.68-2.82,22.49-11.45,21.57-19.53s-10.45-15.24-23-18.95c-5.33-1.57-11.81-2.59-17.52-1.24-3.25.77-5.92,2.24-9.22,3-4.35.93-9.53.32-12.69-1.5a8,8,0,0,0-2.09,5.29c13,.45,26.38-3.86,38.73-1.75,9.56,1.63,16,7,16.79,12.7s-3.37,11.38-9.74,15.92a26,26,0,0,1-7.51,3.83c-5.79,1.77-13,1.41-18.62,3.37a16.25,16.25,0,0,0-9.19,7.84c-1.28,2.35-2.1,4.92-.54,7.16,1.25,1.79,3.85,3.12,6.24,4.47a76.23,76.23,0,0,1,9.58,6.37c1.39,1.09,2.74,2.29,2.84,3.65.16,2.33-3.57,4.36-7.59,5s-8.24.24-12.3-.17c-1.38,1-1.06,2.62.68,3.38"/>
      </g>
      <g class="cls-8">
        <path class="cls-27" d="M789,395.7c4.28-3.93,8.64-8,10.15-12.48s-.46-9.6-6.91-12.19c-3.59-1.45-8.15-2-12.63-2.11-17.63-.51-35.77,5.09-44.85,13.84s-8.65,20.21,1.06,28.36c5.4,4.52,13.57,8,23.05,9.31,13.33,1.8,27.61-.92,39.89-4.75,22.51-7,42.41-19.42,43-33.71.18-4.49-3.7-10-11.65-9.87,5,6.84,4.31,15-1.88,21.8a43.12,43.12,0,0,1-8.12,6.65,82.13,82.13,0,0,1-38.54,12.86c-15,1.1-31.14-2.5-38.16-9.86-5.68-6-4.57-13.9,2.76-19.55s20.48-8.73,32.43-7.59c7.27.69,14.94,3.94,13.46,8.07-.61,1.73-2.71,3.17-4.5,4.64s-3.37,3.22-2.74,4.93,4.56,2.93,7,1.78"/>
      </g>
      <g>
        <path class="cls-4" d="M854.67,417.65c-14.63,16.91-36.65,17-48.76,6.55S789.38,390.89,804,374a44.89,44.89,0,0,1,5-4.87c16.43-13.88,45.78-21.19,56.68-11.76C877.76,367.82,869.31,400.73,854.67,417.65Z"/>
        <ellipse class="cls-5" cx="828.63" cy="397.1" rx="20.01" ry="16.17" transform="translate(-13.83 763.95) rotate(-49.14)"/>
      </g>
      <g>
        <path class="cls-4" d="M818.17,407.25c-8.17,20.83-28.9,28.26-43.81,22.4s-26.67-25.91-18.49-46.74a43.71,43.71,0,0,1,3.06-6.23c10.87-18.56,36.11-35.22,49.53-29.95C823.37,352.58,826.35,386.43,818.17,407.25Z"/>
        <ellipse class="cls-5" cx="786.78" cy="396.54" rx="20.01" ry="16.17" transform="translate(130.15 984) rotate(-68.57)"/>
      </g>
      <g class="cls-30">
        <path class="cls-4" d="M700.06,422.39a4.86,4.86,0,0,1,4.45-8.27c-1.88-1.19-2-4.17-.51-5.86a6.75,6.75,0,0,1,6.12-1.87,6.79,6.79,0,0,1,.84-6.72c1.55-1.79,4.68-2.18,6.28-.43a7.08,7.08,0,0,1,10.67-6.76c.92-2.57,3.05-4.9,5.76-5.24s5.68,2,5.34,4.7c1.68-2,4.55-3.07,6.94-2.09s3.57,4.43,1.84,6.35c2.7-.13,5.69.52,7.3,2.68s.77,6-1.89,6.51c1.66,2,3.15,4.29,3.16,6.86s-2,5.27-4.59,5.12a10.51,10.51,0,0,1-7.91,16.86,4.71,4.71,0,0,1-7.38,5.39,8.46,8.46,0,0,1-5.41,7.52c-1.83.67-4.68-.18-4.32-2.09l-4.69,4.21c-1.08,1-2.32,2-3.76,1.93s-2.72-1.95-1.7-3a12.26,12.26,0,0,1-7.83,1.1,5.81,5.81,0,0,1-4.11-2.49c-.82-1.43-.35-3.64,1.22-4.16-2.63-.48-5.39-1.73-6.48-4.17s.66-6,3.33-5.75c-2.64-.19-5.41-1.52-6.37-4s.95-5.83,3.57-5.56"/>
        <path class="cls-7" d="M728.89,418.53a1.46,1.46,0,0,1,0,1.72c-.41.43-.81.22-1.28-.19-1.19-1.05-.91-2.89-.1-4.08a3.6,3.6,0,0,1,6.29.48c1.18,2.27-.18,5.23-1.63,7.07-1.6,2-3.89,3.09-6.38,2-5-2.27-4.95-8.42-2-12.3,3.33-4.32,9.86-5.92,14.07-1.88,4,3.83,2.33,10,.35,14.43s-5.2,8.92-9.83,10.89-10,1-13.08-3.1a22.64,22.64,0,0,1-4.22-14.93c.64-6.16,5.09-10.18,9.9-13.52,5.34-3.7,12-6.71,18.46-4.11.54.22,2.37-.6,1.62-.91-6.7-2.69-14.06-.13-19.83,3.56s-11.52,8.27-12.17,15.47a22.22,22.22,0,0,0,1.57,9.87c1.16,3,2.76,6.17,5.57,7.94,5,3.19,11.92,1.75,16.48-1.59A22.73,22.73,0,0,0,739,428a25.34,25.34,0,0,0,3.3-9.25c.37-3.18-.36-6.44-2.89-8.57a10.63,10.63,0,0,0-8.48-2.14c-5.87.91-12.11,6.21-11.12,12.68a7.64,7.64,0,0,0,5.4,6,8.29,8.29,0,0,0,7.49-1.82c2.09-1.79,4.07-5.06,3.54-7.91s-3.4-4.09-6-3.7-5.6,2.52-5.43,5.47,3.89,3.64,5.7,1.73a2.07,2.07,0,0,0,.27-2.74c-.36-.49-2.3.17-1.88.75Z"/>
      </g>
      <g>
        <path class="cls-9" d="M770,437.13l-10.51-5.21c-5.76-2.86-3.12-8.88,1.29-13.77l8.44-6.32,11.86,5.34-2.77,11.18C775.89,434.93,775.49,439.85,770,437.13Z"/>
        <path class="cls-10" d="M799.41,425.74c-3.5,7.06-17,2.9-28.33-2.72s-23.48-13.2-20-20.27S774,388,785.38,393.66,802.92,418.68,799.41,425.74Z"/>
      </g>
      <g class="cls-8">
        <ellipse class="cls-31" cx="658.36" cy="396.4" rx="7.84" ry="9.8" transform="translate(247.05 1045.55) rotate(-88.69)"/>
        <ellipse class="cls-32" cx="658.36" cy="396.4" rx="5.98" ry="7.47" transform="translate(247.05 1045.55) rotate(-88.69)"/>
      </g>
      <g class="cls-8">
        <ellipse class="cls-31" cx="685.52" cy="419.92" rx="7.84" ry="9.8" transform="translate(250.07 1095.68) rotate(-88.69)"/>
        <ellipse class="cls-32" cx="685.52" cy="419.92" rx="5.98" ry="7.47" transform="translate(250.07 1095.68) rotate(-88.69)"/>
      </g>
      <g>
        <ellipse class="cls-31" cx="695.71" cy="404.21" rx="7.84" ry="9.8" transform="translate(275.74 1090.53) rotate(-88.69)"/>
        <ellipse class="cls-32" cx="695.71" cy="404.21" rx="5.98" ry="7.47" transform="translate(275.74 1090.53) rotate(-88.69)"/>
      </g>
      <g class="cls-30">
        <ellipse class="cls-31" cx="692.99" cy="420.09" rx="7.84" ry="9.8" transform="translate(257.2 1103.32) rotate(-88.69)"/>
        <ellipse class="cls-32" cx="692.99" cy="420.09" rx="5.98" ry="7.47" transform="translate(257.2 1103.32) rotate(-88.69)"/>
      </g>
      <g class="cls-33">
        <ellipse class="cls-31" cx="676.09" cy="413.81" rx="7.84" ry="9.8" transform="translate(246.96 1080.29) rotate(-88.69)"/>
        <ellipse class="cls-32" cx="676.09" cy="413.81" rx="5.98" ry="7.47" transform="translate(246.96 1080.29) rotate(-88.69)"/>
      </g>
      <g>
        <ellipse class="cls-31" cx="733.42" cy="368.56" rx="7.84" ry="9.8" transform="translate(348.23 1093.39) rotate(-88.69)"/>
        <ellipse class="cls-32" cx="733.42" cy="368.56" rx="5.98" ry="7.47" transform="translate(348.23 1093.39) rotate(-88.69)"/>
      </g>
      <g>
        <ellipse class="cls-31" cx="702.74" cy="372.57" rx="7.84" ry="9.8" transform="translate(314.24 1066.63) rotate(-88.69)"/>
        <ellipse class="cls-32" cx="702.74" cy="372.57" rx="5.98" ry="7.47" transform="translate(314.24 1066.63) rotate(-88.69)"/>
      </g>
      <g>
        <ellipse class="cls-31" cx="644.68" cy="412.85" rx="7.84" ry="9.8" transform="translate(217.23 1047.95) rotate(-88.69)"/>
        <ellipse class="cls-32" cx="644.68" cy="412.85" rx="5.98" ry="7.47" transform="translate(217.23 1047.95) rotate(-88.69)"/>
      </g>
      <g class="cls-3">
        <ellipse class="cls-31" cx="726.95" cy="377.71" rx="7.84" ry="9.8" transform="translate(332.76 1095.86) rotate(-88.69)"/>
        <ellipse class="cls-32" cx="726.95" cy="377.71" rx="5.98" ry="7.47" transform="translate(332.76 1095.86) rotate(-88.69)"/>
      </g>
      <g>
        <ellipse class="cls-31" cx="683.7" cy="408.01" rx="7.84" ry="9.8" transform="translate(260.2 1082.22) rotate(-88.69)"/>
        <ellipse class="cls-32" cx="683.7" cy="408.01" rx="5.98" ry="7.47" transform="translate(260.2 1082.22) rotate(-88.69)"/>
      </g>
      <g>
        <ellipse class="cls-31" cx="665.47" cy="416.22" rx="7.84" ry="9.8" transform="translate(234.18 1072.02) rotate(-88.69)"/>
        <ellipse class="cls-32" cx="665.47" cy="416.22" rx="5.98" ry="7.47" transform="translate(234.18 1072.02) rotate(-88.69)"/>
      </g>
      <g>
        <ellipse class="cls-31" cx="635.62" cy="383.97" rx="7.84" ry="9.8" transform="translate(237.25 1010.67) rotate(-88.69)"/>
        <ellipse class="cls-32" cx="635.62" cy="383.97" rx="5.98" ry="7.47" transform="translate(237.25 1010.67) rotate(-88.69)"/>
      </g>
      <g>
        <path class="cls-34" d="M485.87,395.61l130.38,16.57s24.59-14-11.65-33-50.33-26.64-69.77-26.84-43.79-4.06-53.28,8.89S485.87,395.61,485.87,395.61Z"/>
        <path class="cls-35" d="M488.12,396.08l126.11,16S638,398.53,603,380.22s-48.68-25.77-67.49-26-42.35-3.93-51.53,8.6S488.12,396.08,488.12,396.08Z"/>
      </g>
      <g>
        <path class="cls-34" d="M495.37,405l130.38,16.57s24.59-14-11.65-33-50.33-26.64-69.77-26.84-43.79-4.06-53.28,8.89S495.37,405,495.37,405Z"/>
        <path class="cls-35" d="M497.62,405.43l126.11,16s23.79-13.57-11.27-31.88-48.67-25.77-67.48-26-42.36-3.93-51.54,8.6S497.62,405.43,497.62,405.43Z"/>
      </g>
      <g>
        <path class="cls-34" d="M505.71,417l130.38,16.56s24.59-14-11.65-33S574.11,374,554.67,373.78s-43.79-4.06-53.28,8.89S505.71,417,505.71,417Z"/>
        <path class="cls-35" d="M508,417.48l126.11,16s23.79-13.57-11.27-31.88-48.68-25.76-67.48-26-42.36-3.93-51.54,8.6S508,417.48,508,417.48Z"/>
      </g>
      <path class="cls-12" d="M677.38,431.37c-96.94-2.22-179.9-16.7-196.73-42-2.38,3.54-.25,11-.34,14.89-.75,33.13,86.81,46.57,196.57,49.08s195.54-10.13,196.29-43.25c.09-3.87,2.58-11.34.34-14.9C855.39,420.41,774.33,433.58,677.38,431.37Z"/>
      <g class="cls-8">
        <path class="cls-27" d="M639.39,401.19c-2.47,4.37-5,8.87-4.49,13.4s4.64,9.15,12.08,10.75a42.4,42.4,0,0,0,13.28.26c17.47-2,32.77-9.85,37.83-19.51s-.36-20.62-13.41-27.09a60.29,60.29,0,0,0-26.61-5.75c-13.82.13-26.61,4.72-37,10.11-19,9.86-33,24.54-27.35,38.35,1.78,4.33,8,9.07,15.71,7.85-7.89-5.87-10.78-13.84-7.68-21.2a27.65,27.65,0,0,1,5-7.51c6.87-7.69,17.91-14.56,32.08-17.7s31.56-1.92,41.63,4.17c8.17,4.95,10.54,12.72,5.84,19.16s-16.23,11.23-28.41,11.8c-7.42.34-16.33-1.72-16.69-5.89-.15-1.74,1.27-3.42,2.37-5.08s1.9-3.56.54-5.11-5.74-2.18-7.61-.74"/>
      </g>
      <g class="cls-36">
        <ellipse class="cls-31" cx="621" cy="410.31" rx="7.84" ry="9.8" transform="translate(196.63 1021.79) rotate(-88.69)"/>
        <ellipse class="cls-32" cx="621" cy="410.31" rx="5.98" ry="7.47" transform="translate(196.63 1021.79) rotate(-88.69)"/>
      </g>
    </g>
  </g>
  <path class="cls-37" d="M568.14,383.56l56.29,28.71S632.1,411,613.1,399,568.14,383.56,568.14,383.56Z"/>
</svg>
