<svg id="Layer_1" data-name="Layer 1" xmlns="http://www.w3.org/2000/svg" width="435" height="100" viewBox="0 0 435 100">
  <defs>
    <style>
      .cls-1 {
        fill: #6b6b6a;
      }

      .cls-2 {
        fill: #939390;
      }

      .cls-3 {
        fill: #fff;
      }
    </style>
  </defs>
  <g>
    <rect class="cls-1" x="9.71" y="11.21" width="424.71" height="87.83" rx="43.92"/>
    <rect class="cls-2" x="0.58" y="0.96" width="424.71" height="87.83" rx="43.92"/>
    <g>
      <path class="cls-3" d="M32.12,65.94V34.86H28c-3.14,0-4.85-2-4.85-5.68v-.71c0-3.69,1.71-5.69,4.85-5.69H47.84c3.14,0,4.85,2,4.85,5.69v.71c0,3.68-1.71,5.68-4.85,5.68H43.76V65.94c0,3.68-1.7,5.68-4.84,5.68H37C33.83,71.62,32.12,69.62,32.12,65.94Z"/>
      <path class="cls-3" d="M95.36,71.62H93.19c-2.77,0-4.4-1.41-5.58-4.4l-4.2-10.43q-.7,0-1.44,0H78.5v9.12c0,3.68-1.71,5.68-4.85,5.68h-2c-3.14,0-4.85-2-4.85-5.68V28.47c0-3.69,1.71-5.69,4.85-5.69h10.6c14.08,0,18,6.24,18,16.73,0,6-1.92,11.15-6.49,14.26L98.86,64.9C100.87,69.24,99.82,71.62,95.36,71.62Zm-6.88-31c0-4.17-1.72-6.47-6.56-6.47H78.44v13h3.48C86.76,47.18,88.48,44.89,88.48,40.63Z"/>
      <path class="cls-3" d="M124.42,66.21V58.67L111.85,29.5c-1.71-3.95-.26-6.72,3.46-6.72h2.51c2.73,0,4.43,1.42,5.6,4.4l6.78,17.38,6.86-17.38c1.18-3,2.87-4.4,5.6-4.4h2.59c3.74,0,5.24,2.83,3.54,6.72L136.06,58.67v7.27c0,3.68-1.71,5.68-4.85,5.68h-1.94C126.13,71.62,124.42,69.67,124.42,66.21Z"/>
      <path class="cls-3" d="M220.06,71.62H218c-2.83,0-4.57-1.53-5.44-4.75l-.69-2.56H197l-.68,2.56c-.86,3.22-2.62,4.75-5.45,4.75h-2.06c-3.54,0-5.12-2.64-3.87-6.54L197,27.35c1-3.1,2.77-4.57,5.56-4.57h3.66c2.79,0,4.57,1.47,5.56,4.57l12.1,37.72C225.18,69,223.59,71.62,220.06,71.62ZM204.43,37.57l-4.75,17.18h9.53Z"/>
      <path class="cls-3" d="M235.23,47.07c0-14.91,8.09-24.73,20-24.73,7.35,0,12.76,2.23,15.93,7.7,2,3.39.87,5.65-2.58,6.68l-1.77.53c-2.63.78-4.24-.1-5.81-1.61a7.37,7.37,0,0,0-5.34-2.16c-5.26,0-8.64,5.41-8.64,13.75s3.29,13.56,8.56,13.56c4,0,6.77-2.8,7.19-7.94h-4.2c-2.83,0-4.41-1.77-4.41-5v-.07c0-3.11,1.72-4.85,4.84-4.85h11c3.06,0,4.93.85,4.93,3.78v1c0,15.23-7.49,24.26-19.87,24.26C243,72.06,235.23,62.31,235.23,47.07Z"/>
      <path class="cls-3" d="M321.3,71.62h-2.05c-2.84,0-4.58-1.53-5.45-4.75l-.69-2.56H298.29l-.69,2.56c-.85,3.22-2.61,4.75-5.44,4.75H290.1c-3.55,0-5.12-2.64-3.88-6.54l12.06-37.73c1-3.1,2.77-4.57,5.57-4.57h3.65c2.79,0,4.57,1.47,5.57,4.57l12.1,37.72C326.42,69,324.83,71.62,321.3,71.62ZM305.67,37.57l-4.74,17.18h9.52Z"/>
      <path class="cls-3" d="M339.39,65.94V28.47c0-3.69,1.7-5.69,4.85-5.69h2c3.14,0,4.85,2,4.85,5.69V65.94c0,3.68-1.71,5.68-4.85,5.68h-2C341.09,71.62,339.39,69.62,339.39,65.94Z"/>
      <path class="cls-3" d="M368,65.94V28.47c0-3.69,1.71-5.69,4.85-5.69h2.52c2.65,0,4.42,1.19,5.83,3.89l12.09,23.18V28.47c0-3.69,1.71-5.69,4.85-5.69h1.95c3.14,0,4.84,2,4.84,5.69V65.94c0,3.68-1.7,5.68-4.84,5.68h-2.48c-2.66,0-4.43-1.19-5.83-3.89l-12.1-23.19v21.4c0,3.68-1.71,5.68-4.85,5.68h-2C369.67,71.62,368,69.62,368,65.94Z"/>
    </g>
  </g>
</svg>
