<svg id="Layer_1" data-name="Layer 1" xmlns="http://www.w3.org/2000/svg" width="1350" height="940" viewBox="0 0 1350 940">
  <defs>
    <style>
      .cls-1 {
        fill: #d6baba;
      }

      .cls-2 {
        fill: #efe1e1;
      }

      .cls-3 {
        fill: #d6d4d4;
      }

      .cls-4 {
        fill: #f2f0f1;
      }

      .cls-5 {
        fill: #ea8b86;
      }

      .cls-6 {
        fill: #dadada;
      }

      .cls-7 {
        fill: #edebec;
      }

      .cls-8 {
        fill: #7dba74;
      }

      .cls-9 {
        fill: #6b6b6a;
      }

      .cls-10 {
        fill: #fddeb0;
      }

      .cls-11 {
        fill: #eba228;
      }

      .cls-12 {
        fill: #915234;
      }

      .cls-13, .cls-15, .cls-16 {
        fill: none;
        stroke-miterlimit: 10;
      }

      .cls-13 {
        stroke: #915334;
        stroke-width: 1.14px;
      }

      .cls-14 {
        fill: #fff;
      }

      .cls-15 {
        stroke: #585657;
      }

      .cls-15, .cls-16 {
        stroke-width: 4.57px;
      }

      .cls-16 {
        stroke: #575757;
      }

      .cls-17 {
        fill: #dda3ca;
      }

      .cls-18 {
        fill: #ee7a68;
      }

      .cls-19 {
        fill: #f5cfe4;
      }
    </style>
  </defs>
  <g>
    <rect class="cls-1" x="27.14" y="33.27" width="1321.14" height="913.2"/>
    <rect class="cls-2" x="7.72" y="9.53" width="1315.74" height="913.2"/>
  </g>
  <g>
    <rect class="cls-3" x="712.92" y="199.75" width="563.81" height="448.72"/>
    <rect class="cls-4" x="695.89" y="186.47" width="563.81" height="448.72"/>
  </g>
  <g>
    <path class="cls-5" d="M101.37,450.82l-57.55-3.26c-7.14-.4-10.8-3.89-10.45-9.95l.22-4c.35-6.06,4.37-9.11,11.51-8.71l45.25,2.56.48-8.59c.35-6.06,4.38-9.11,11.51-8.71l1.32.08c7.14.4,10.8,3.88,10.46,9.95l-1.24,21.94C112.54,448.17,108.51,451.22,101.37,450.82Z"/>
    <path class="cls-5" d="M104.82,403.37,49.15,388.45c-6.91-1.85-9.78-6-8.2-11.88L48,350.12c1.57-5.87,6.14-8,13-6.19l1.38.37c6.91,1.86,9.78,6,8.21,11.88L67,369.82l6.8,1.82,3.22-12c1.57-5.87,5.61-8.18,11.35-6.64l.1,0c5.85,1.57,8.18,5.58,6.61,11.45l-3.22,12,6.91,1.85,3.65-13.63c1.58-5.87,6.14-8,13-6.19l1.27.35c6.91,1.85,9.78,6,8.21,11.87l-7.09,26.46C116.29,403.06,111.73,405.22,104.82,403.37Z"/>
    <path class="cls-5" d="M128.36,338.81l-59.24-13c-7.73-1.73-10.69-6.81-7.37-12.77l2.45-4.41c2.68-4.82,7.06-6.34,13.22-4.52l38.24,11.13-29.6-26.65c-4.8-4.27-5.81-8.79-3.13-13.62l2.46-4.41c3.32-6,9.24-6.19,14.74-.46l42.24,43.53c4.42,4.5,5.24,8.91,2.6,13.65l-3.64,6.53C138.7,338.57,134.51,340.2,128.36,338.81Z"/>
    <path class="cls-5" d="M154.6,291.82l-41.91-39.56c-5.2-4.91-5.76-9.93-1.58-14.35L129.91,218c4.17-4.42,9.22-4.15,14.42.76l1,1c5.19,4.91,5.75,9.93,1.58,14.35l-9.69,10.26,5.12,4.83,8.53-9c4.17-4.42,8.82-4.53,13.14-.45l.08.07c4.4,4.16,4.55,8.8.38,13.22L156,262l5.2,4.91,9.69-10.27c4.18-4.41,9.22-4.15,14.42.76l1,.9c5.2,4.91,5.75,9.93,1.58,14.35L169,292.58C164.85,297,159.8,296.73,154.6,291.82Z"/>
    <path class="cls-5" d="M193.94,252.63l-33.15-47.15c-4.12-5.85-3.65-10.88,1.32-14.38l3.28-2.31c5-3.5,9.86-2.23,14,3.62l26.07,37.07,7-4.95c5-3.49,9.86-2.23,14,3.62l.76,1.08c4.11,5.85,3.65,10.88-1.32,14.38l-18,12.64C203,259.74,198.06,258.48,193.94,252.63Z"/>
    <path class="cls-5" d="M244.7,188.2c-6.73-23.59,1.73-42.65,20.88-48.12,12.58-3.59,24.57-.09,32.89,10.35,4.81,6.29,4.31,11.35-1.23,14.08l-3.32,1.63c-5.51,2.83-8.15,2.78-11.49,0-3.87-3.35-6.84-4.22-10.44-3.2-5.66,1.62-7.5,9.13-4.72,18.86s8.36,15,13.93,13.4c3.6-1,5.57-3.3,7-7.93,1.19-4,4.16-5.88,9.91-6.49l3.69-.37c6.8-.68,9.36,4.19,7.64,14.52-1.71,11.36-10,19.54-21.66,22.87C268.25,223.33,251.56,212.21,244.7,188.2Z"/>
    <path class="cls-5" d="M318.19,168.9c0-28.38,15.43-40.42,32.63-40.42,16.92,0,32.44,12.05,32.44,40.43,0,28.93-15.43,40.36-32.63,40.35S318.19,197.83,318.19,168.9Zm42.44-.1c0-11.22-4.3-17.27-10-17.27-6,0-10.1,6.05-10.1,17.27,0,11.88,4.11,17.6,10.1,17.6C356.33,186.4,360.63,180.68,360.63,168.8Z"/>
    <path class="cls-5" d="M388.58,195.84l24.21-52.78c2.85-6.12,7.17-8.38,12.66-6.53l10.1,3.4c5.31,1.8,7.48,5.89,6.56,12.43l-5.93,42.46,21-37.38c3.23-5.76,7.43-7.71,12.75-5.92l10.1,3.4c5.49,1.86,7.56,6.27,6.12,12.86l-12.69,56.67c-1.68,7.32-6,10.27-12.05,8.24l-3.72-1.26c-5.49-1.85-7.52-6.36-5.88-13l8.33-33.76-18,31.42c-3.28,5.63-7.48,7.58-12.8,5.79l-4.07-1.37c-5.32-1.8-7.49-5.89-6.69-12.36l4.7-35.91-13.81,31.91c-2.71,6.29-7.06,8.65-12.55,6.8l-3.72-1.25C387.16,207.66,385.49,202.69,388.58,195.84Z"/>
    <path class="cls-5" d="M479.5,231.64,514,185.47c4.28-5.73,9.21-6.85,14.08-3.21l10.63,7.94c21.27,15.89,20.34,29.62,8,46.19s-24.82,20.72-45.86,5l-.15-.12-3,4c-4.28,5.73-9.21,6.85-14.08,3.21l-3.21-2.4C475.54,242.41,475.22,237.37,479.5,231.64Zm37.81-5.93c4.5,3.35,8.29.15,11.06-3.55s4.56-8,.07-11.34l-3.22-2.41L514.09,223.3Z"/>
    <path class="cls-5" d="M529.27,271.57l43.85-37.41c5.44-4.64,10.5-4.64,14.44,0l2.61,3.06c3.94,4.62,3.14,9.61-2.3,14.25l-34.49,29.41L559,287.4c3.95,4.63,3.14,9.61-2.3,14.25l-1,.86c-5.44,4.64-10.5,4.65-14.44,0L527,285.82C523,281.2,523.83,276.21,529.27,271.57Z"/>
    <path class="cls-5" d="M559.54,308.24l50.51-27.77c6.27-3.44,11.22-2.43,14.15,2.89l13.2,24c2.93,5.32,1.13,10-5.14,13.49l-1.25.69c-6.26,3.44-11.22,2.43-14.14-2.9l-6.81-12.36-6.17,3.39,6,10.89c2.92,5.33,1.61,9.78-3.6,12.65l-.09,0c-5.3,2.91-9.77,1.64-12.7-3.69l-6-10.89-6.27,3.44,6.81,12.37c2.93,5.33,1.13,10.05-5.14,13.49l-1.15.64c-6.27,3.45-11.22,2.43-14.15-2.89l-13.2-24C551.48,316.41,553.28,311.69,559.54,308.24Z"/>
    <path class="cls-5" d="M587.42,365.6l43.31-13-1-3.4c-1.74-5.82,1-10.06,7.86-12.11l1.37-.41c6.85-2.05,11.48,0,13.22,5.81l8.48,28.4c1.74,5.82-1,10.06-7.86,12.1l-1.37.41c-6.85,2.05-11.48,0-13.22-5.8l-1-3.32L593.9,387.28c-6.86,2.05-11.48,0-13.22-5.81l-1.13-3.76C577.81,371.89,580.57,367.65,587.42,365.6Z"/>
    <path class="cls-5" d="M598.6,406.35l57.47-4.48c7.13-.55,11.22,2.41,11.69,8.47l2.12,27.31c.48,6.06-3.11,9.62-10.24,10.17l-1.42.11c-7.13.56-11.22-2.4-11.69-8.46l-1.1-14.08-7,.55,1,12.4c.47,6.06-2.57,9.57-8.49,10h-.11c-6,.48-9.57-2.53-10-8.59l-1-12.4-7.13.56,1.1,14.07c.47,6.06-3.12,9.62-10.24,10.18l-1.32.1c-7.13.56-11.22-2.41-11.69-8.47l-2.13-27.3C587.89,410.47,591.47,406.91,598.6,406.35Z"/>
  </g>
  <g>
    <circle class="cls-6" cx="349.04" cy="448.04" r="228.96"/>
    <circle class="cls-7" cx="349.04" cy="448.04" r="209.12"/>
  </g>
  <g>
    <path class="cls-8" d="M137.83,681.72l5.5-7.45,10.58-44c1.81-7.33,6.77-9.61,12.21-5.6l3.67,2.71c4,3,5.16,6.9,3.45,12.32l-6.65,20.84,18-12.44c4.61-3.16,8.77-3.31,12.79-.34l3.89,2.87c5.43,4,4.72,9.55-1.76,13.31l-39.11,23-5.14,7c-3.85,5.21-8.39,6.18-13,2.8l-3-2.19C134.75,691.08,134.28,686.53,137.83,681.72Z"/>
    <path class="cls-8" d="M189.25,686.31C200,663,217.69,659.1,232.36,665.85c14.44,6.63,23.12,22.62,12.39,46-10.93,23.8-28.41,27.15-43.08,20.41S178.32,710.1,189.25,686.31Zm36.25,16.54c4.24-9.23,2.86-15.89-2-18.12-5.1-2.35-10.9,1-15.14,10.24-4.49,9.78-3.14,16.09,2,18.44C215.18,715.64,221,712.62,225.5,702.85Z"/>
    <path class="cls-8" d="M254.5,717.74l5.95-28.46c1.32-6.34,5-9.12,10.63-7.95l3.69.77c5.59,1.17,7.88,5.21,6.56,11.54L275.4,722c-1.83,8.78-1,12.82,3.83,13.83s7.31-2.34,9.12-11l5.95-28.46c1.32-6.33,5-9.11,10.63-8l3.86.81c5.59,1.17,7.88,5.21,6.56,11.54l-6,28.66c-4.66,22.32-15.86,30.85-34.42,27S249.76,740.45,254.5,717.74Z"/>
    <path class="cls-8" d="M362.4,755.85l-21-50.31c-2.71-6.58-.4-11.29,5.87-12.1l4.61-.6c5.23-.67,8.82,1.78,10.69,7.36L372.39,729l2.2-30.3c.4-5.88,3.25-9.16,8.47-9.83l1-.12c5.22-.68,8.82,1.87,10.69,7.45l9.71,28.67,2.29-30.31c.48-5.89,3.25-9.15,8.47-9.83l4.7-.6c6.27-.81,9.78,3.06,8.75,10.21l-7.65,54c-.76,5.72-3.73,8.81-8.78,9.46l-4.09.53c-5.22.67-8.81-1.78-10.69-7.46l-9.55-28.08-2.12,29.59c-.38,6-3.23,9.25-8.46,9.92l-4,.52C368.24,763.43,364.59,761.19,362.4,755.85Z"/>
    <path class="cls-8" d="M437.84,715.72c-9.33-23.93.2-39.35,15.24-45.22,14.8-5.77,32.34-.91,41.67,23,9.52,24.4-.21,39.3-15.26,45.16S447.36,740.12,437.84,715.72Zm37.09-14.57c-3.69-9.46-9.44-13.1-14.43-11.15-5.24,2-6.84,8.54-3.15,18,3.9,10,9.38,13.44,14.62,11.4C477,717.46,478.84,711.17,474.93,701.15Z"/>
    <path class="cls-8" d="M519.17,709.79l-28.66-43.6c-3.55-5.41-2.9-10,1.87-13.14l3.74-2.46c4-2.65,7.89-2.69,12.55.09l25.28,15L521.1,646.09c-3.56-5.41-2.91-10,1.86-13.14l3.08-2c4.77-3.13,9.25-1.9,12.8,3.5L567.5,678c3.56,5.41,2.9,10-1.86,13.14l-3.74,2.46c-4,2.65-7.9,2.68-12.56-.09l-25.15-14.93L537,698.08c3.56,5.41,2.9,10-1.86,13.14L532,713.3C527.21,716.43,522.72,715.2,519.17,709.79Z"/>
    <path class="cls-8" d="M575.65,648.37c-3.4,3-7.57,2.5-12.19-1.66l-19.29-17.34c-5.06-4.55-5.34-9.39-.89-13.37l3.66-3.28c4.39-3.92,9.21-3.15,13.19,2.37l15.17,21c3.62,5,3.75,9.2.35,12.24Zm2.65,19.81c-4.85-5.42-3.84-11.27,1.07-15.66,4.45-4,10.83-4.74,15.68.68s3.38,11.67-1.07,15.65C589.07,673.24,583.21,673.67,578.3,668.18Z"/>
  </g>
  <g>
    <path class="cls-5" d="M801.33,245.85v-5.59L792,218.63c-1.26-2.92-.19-5,2.57-5h1.86c2,0,3.29,1.05,4.15,3.26l5,12.88,5.08-12.88c.87-2.21,2.13-3.26,4.15-3.26h1.92c2.77,0,3.89,2.09,2.63,5L810,240.26v5.38c0,2.74-1.26,4.22-3.59,4.22h-1.44C802.6,249.86,801.33,248.41,801.33,245.85Z"/>
    <path class="cls-5" d="M818.94,235.56c0-10.3,6.39-14.67,12.9-14.67s12.86,4.37,12.86,14.67-6.33,14.71-12.91,14.71S818.94,246,818.94,235.56Zm17.5,0c0-4.4-2-6.92-4.63-6.92s-4.65,2.5-4.65,6.92,2,7,4.66,7S836.44,240,836.44,235.53Z"/>
    <path class="cls-5" d="M873.2,225.51v20.17c0,2.73-1.26,4.22-3.59,4.22h-1.1c-2.32,0-3.58-1.48-3.59-4a7.58,7.58,0,0,1-7.06,4.3c-6.36,0-9.06-3.93-9.06-12.95V225.51c0-2.73,1.27-4.22,3.59-4.22h1.1c2.33,0,3.59,1.49,3.59,4.22v10.8c0,4.19,1.23,6,3.94,6s3.9-2,3.9-6.24v-10.6c0-2.73,1.26-4.22,3.59-4.22h1.1C871.94,221.29,873.2,222.78,873.2,225.51Z"/>
    <path class="cls-5" d="M929.13,234.18v11.46c0,2.74-1.26,4.22-3.59,4.22h-1.1c-2.32,0-3.59-1.48-3.59-4.22v-10.5c0-4.69-.92-6.36-3.5-6.36s-3.59,1.7-3.59,6v10.87c0,2.74-1.26,4.22-3.59,4.22h-1.1c-2.33,0-3.59-1.48-3.59-4.22V235.16c0-4.76-.86-6.36-3.42-6.36s-3.59,1.81-3.59,6.48v10.36c0,2.74-1.26,4.22-3.59,4.22h-1.1c-2.33,0-3.59-1.48-3.59-4.22V225.47c0-2.73,1.26-4.21,3.59-4.21h1.1c2.27,0,3.53,1.25,3.59,3.63,1-2.44,3.54-4,6.74-4,3.8,0,5.86,1.49,7.24,5.32a8.88,8.88,0,0,1,8.13-5.34C926.63,220.89,929.13,224.63,929.13,234.18Z"/>
    <path class="cls-5" d="M943.36,250.27c-6.09,0-10.13-5.39-10.13-14.71s4-14.67,10.11-14.67a7.62,7.62,0,0,1,7.16,4.77v-.55c0-2.6,1.34-3.85,3.61-3.85h1.09c2.33,0,3.59,1.48,3.59,4.21v20.12c0,2.74-1.26,4.22-3.59,4.22H954.1c-2.25,0-3.65-1.2-3.61-3.7v-.47a7.63,7.63,0,0,1-7.14,4.63Zm7.42-14.74c0-4.23-1.86-6.91-4.65-6.91s-4.65,2.7-4.65,6.91,1.87,7,4.68,7S950.78,239.8,950.78,235.53Z"/>
    <path class="cls-5" d="M963.27,235.56c0-9.34,4-14.67,10.11-14.67a7.61,7.61,0,0,1,7.16,4.77v-9.49c0-2.73,1.27-4.21,3.6-4.21h1.09c2.33,0,3.6,1.48,3.6,4.21v29.42c0,2.74-1.27,4.22-3.6,4.22h-1.09c-2.24,0-3.6-1.21-3.6-3.22v-1a7.63,7.63,0,0,1-7.14,4.63C967.32,250.27,963.27,244.88,963.27,235.56Zm17.55,0c0-4.23-1.84-6.92-4.65-6.92s-4.65,2.71-4.65,6.92,1.87,7,4.68,7S980.82,239.8,980.82,235.53Z"/>
    <path class="cls-5" d="M993.31,235.56c0-8.8,5.18-14.67,12.7-14.67,7.1,0,11.65,4.61,12.24,12.49.22,2.81-1,4.21-3.59,4.21h-13.07c.06,3.77,2,6,5.13,6a5.84,5.84,0,0,0,4.17-1.68c1.22-1.09,1.91-1.65,3.69-1.16l.66.18c2.43.68,2.76,2.29,1.14,4.56-2,2.88-5.55,4.71-10.19,4.71C998.4,250.23,993.31,244.54,993.31,235.56Zm12.93-8.52c-2.48,0-4.31,1.82-4.55,5h9C1010.56,229,1008.79,227,1006.24,227Z"/>
    <path class="cls-5" d="M1050.13,225.25l-.07.71c-.24,2.56-1.51,3.3-3.64,3.88-2.43.67-3.79,2.82-3.79,7.24v8.56c0,2.74-1.26,4.22-3.59,4.22h-1.1c-2.32,0-3.59-1.48-3.59-4.22V225.47c0-2.73,1.27-4.21,3.59-4.21h1.1c2.33,0,3.59,1.18,3.59,3.77.66-1.92,2.2-4,4.9-4C1049.57,221,1050.38,222.31,1050.13,225.25Z"/>
    <path class="cls-5" d="M1062,250.27c-6.08,0-10.12-5.39-10.12-14.71s4-14.67,10.11-14.67a7.62,7.62,0,0,1,7.16,4.77v-.55c0-2.6,1.33-3.85,3.6-3.85h1.1c2.33,0,3.59,1.48,3.59,4.21v20.12c0,2.74-1.26,4.22-3.59,4.22h-1.1c-2.24,0-3.64-1.2-3.6-3.7v-.47a7.63,7.63,0,0,1-7.15,4.63Zm7.42-14.74c0-4.23-1.85-6.91-4.64-6.91s-4.65,2.7-4.65,6.91,1.87,7,4.67,7S1069.41,239.8,1069.41,235.53Z"/>
    <path class="cls-5" d="M1121.7,234.18v11.46c0,2.74-1.26,4.22-3.59,4.22H1117c-2.33,0-3.6-1.48-3.6-4.22v-10.5c0-4.69-.92-6.36-3.5-6.36s-3.59,1.7-3.59,6v10.87c0,2.74-1.26,4.22-3.59,4.22h-1.1c-2.32,0-3.59-1.48-3.59-4.22V235.16c0-4.76-.86-6.36-3.42-6.36s-3.59,1.81-3.59,6.48v10.36c0,2.74-1.26,4.22-3.59,4.22h-1.1c-2.33,0-3.59-1.48-3.59-4.22V225.47c0-2.73,1.26-4.21,3.59-4.21h1.1c2.27,0,3.53,1.25,3.59,3.63,1-2.44,3.54-4,6.75-4,3.79,0,5.86,1.49,7.24,5.32a8.87,8.87,0,0,1,8.13-5.34C1119.21,220.89,1121.7,224.63,1121.7,234.18Z"/>
    <path class="cls-5" d="M1125.8,235.56c0-8.8,5.18-14.67,12.7-14.67,7.1,0,11.64,4.61,12.24,12.49.21,2.81-1,4.21-3.59,4.21h-13.07c.05,3.77,2,6,5.13,6a5.84,5.84,0,0,0,4.17-1.68c1.22-1.09,1.91-1.65,3.69-1.16l.66.18c2.43.68,2.76,2.29,1.14,4.56-2,2.88-5.56,4.71-10.19,4.71C1130.89,250.23,1125.8,244.54,1125.8,235.56Zm12.93-8.52c-2.48,0-4.32,1.82-4.55,5h9C1143,229,1141.28,227,1138.73,227Z"/>
    <path class="cls-5" d="M1179.6,233.88v11.76c0,2.74-1.26,4.22-3.59,4.22h-1.09c-2.33,0-3.6-1.48-3.6-4.22v-10.8c0-4.19-1.22-6-3.93-6s-3.9,2-3.9,6.25v10.59c0,2.74-1.27,4.22-3.6,4.22h-1.09c-2.33,0-3.6-1.48-3.6-4.22V225.47c0-2.73,1.27-4.21,3.6-4.21h1.09c2.32,0,3.58,1.47,3.6,4a7.58,7.58,0,0,1,7.06-4.32C1176.9,220.91,1179.6,224.86,1179.6,233.88Z"/>
    <path class="cls-5" d="M907.43,295.64V267.87c0-2.73,1.26-4.21,3.59-4.21h1.47c2.33,0,3.59,1.48,3.59,4.21v9.35h8.76v-9.35c0-2.73,1.26-4.21,3.59-4.21h1.47c2.33,0,3.59,1.48,3.59,4.21v27.77c0,2.74-1.26,4.22-3.59,4.22h-1.47c-2.33,0-3.59-1.48-3.59-4.22V286.1h-8.76v9.54c0,2.74-1.26,4.22-3.59,4.22H911C908.69,299.86,907.43,298.38,907.43,295.64Z"/>
    <path class="cls-5" d="M963.69,299.86h-1.52c-2.1,0-3.39-1.14-4-3.52l-.51-1.9h-11l-.5,1.9c-.64,2.38-1.94,3.52-4,3.52h-1.53c-2.63,0-3.79-2-2.87-4.85l8.94-28c.73-2.3,2-3.38,4.12-3.38h2.71c2.07,0,3.39,1.09,4.13,3.38l9,28C967.49,297.9,966.31,299.86,963.69,299.86Zm-11.58-25.24-3.52,12.73h7.06Z"/>
    <path class="cls-5" d="M970.71,295.64V267.87c0-2.73,1.26-4.21,3.59-4.21h6.11c11.47,0,15.19,4.62,15.19,14s-3.72,13.82-15.09,13.82h-1.15v4.11c0,2.74-1.26,4.22-3.59,4.22H974.3C972,299.86,970.71,298.38,970.71,295.64Zm16.06-18.1c0-3.26-1.26-5.2-4.85-5.2h-2.56v10.52h2.56C985.51,282.86,986.77,280.85,986.77,277.54Z"/>
    <path class="cls-5" d="M999.85,295.64V267.87c0-2.73,1.27-4.21,3.6-4.21h6.1c11.48,0,15.19,4.62,15.19,14s-3.71,13.82-15.09,13.82h-1.14v4.11c0,2.74-1.26,4.22-3.59,4.22h-1.47C1001.12,299.86,999.85,298.38,999.85,295.64Zm16.06-18.1c0-3.26-1.26-5.2-4.84-5.2h-2.56v10.52h2.56C1014.65,282.86,1015.91,280.85,1015.91,277.54Z"/>
    <path class="cls-5" d="M1036,295.85v-5.59l-9.33-21.63c-1.26-2.92-.19-5,2.57-5h1.86c2,0,3.29,1,4.15,3.26l5,12.88,5.08-12.88c.87-2.21,2.13-3.26,4.16-3.26h1.91c2.77,0,3.89,2.09,2.63,5l-9.44,21.63v5.38c0,2.74-1.26,4.22-3.59,4.22h-1.44C1037.25,299.86,1036,298.41,1036,295.85Z"/>
    <path class="cls-5" d="M1057.23,295.65c0-3.1,1.92-4.72,4.62-4.72a4.73,4.73,0,0,1,0,9.45C1059.15,300.38,1057.23,298.78,1057.23,295.65Zm1.42-11.8-1.26-15.75c-.23-2.86,1-4.44,3.42-4.44h2c2.4,0,3.65,1.58,3.43,4.44L1065,283.85c-.2,2.63-1.31,4-3.18,4S1058.86,286.49,1058.65,283.85Z"/>
  </g>
  <g>
    <path class="cls-9" d="M790.32,417.23v-6.52l-12-29.33c-2-4.9-.18-8.26,4.42-8.26h3.1c3.4,0,5.61,1.75,6.86,5.53l4.77,14.56,4.84-14.56c1.25-3.71,3.46-5.53,6.86-5.53h3.28c4.59,0,6.44,3.43,4.41,8.26l-12.11,29.33v6.1c0,4.55-2.09,7-6,7h-2.5C792.41,423.81,790.32,421.43,790.32,417.23Z"/>
    <path class="cls-9" d="M819.06,398.53c0-18.06,9.84-25.72,20.82-25.72,10.8,0,20.7,7.66,20.7,25.72,0,18.42-9.84,25.69-20.82,25.69S819.06,417,819.06,398.53Zm27.08-.07c0-7.14-2.74-11-6.38-11-3.82,0-6.45,3.85-6.45,11,0,7.56,2.63,11.2,6.45,11.2C843.4,409.66,846.14,406,846.14,398.46Z"/>
    <path class="cls-9" d="M866.54,400.56V380.12c0-4.55,2.09-7,6-7h2.57c3.87,0,6,2.45,6,7v20.37c0,6.3,1.13,9,4.48,9s4.53-2.66,4.53-8.89V380.12c0-4.55,2.09-7,6-7h2.68c3.88,0,6,2.45,6,7V400.7c0,16-6.27,23.52-19.15,23.52S866.54,416.87,866.54,400.56Z"/>
    <path class="cls-9" d="M928.53,416.81V380.12c0-4.55,2.09-7,6-7H952c3.87,0,6,2.45,6,7V381c0,4.55-2.09,7-6,7h-9v4.48h7.93c3.88,0,6,2.1,6,5.88v.07c0,3.85-2.09,6-6,6H943V409h9c3.87,0,6,2.45,6,7v.85c0,4.55-2.09,7-6,7H934.5C930.62,423.81,928.53,421.36,928.53,416.81Z"/>
    <path class="cls-9" d="M1003.34,415.76c1.49,4.83-.48,8.05-4.83,8.05h-2.57c-3.52,0-5.66-1.89-6.62-5.95l-.13-.57H977l-.13.57c-1,4.06-3.1,5.95-6.62,5.95h-2.62c-4.36,0-6.27-3.22-4.84-8.05l11.16-37c1.13-3.85,3.34-5.67,6.8-5.67h4.65c3.46,0,5.67,1.82,6.81,5.67l11.15,37Zm-16.87-9.95-3.41-14.42-3.39,14.42Z"/>
    <path class="cls-9" d="M1043.91,415.55c2.17,5.37.89,8.26-4.48,8.26h-2.68c-3.46,0-5.65-1.83-6.8-5.6l-2.78-9h-3.25v7.63c0,4.55-2.09,7-6,7h-2.63c-3.88,0-6-2.45-6-7V380.12c0-4.55,2.09-7,6-7h11.28c15.15,0,18.49,7.35,18.49,17.64,0,5.25-1.56,10.52-5.53,14.07Zm-17.66-17.85c3.58,0,4.29-2.66,4.29-5.4s-.71-5.18-4.29-5.18h-2.39V397.7Z"/>
    <path class="cls-9" d="M1051.9,416.81V380.12c0-4.55,2.09-7,6-7h3c3.28,0,5.49,1.47,7.1,4.9l8.77,18.55V380.12c0-4.55,2.09-7,6-7h2.5c3.88,0,6,2.45,6,7v36.69c0,4.55-2.09,7-6,7h-3c-3.28,0-5.49-1.47-7.1-4.9l-8.71-18.49v16.39c0,4.55-2.09,7-6,7h-2.56C1054,423.81,1051.9,421.36,1051.9,416.81Z"/>
    <path class="cls-9" d="M1099.57,416.81V380.12c0-4.55,2.09-7,6-7H1123c3.88,0,6,2.45,6,7V381c0,4.55-2.08,7-6,7h-9v4.48h7.93c3.88,0,6,2.1,6,5.88v.07c0,3.85-2.09,6-6,6H1114V409h9c3.88,0,6,2.45,6,7v.85c0,4.55-2.08,7-6,7h-17.48C1101.66,423.81,1099.57,421.36,1099.57,416.81Z"/>
    <path class="cls-9" d="M1136.14,416.81V380.12c0-4.55,2.09-7,6-7h8.23c17.36,0,23.69,9.59,23.69,25.41,0,15.41-6.33,25.28-23.69,25.28h-8.23C1138.23,423.81,1136.14,421.36,1136.14,416.81ZM1151,409c7.46,0,8.41-4,8.41-10.57s-1-10.57-8.53-10.57h-.3V409Z"/>
    <path class="cls-9" d="M1178.8,390.62c0-5.11,3.16-7.7,7.64-7.7a7.25,7.25,0,0,1,7.63,7.7c0,5.18-3.58,7.7-7.63,7.7C1182,398.32,1178.8,395.8,1178.8,390.62Zm0,26.19c0-5.11,3.16-7.71,7.64-7.71a7.26,7.26,0,0,1,7.63,7.71c0,5.18-3.58,7.7-7.63,7.7C1182,424.51,1178.8,422,1178.8,416.81Z"/>
  </g>
  <g>
    <g>
      <ellipse class="cls-10" cx="409.59" cy="457.06" rx="40.51" ry="64.25" transform="translate(-165.28 671.98) rotate(-68.63)"/>
      <ellipse class="cls-11" cx="409.59" cy="457.06" rx="36.87" ry="58.48" transform="translate(-165.28 671.98) rotate(-68.63)"/>
      <ellipse class="cls-10" cx="409.59" cy="457.06" rx="33.06" ry="52.44" transform="translate(-165.28 671.98) rotate(-68.63)"/>
      <ellipse class="cls-11" cx="409.59" cy="457.06" rx="29.69" ry="46.29" transform="translate(-165.28 671.98) rotate(-68.63)"/>
      <ellipse class="cls-10" cx="409.59" cy="457.06" rx="25.44" ry="41.9" transform="translate(-165.28 671.98) rotate(-68.63)"/>
      <ellipse class="cls-11" cx="409.59" cy="457.06" rx="21.43" ry="36.41" transform="translate(-165.28 671.98) rotate(-68.63)"/>
      <ellipse class="cls-10" cx="409.59" cy="457.06" rx="17.57" ry="29.85" transform="translate(-165.28 671.98) rotate(-68.63)"/>
      <ellipse class="cls-11" cx="409.59" cy="457.06" rx="13.81" ry="24.02" transform="translate(-165.28 671.98) rotate(-68.63)"/>
      <ellipse class="cls-10" cx="409.59" cy="457.06" rx="10.48" ry="18.22" transform="translate(-165.28 671.98) rotate(-68.63)"/>
    </g>
    <g>
      <g>
        <path class="cls-12" d="M465.61,307a1.71,1.71,0,0,1,.06-.95c.46-1.21,2.23-1.78,4-1.27s2.78,1.92,2.33,3.13a1.85,1.85,0,0,1-.44.68,3.65,3.65,0,0,1-3.51.59A3.3,3.3,0,0,1,465.61,307Z"/>
        <path class="cls-12" d="M471.52,308.54l-2.79,6.3h0l-5.38-2.33,2.27-5.56a3.3,3.3,0,0,0,2.4,2.18A3.65,3.65,0,0,0,471.52,308.54Z"/>
        <polygon class="cls-12" points="468.73 314.84 468.09 316.3 468.07 316.29 463.03 314.19 462.7 314.05 463.33 312.51 463.34 312.51 468.72 314.84 468.73 314.84"/>
        <polygon class="cls-12" points="468.09 316.3 405.26 458.6 403.9 458.04 462.7 314.05 463.03 314.19 468.07 316.29 468.09 316.3"/>
      </g>
      <g>
        <polyline class="cls-13" points="463.33 312.51 462.7 314.05 403.9 458.04 403.73 458.45"/>
        <polyline class="cls-13" points="465.63 306.88 465.61 306.95 463.34 312.51"/>
        <polyline class="cls-13" points="471.52 308.54 468.73 314.84 468.09 316.3 405.26 458.6"/>
        <path class="cls-13" d="M465.61,307a1.71,1.71,0,0,1,.06-.95c.46-1.21,2.23-1.78,4-1.27s2.78,1.92,2.33,3.13a1.85,1.85,0,0,1-.44.68,3.65,3.65,0,0,1-3.51.59A3.3,3.3,0,0,1,465.61,307Z"/>
        <polyline class="cls-13" points="463.33 312.51 463.34 312.51 468.72 314.84"/>
        <line class="cls-13" x1="463.03" y1="314.19" x2="468.07" y2="316.29"/>
      </g>
    </g>
    <g>
      <g>
        <path class="cls-12" d="M488.08,315.37a1.7,1.7,0,0,1,.19-.93c.62-1.13,2.45-1.44,4.1-.69s2.48,2.28,1.87,3.42a1.64,1.64,0,0,1-.54.6h0a3.64,3.64,0,0,1-3.56.09A3.26,3.26,0,0,1,488.08,315.37Z"/>
        <path class="cls-12" d="M493.7,317.78l-3.63,5.84h0l-5-3.06,3-5.19a3.26,3.26,0,0,0,2.06,2.5A3.64,3.64,0,0,0,493.7,317.78Z"/>
        <polygon class="cls-12" points="490.07 323.62 489.22 324.99 489.21 324.98 484.5 322.19 484.2 322.02 485.04 320.56 485.06 320.56 490.06 323.62 490.07 323.62"/>
        <polygon class="cls-12" points="489.22 324.99 407.14 457.13 405.87 456.39 484.2 322.02 484.5 322.19 489.21 324.98 489.22 324.99"/>
      </g>
      <g>
        <polyline class="cls-13" points="485.04 320.56 484.2 322.02 405.87 456.39 405.66 456.76"/>
        <polyline class="cls-13" points="488.11 315.31 488.08 315.37 485.06 320.56"/>
        <polyline class="cls-13" points="493.7 317.78 490.07 323.62 489.22 324.99 407.14 457.13"/>
        <path class="cls-13" d="M488.08,315.37a1.7,1.7,0,0,1,.19-.93c.62-1.13,2.45-1.44,4.1-.69s2.48,2.28,1.87,3.42a1.64,1.64,0,0,1-.54.6h0a3.64,3.64,0,0,1-3.56.09A3.26,3.26,0,0,1,488.08,315.37Z"/>
        <polyline class="cls-13" points="485.04 320.56 485.06 320.56 490.06 323.62"/>
        <line class="cls-13" x1="484.5" y1="322.19" x2="489.21" y2="324.98"/>
      </g>
    </g>
    <g>
      <circle class="cls-10" cx="263.18" cy="448.52" r="60.71"/>
      <circle class="cls-11" cx="263.18" cy="448.52" r="55.26"/>
      <circle class="cls-10" cx="263.18" cy="448.52" r="49.55"/>
      <ellipse class="cls-11" cx="263.18" cy="448.52" rx="43.74" ry="44.5"/>
      <ellipse class="cls-10" cx="263.18" cy="448.52" rx="39.59" ry="38.12"/>
      <ellipse class="cls-11" cx="263.18" cy="448.52" rx="34.4" ry="32.12"/>
      <ellipse class="cls-10" cx="263.18" cy="448.52" rx="28.2" ry="26.34"/>
      <ellipse class="cls-11" cx="263.18" cy="448.52" rx="22.7" ry="20.7"/>
      <ellipse class="cls-10" cx="263.18" cy="448.52" rx="17.22" ry="15.7"/>
    </g>
    <g>
      <ellipse class="cls-10" cx="327.71" cy="455.88" rx="81.53" ry="53.75"/>
      <ellipse class="cls-11" cx="327.71" cy="455.88" rx="74.21" ry="48.92"/>
      <ellipse class="cls-10" cx="327.71" cy="455.88" rx="66.53" ry="43.86"/>
      <ellipse class="cls-11" cx="327.71" cy="455.88" rx="58.73" ry="39.39"/>
      <ellipse class="cls-10" cx="327.71" cy="455.88" rx="53.17" ry="33.75"/>
      <ellipse class="cls-11" cx="327.71" cy="455.88" rx="46.19" ry="28.44"/>
      <ellipse class="cls-10" cx="327.71" cy="455.88" rx="37.87" ry="23.32"/>
      <ellipse class="cls-11" cx="327.71" cy="455.88" rx="30.48" ry="18.33"/>
      <ellipse class="cls-10" cx="327.71" cy="455.88" rx="23.12" ry="13.9"/>
    </g>
    <path class="cls-14" d="M496,439.51c-.15,2.39-.33,4.74-.57,7.06q-.37,4-.92,7.86c-.2,1.39-.4,2.77-.62,4.13-.43,2.67-.92,5.28-1.46,7.86-9.95,47.79-37.7,81.12-72.48,100v25.07H271.85V566.41c-34.78-18.87-62.54-52.19-72.5-100-.53-2.58-1-5.2-1.45-7.86-.23-1.36-.43-2.74-.62-4.13q-.54-3.87-.92-7.86c-.24-2.32-.42-4.67-.57-7.05H496Z"/>
    <polyline class="cls-15" points="316.5 496.97 300.11 479.87 282.79 497.12"/>
    <polyline class="cls-16" points="406.55 496.97 390.16 479.87 372.85 497.12"/>
    <path class="cls-17" d="M322.21,526.17c1.72,13.44,11.32,23.74,23,23.74s21.24-10.3,23-23.74Z"/>
    <path class="cls-18" d="M497.21,438.45q-.37,7-.93,13.85H195.67q-.54-6.81-.93-13.85Z"/>
    <ellipse class="cls-19" cx="299.65" cy="511.98" rx="11.57" ry="7.35"/>
    <ellipse class="cls-19" cx="389.7" cy="511.98" rx="11.57" ry="7.35"/>
    <rect class="cls-6" x="271.64" y="565.6" width="147.92" height="3.37"/>
  </g>
</svg>
