<svg id="Layer_1" data-name="Layer 1" xmlns="http://www.w3.org/2000/svg" width="1350" height="940" viewBox="0 0 1350 940">
  <defs>
    <style>
      .cls-1 {
        fill: #d6baba;
      }

      .cls-2 {
        fill: #efe1e1;
      }

      .cls-3 {
        fill: #d6d4d4;
      }

      .cls-4 {
        fill: #f2f0f1;
      }

      .cls-5 {
        fill: #ea8b86;
      }

      .cls-6 {
        fill: #dadada;
      }

      .cls-7 {
        fill: #edebec;
      }

      .cls-8 {
        fill: #af3c02;
      }

      .cls-9 {
        fill: #fddeb0;
      }

      .cls-10 {
        fill: #eba228;
      }

      .cls-11 {
        fill: #fff;
      }

      .cls-12 {
        fill: #ee7a68;
      }

      .cls-13 {
        fill: #f5cfe4;
      }

      .cls-14 {
        fill: #dda4ca;
      }

      .cls-15 {
        fill: #585657;
      }

      .cls-16 {
        fill: #915234;
      }

      .cls-17 {
        fill: none;
        stroke: #915334;
        stroke-miterlimit: 10;
        stroke-width: 1.29px;
      }

      .cls-18 {
        fill: #6b6b6a;
      }
    </style>
  </defs>
  <g>
    <rect class="cls-1" x="24.14" y="25.27" width="1321.14" height="913.2"/>
    <rect class="cls-2" x="4.72" y="1.53" width="1315.74" height="913.2"/>
  </g>
  <g>
    <rect class="cls-3" x="719.79" y="199.75" width="563.81" height="448.72"/>
    <rect class="cls-4" x="702.76" y="186.47" width="563.81" height="448.72"/>
  </g>
  <g>
    <path class="cls-5" d="M96,333.94C74.87,321.83,68,302,78.08,284.54c6.14-10.67,13.4-17,23.4-17.42,7.65-.3,10.17,3.5,8.5,10.59l-.88,3.74c-1.17,5.14-4.48,6.71-7.79,8.72a11,11,0,0,0-4.19,4.19c-3.43,6,.93,13.4,10.95,19.15s18.19,5.65,21.58-.24c2.12-3.7,1-7.92-3.1-11.17l-1.5,2.6c-2.75,4.8-7.16,5.84-12.31,2.88l-.1-.05c-5-2.9-6.22-7.49-3.08-12.95l8.26-14.38c3-5.3,6.16-7.87,11-5.07l1.52.88c21.75,12.49,28.15,30.7,17.62,49C137.8,342.78,117.5,346.33,96,333.94Z"/>
    <path class="cls-5" d="M203.27,240.91c7,3.81,8.17,9.68,3,14.57l-3,2.88c-4.14,3.95-8.72,4.21-14.24.67l-.77-.49L174,272.24l.45.78c3.28,5.69,2.81,10.24-1.33,14.19l-3.08,3c-5.12,4.89-10.86,3.37-14.42-3.72l-27-54.53c-2.84-5.65-2.22-10.19,1.84-14.07l5.47-5.23c4.07-3.88,8.64-4.29,14.15-1.19l53.23,29.49Zm-30.62,7.64L153,236l11.67,20.18Z"/>
    <path class="cls-5" d="M207.2,236.73l-17.84-55.29c-2-6.44-.28-11.08,5.21-13.54l10.09-4.51c5.31-2.38,9.8-.89,13.6,4.52L243,203l-9.69-41.82c-1.5-6.43.39-10.77,5.7-13.15l10.08-4.51c5.49-2.46,10.12-.67,13.56,5.14L292,198.79c3.77,6.51,2.46,11.67-3.55,14.36l-3.72,1.66c-5.49,2.46-10.16.57-13.47-5.42L254.34,179l7.87,35.41c1.37,6.37-.51,10.71-5.82,13.09l-4.07,1.82c-5.31,2.37-9.8.89-13.65-4.38l-21.15-29.46,11.41,32.85c2.26,6.47.55,11.21-4.93,13.66l-3.72,1.66C214.26,246.34,209.54,243.87,207.2,236.73Z"/>
    <path class="cls-5" d="M301.89,200.57l-6.41-57.28c-.79-7.11,2.15-11.31,8.42-12l28.23-3.16c6.26-.7,10.06,2.75,10.86,9.86l.16,1.42c.79,7.1-2.15,11.31-8.41,12L320.19,153l.78,7,12.81-1.43c6.27-.7,10,2.2,10.67,8.1v.11c.67,6-2.33,9.67-8.6,10.37l-12.81,1.43.79,7.11,14.55-1.63c6.27-.7,10.07,2.75,10.86,9.86l.15,1.31c.79,7.11-2.15,11.31-8.41,12l-28.24,3.15C306.49,211.12,302.69,207.68,301.89,200.57Z"/>
    <path class="cls-5" d="M389.12,168.13c7.17-27.46,25.69-35.07,42.95-30.57,17,4.43,29.51,20.16,22.34,47.62-7.3,28-25.67,35-42.93,30.5S381.82,196.12,389.12,168.13Zm42.62,11c2.83-10.85,0-17.83-5.68-19.33-6-1.57-11.66,3.21-14.49,14.07-3,11.49-.32,18.11,5.69,19.67C423,195.05,428.74,190.64,431.74,179.14Z"/>
    <path class="cls-5" d="M464.43,225.33l14.37-59.12c1.91-7.7,7.18-10.44,13.24-6.8l4.49,2.7c4.9,2.94,6.39,7.43,4.41,13.55l-12.1,38,27.89-28.54c4.48-4.63,9.14-5.42,14-2.47l4.49,2.69c6.06,3.65,6.2,9.63.22,14.89L490,240.71c-4.7,4.24-9.25,4.84-14.07,1.95l-6.65-4C464.5,235.77,462.89,231.47,464.43,225.33Z"/>
    <path class="cls-5" d="M512,254.26l41.73-39.77c5.17-4.93,10.3-5.13,14.65-.57L588,234.48c4.35,4.56,3.91,9.67-1.27,14.61l-1,1c-5.18,4.94-10.31,5.14-14.66.57L561,240.05l-5.09,4.86,8.89,9.33c4.35,4.56,4.3,9.29,0,13.39l-.08.08c-4.38,4.17-9.11,4-13.45-.57l-8.9-9.33-5.18,4.93,10.11,10.6c4.34,4.56,3.9,9.67-1.28,14.6l-1,.91c-5.17,4.94-10.3,5.14-14.65.58l-19.59-20.56C506.42,264.3,506.86,259.19,512,254.26Z"/>
    <path class="cls-5" d="M579.31,345.08c-5.78,7.09-10.76,7.4-14.87-.29l-2.06-3.85c-2.65-5-1.79-9.44,2.54-13.9l10.4-10.67c-.22-.41-.45-.81-.67-1.23l-1.83-3.42-10.57,5.65c-6.31,3.37-11.3,2.2-14.28-3.36l-2-3.76c-3-5.55-1.18-10.36,5.13-13.73l50.82-27.19c6.31-3.37,11.3-2.2,14.28,3.36l8.64,16.16c11.61,21.71,4,31.94-10.27,39.57-7.27,3.89-15.77,5.56-23.73,2.51Zm11.2-38.54c2.74,5.13,7,4.19,10.76,2.16,3.59-1.92,6.63-4.86,3.88-10l-1.83-3.42-14.64,7.83Z"/>
  </g>
  <g>
    <circle class="cls-6" cx="349.04" cy="448.04" r="228.96"/>
    <circle class="cls-7" cx="349.04" cy="448.04" r="209.12"/>
  </g>
  <g>
    <path class="cls-8" d="M142.26,685.16l5.38-7.53,9.9-44.21c1.69-7.35,6.61-9.71,12.11-5.79l3.72,2.66c4.07,2.91,5.26,6.82,3.64,12.26l-6.33,20.94,17.83-12.72c4.57-3.23,8.71-3.45,12.79-.54l3.92,2.81c5.5,3.92,4.88,9.48-1.54,13.33L164.93,690l-5,7c-3.76,5.27-8.28,6.32-12.93,3l-3-2.14C139.32,694.56,138.79,690,142.26,685.16Z"/>
    <path class="cls-8" d="M193.74,688.93c10.36-23.51,28-27.64,42.79-21.13,14.53,6.4,23.47,22.25,13.11,45.76-10.56,24-28,27.6-42.76,21.09S183.18,712.9,193.74,688.93Zm36.5,16c4.1-9.3,2.61-15.94-2.28-18.09-5.14-2.27-10.89,1.19-15,10.48-4.34,9.84-2.89,16.14,2.25,18.4C220.12,717.86,225.91,714.75,230.24,704.91Z"/>
    <path class="cls-8" d="M259.48,719.34l5.5-28.55c1.22-6.36,4.9-9.2,10.5-8.12l3.71.71c5.6,1.08,8,5.09,6.73,11.44l-5.48,28.45c-1.69,8.8-.77,12.83,4.05,13.76s7.27-2.45,8.95-11.15l5.5-28.55c1.22-6.36,4.9-9.2,10.5-8.12l3.88.75c5.6,1.08,8,5.08,6.73,11.44l-5.54,28.74c-4.31,22.39-15.37,31.1-34,27.51S255.09,742.12,259.48,719.34Z"/>
    <path class="cls-8" d="M354.26,753.77l-3.62-52c-.45-6.46,2.37-10.15,8.06-10.55l3.76-.26c5.7-.4,9,2.87,9.45,9.33l2.85,40.92,8.06-.56c5.69-.39,9,2.87,9.45,9.33l.08,1.19c.45,6.46-2.37,10.15-8.06,10.54l-20.58,1.44C358,763.49,354.71,760.23,354.26,753.77Z"/>
    <path class="cls-8" d="M395.61,725.19c-6.18-24.94,5.25-39,20.92-42.89,15.42-3.82,32.19,3.26,38.37,28.19,6.31,25.42-5.26,39-20.93,42.83S401.92,750.61,395.61,725.19Zm38.65-9.69c-2.44-9.85-7.68-14.2-12.88-12.91-5.45,1.35-7.88,7.6-5.43,17.45,2.59,10.44,7.58,14.54,13,13.19C434.18,731.94,436.85,725.94,434.26,715.5Z"/>
    <path class="cls-8" d="M502.12,729.15c-9.15,4.29-19.75,5-26.62.07-5.59-4-6-9.56-1.67-13.25l1.28-1.08c3.73-3.17,7.26-2.85,10.54-1.43a10.46,10.46,0,0,0,9,.18c2.86-1.34,4.09-3.68,3.07-5.85-3.47-7.39-29.52,9.24-40.39-13.93-5.77-12.32-.15-24.41,13.39-30.76,10.1-4.74,19.08-5.53,25.75-.92s7.3,10,2,14l-1.14.85c-5.74,4.3-9.22,1.93-12.89.89a8.17,8.17,0,0,0-5.74.39c-2.66,1.24-3.78,3.5-2.8,5.6,4.32,9.19,30.16-9.33,40.83,13.43,5.87,12.52-.73,25.31-14.63,31.83Z"/>
    <path class="cls-8" d="M540.88,695.81l-23.2-33.71L514.93,664c-4.7,3.23-9.2,2.1-12.87-3.23l-.74-1.07c-3.66-5.33-3.11-9.94,1.59-13.18l22.92-15.77c4.7-3.23,9.21-2.1,12.88,3.23l.73,1.07c3.67,5.33,3.11,9.94-1.59,13.18l-2.67,1.84,23.2,33.72c3.67,5.33,3.11,9.94-1.59,13.17l-3,2.09C549.06,702.28,544.55,701.15,540.88,695.81Z"/>
    <path class="cls-8" d="M572.63,651.11c-3.44,3-7.6,2.42-12.18-1.78l-19.1-17.55c-5-4.6-5.24-9.44-.75-13.37l3.7-3.24c4.42-3.88,9.24-3,13.16,2.5l14.94,21.2c3.58,5.06,3.66,9.23.23,12.24ZM575.07,671c-4.79-5.47-3.72-11.31,1.23-15.64,4.49-3.94,10.88-4.63,15.67.84s3.25,11.71-1.24,15.64C585.78,676.12,579.92,676.49,575.07,671Z"/>
  </g>
  <g>
    <g>
      <g>
        <ellipse class="cls-9" cx="408.85" cy="394.02" rx="45.31" ry="73.81" transform="translate(8.68 796.86) rotate(-89.13)"/>
        <ellipse class="cls-10" cx="408.85" cy="394.02" rx="41.24" ry="67.18" transform="translate(8.68 796.86) rotate(-89.13)"/>
        <ellipse class="cls-9" cx="408.85" cy="394.02" rx="36.97" ry="60.24" transform="translate(8.68 796.86) rotate(-89.13)"/>
        <ellipse class="cls-10" cx="408.85" cy="394.02" rx="33.21" ry="53.17" transform="translate(8.69 796.87) rotate(-89.13)"/>
        <ellipse class="cls-9" cx="408.85" cy="394.02" rx="28.45" ry="48.14" transform="translate(8.66 796.84) rotate(-89.13)"/>
        <ellipse class="cls-10" cx="408.85" cy="394.02" rx="23.97" ry="41.82" transform="translate(8.64 796.82) rotate(-89.13)"/>
        <ellipse class="cls-9" cx="408.85" cy="394.02" rx="19.65" ry="34.29" transform="translate(8.64 796.82) rotate(-89.13)"/>
        <ellipse class="cls-10" cx="408.85" cy="394.02" rx="15.45" ry="27.6" transform="translate(8.63 796.81) rotate(-89.12)"/>
        <ellipse class="cls-9" cx="408.85" cy="394.02" rx="11.72" ry="20.93" transform="translate(8.63 796.81) rotate(-89.12)"/>
      </g>
      <g>
        <ellipse class="cls-9" cx="247.83" cy="442.28" rx="69.74" ry="67.91"/>
        <ellipse class="cls-10" cx="247.83" cy="442.28" rx="63.48" ry="61.81"/>
        <ellipse class="cls-9" cx="247.83" cy="442.28" rx="56.92" ry="55.42"/>
        <ellipse class="cls-10" cx="247.83" cy="442.28" rx="49.57" ry="50.45" transform="translate(-252.42 524.63) rotate(-70.08)"/>
        <ellipse class="cls-9" cx="247.83" cy="442.28" rx="45.39" ry="42.73" transform="translate(-86.93 61.54) rotate(-12.06)"/>
        <ellipse class="cls-10" cx="247.83" cy="442.28" rx="39.42" ry="36.02" transform="matrix(0.97, -0.26, 0.26, 0.97, -105.14, 78.36)"/>
        <ellipse class="cls-9" cx="247.83" cy="442.28" rx="32.32" ry="29.53" transform="translate(-105.14 78.36) rotate(-14.86)"/>
        <ellipse class="cls-10" cx="247.83" cy="442.28" rx="26.01" ry="23.22" transform="translate(-112.33 85.46) rotate(-16)"/>
        <ellipse class="cls-9" cx="247.83" cy="442.28" rx="19.73" ry="17.61" transform="translate(-112.33 85.46) rotate(-16)"/>
      </g>
      <g>
        <ellipse class="cls-9" cx="320.24" cy="424.77" rx="93.37" ry="60.3" transform="translate(-122.04 129.19) rotate(-19.23)"/>
        <ellipse class="cls-10" cx="320.24" cy="424.77" rx="84.98" ry="54.88" transform="translate(-122.04 129.19) rotate(-19.23)"/>
        <ellipse class="cls-9" cx="320.24" cy="424.77" rx="76.2" ry="49.21" transform="translate(-122.04 129.19) rotate(-19.23)"/>
        <ellipse class="cls-10" cx="320.24" cy="424.77" rx="67.26" ry="44.2" transform="translate(-121.81 128.85) rotate(-19.19)"/>
        <ellipse class="cls-9" cx="320.24" cy="424.77" rx="60.89" ry="37.87" transform="translate(-122.48 129.85) rotate(-19.32)"/>
        <ellipse class="cls-10" cx="320.24" cy="424.77" rx="52.9" ry="31.91" transform="translate(-122.79 130.3) rotate(-19.38)"/>
        <ellipse class="cls-9" cx="320.24" cy="424.77" rx="43.37" ry="26.16" transform="translate(-122.79 130.3) rotate(-19.38)"/>
        <ellipse class="cls-10" cx="320.24" cy="424.77" rx="34.91" ry="20.56" transform="translate(-122.99 130.61) rotate(-19.42)"/>
        <ellipse class="cls-9" cx="320.24" cy="424.77" rx="26.48" ry="15.6" transform="translate(-122.99 130.61) rotate(-19.42)"/>
      </g>
      <path class="cls-11" d="M494.8,341.88q1.2,3.84,2.21,7.62,1.2,4.33,2.17,8.61c.34,1.52.67,3.05,1,4.56.6,3,1.12,5.9,1.58,8.82,8.47,54-8,99.74-37.91,133.1l10.06,26.28L314.52,588.71l-10.06-26.27c-45-6.19-88.25-30.26-118.15-76.47-1.61-2.49-3.19-5.05-4.71-7.68-.8-1.33-1.57-2.7-2.33-4.07-1.42-2.57-2.81-5.2-4.14-7.89-1.19-2.34-2.33-4.73-3.45-7.16l8.77-3.18,272.12-98.77Z"/>
      <path class="cls-12" d="M495.71,340.29q2.4,7.51,4.55,14.88L176.68,472.61q-3.31-6.93-6.55-14.15Z"/>
      <ellipse class="cls-13" cx="312.54" cy="494.53" rx="13.24" ry="8.25" transform="translate(-145.97 131.21) rotate(-19.31)"/>
      <ellipse class="cls-13" cx="411.22" cy="458.72" rx="13.24" ry="8.25" transform="translate(-128.58 161.83) rotate(-19.31)"/>
      <polygon class="cls-6" points="464.49 507.42 305.27 565.2 303.92 561.67 463.14 503.89 464.49 507.42"/>
      <ellipse class="cls-14" cx="373.45" cy="507.11" rx="15.83" ry="15.41"/>
      <polygon class="cls-15" points="320.57 472.66 301.48 464.64 309.71 446.06 305.09 444.12 296.86 462.7 277.77 454.69 275.77 459.19 294.86 467.21 286.63 485.79 291.25 487.73 299.49 469.15 318.57 477.17 320.57 472.66"/>
      <polygon class="cls-15" points="422.32 435.95 403.24 427.93 411.47 409.35 406.85 407.4 398.61 425.99 379.52 417.97 377.53 422.48 396.62 430.49 388.38 449.08 393.01 451.02 401.24 432.43 420.33 440.45 422.32 435.95"/>
    </g>
    <g>
      <g>
        <path class="cls-16" d="M506.79,484.45a1.93,1.93,0,0,1,.61-.88c1.16-.91,3.24-.44,4.66,1s1.64,3.43.49,4.34a2,2,0,0,1-.83.4,4.27,4.27,0,0,1-3.82-1.43A3.65,3.65,0,0,1,506.79,484.45Z"/>
        <path class="cls-16" d="M511.72,489.35l-6.42,4.47h0l-4-5.31,5.48-4.05a3.65,3.65,0,0,0,1.11,3.47A4.27,4.27,0,0,0,511.72,489.35Z"/>
        <polygon class="cls-16" points="505.3 493.82 503.82 494.86 503.81 494.83 500.04 489.94 499.79 489.62 501.3 488.49 501.31 488.5 505.29 493.81 505.3 493.82"/>
        <polygon class="cls-16" points="503.82 494.86 358.95 595.86 357.93 594.54 499.79 489.62 500.04 489.94 503.81 494.83 503.82 494.86"/>
      </g>
      <g>
        <polyline class="cls-17" points="501.3 488.49 499.79 489.62 357.93 594.54 357.52 594.84"/>
        <polyline class="cls-17" points="506.86 484.39 506.79 484.45 501.31 488.5"/>
        <polyline class="cls-17" points="511.72 489.35 505.3 493.82 503.82 494.86 358.95 595.86"/>
        <path class="cls-17" d="M506.79,484.45a1.93,1.93,0,0,1,.61-.88c1.16-.91,3.24-.44,4.66,1s1.64,3.43.49,4.34a2,2,0,0,1-.83.4,4.27,4.27,0,0,1-3.82-1.43A3.65,3.65,0,0,1,506.79,484.45Z"/>
        <polyline class="cls-17" points="501.3 488.49 501.31 488.5 505.29 493.81"/>
        <line class="cls-17" x1="500.04" y1="489.94" x2="503.8" y2="494.84"/>
      </g>
    </g>
    <g>
      <g>
        <path class="cls-16" d="M522.69,535.28a2,2,0,0,1,.89-.62c1.41-.44,3.19.71,4,2.58s.3,3.76-1.11,4.23a2,2,0,0,1-.91.07h0a4.19,4.19,0,0,1-3.06-2.66A3.56,3.56,0,0,1,522.69,535.28Z"/>
        <path class="cls-16" d="M525.54,541.55l-7.63,2h0l-1.82-6.32,6.6-1.91a3.56,3.56,0,0,0-.21,3.61A4.19,4.19,0,0,0,525.54,541.55Z"/>
        <polygon class="cls-16" points="517.91 543.52 516.13 543.98 516.13 543.97 514.35 538.09 514.23 537.72 516.08 537.18 516.09 537.19 517.91 543.51 517.91 543.52"/>
        <polygon class="cls-16" points="516.13 543.98 343.77 588.74 343.29 587.16 514.23 537.72 514.35 538.09 516.13 543.97 516.13 543.98"/>
      </g>
      <g>
        <polyline class="cls-17" points="516.08 537.18 514.23 537.72 343.29 587.16 342.82 587.3"/>
        <polyline class="cls-17" points="522.77 535.25 522.69 535.28 516.09 537.19"/>
        <polyline class="cls-17" points="525.54 541.55 517.91 543.52 516.13 543.98 343.77 588.74"/>
        <path class="cls-17" d="M522.69,535.28a2,2,0,0,1,.89-.62c1.41-.44,3.19.71,4,2.58s.3,3.76-1.11,4.23a2,2,0,0,1-.91.07h0a4.19,4.19,0,0,1-3.06-2.66A3.56,3.56,0,0,1,522.69,535.28Z"/>
        <polyline class="cls-17" points="516.08 537.18 516.09 537.19 517.91 543.51"/>
        <line class="cls-17" x1="514.35" y1="538.09" x2="516.13" y2="543.97"/>
      </g>
    </g>
  </g>
  <g>
    <path class="cls-5" d="M729.64,246.85v-5.59l-9.32-21.63c-1.26-2.92-.19-5,2.57-5h1.85c2,0,3.29,1.05,4.15,3.26l5,12.88L739,217.92c.87-2.21,2.12-3.26,4.15-3.26h1.92c2.77,0,3.88,2.09,2.62,5l-9.43,21.63v5.38c0,2.74-1.27,4.22-3.6,4.22h-1.44C730.9,250.86,729.64,249.41,729.64,246.85Z"/>
    <path class="cls-5" d="M747.24,236.56c0-10.3,6.39-14.67,12.9-14.67S773,226.26,773,236.56s-6.33,14.71-12.9,14.71S747.24,247,747.24,236.56Zm17.51,0c0-4.39-2-6.91-4.63-6.91s-4.65,2.5-4.65,6.91,2,7,4.66,7S764.75,241,764.75,236.52Z"/>
    <path class="cls-5" d="M797.91,222.29c2.33,0,3.6,1.49,3.6,4.22v20.17c0,2.73-1.27,4.21-3.6,4.21h-1.09c-2.32,0-3.58-1.47-3.59-4a7.59,7.59,0,0,1-7.07,4.3c-6.35,0-9-3.93-9-12.95V226.51c0-2.73,1.26-4.22,3.59-4.22h1.1c2.32,0,3.59,1.49,3.59,4.22v10.8c0,4.19,1.23,6,3.93,6s3.91-2,3.91-6.25V226.51c0-2.73,1.26-4.22,3.59-4.22Z"/>
    <path class="cls-5" d="M817.64,236.56c0-9.34,4-14.67,10.11-14.67a7.61,7.61,0,0,1,7.16,4.77v-9.49c0-2.73,1.27-4.21,3.6-4.21h1.09c2.33,0,3.6,1.48,3.6,4.21v29.42c0,2.74-1.27,4.22-3.6,4.22h-1.09c-2.24,0-3.6-1.21-3.6-3.22v-1a7.63,7.63,0,0,1-7.14,4.63C821.69,251.27,817.64,245.88,817.64,236.56Zm17.55,0c0-4.22-1.84-6.91-4.65-6.91s-4.65,2.71-4.65,6.91,1.87,7,4.68,7S835.19,240.8,835.19,236.52Z"/>
    <path class="cls-5" d="M848.06,214.38c0-3.1,1.92-4.72,4.62-4.72a4.72,4.72,0,0,1,0,9.43C850,219.09,848.06,217.51,848.06,214.38Zm.44,32.26V226.47c0-2.73,1.26-4.21,3.58-4.21h1.13c2.31,0,3.57,1.48,3.57,4.21v20.17c0,2.74-1.26,4.22-3.57,4.22h-1.13C849.76,250.86,848.5,249.38,848.5,246.64Z"/>
    <path class="cls-5" d="M861.23,236.56c0-9.34,4-14.67,10.12-14.67a7.61,7.61,0,0,1,7.16,4.77v-9.49c0-2.73,1.26-4.21,3.59-4.21h1.1c2.33,0,3.59,1.48,3.59,4.21v29.42c0,2.74-1.26,4.22-3.59,4.22h-1.1c-2.24,0-3.59-1.21-3.59-3.22v-1a7.63,7.63,0,0,1-7.15,4.63C865.28,251.27,861.23,245.88,861.23,236.56Zm17.55,0c0-4.22-1.84-6.91-4.64-6.91s-4.65,2.71-4.65,6.91,1.87,7,4.67,7S878.78,240.8,878.78,236.52Z"/>
    <path class="cls-5" d="M916.53,234.88v11.76c0,2.74-1.27,4.22-3.59,4.22h-1.1c-2.33,0-3.59-1.48-3.59-4.22v-10.8c0-4.19-1.23-6-3.93-6-2.85,0-3.91,2-3.91,6.25v10.59c0,2.74-1.26,4.22-3.59,4.22h-1.1c-2.33,0-3.59-1.48-3.59-4.22V226.47c0-2.73,1.26-4.21,3.59-4.21h1.1c2.31,0,3.58,1.47,3.59,4a7.6,7.6,0,0,1,7.06-4.33C913.83,221.9,916.53,225.86,916.53,234.88Z"/>
    <path class="cls-5" d="M920.56,226.13l2.52-8.09c.73-2.33,2-3.38,4.12-3.38h.54c2.81,0,3.89,2.05,2.55,5L926.52,228a4.33,4.33,0,0,1-4.26,3h-.13C920.32,230.94,919.47,229.62,920.56,226.13Z"/>
    <path class="cls-5" d="M945.59,251.33c-7,0-10.23-3.19-10.23-11.87v-10h-.66c-1.71,0-2.65-1.41-2.65-3.64s1-3.59,2.61-3.59h.7V220.7c0-2.53.95-3.71,3.46-4.34l.91-.23c2.91-.72,3.95.47,3.95,3.53v2.6h2.53c2.62,0,3.59,1.26,3.59,3.59s-1,3.64-3.59,3.64h-2.53v9.25c0,3.48,1,4.89,3.33,5.07a3,3,0,0,1,2.92,3.32c0,2.24-.86,3.84-3.14,4.11a8.5,8.5,0,0,1-1.2.09Z"/>
    <path class="cls-5" d="M1004.33,235.18v11.46c0,2.74-1.27,4.22-3.6,4.22h-1.09c-2.33,0-3.59-1.48-3.59-4.22v-10.5c0-4.69-.92-6.36-3.51-6.36s-3.58,1.7-3.58,6v10.87c0,2.74-1.27,4.22-3.6,4.22h-1.09c-2.33,0-3.6-1.48-3.6-4.22V236.16c0-4.76-.86-6.36-3.42-6.36s-3.59,1.81-3.59,6.48v10.36c0,2.74-1.26,4.22-3.59,4.22H969c-2.33,0-3.6-1.48-3.6-4.22V226.47c0-2.73,1.27-4.21,3.6-4.21h1.09c2.27,0,3.53,1.25,3.59,3.63,1-2.44,3.55-4,6.75-4,3.8,0,5.86,1.49,7.24,5.32a8.87,8.87,0,0,1,8.13-5.34C1001.83,221.89,1004.33,225.63,1004.33,235.18Z"/>
    <path class="cls-5" d="M1018.55,251.27c-6.08,0-10.13-5.39-10.13-14.71s4-14.67,10.12-14.67a7.63,7.63,0,0,1,7.16,4.77v-.55c0-2.6,1.33-3.85,3.6-3.85h1.1c2.32,0,3.59,1.48,3.59,4.21v20.12c0,2.74-1.27,4.22-3.59,4.22h-1.1c-2.24,0-3.64-1.2-3.6-3.7v-.47a7.63,7.63,0,0,1-7.15,4.63Zm7.42-14.75c0-4.22-1.85-6.91-4.64-6.91s-4.65,2.71-4.65,6.91,1.87,7,4.67,7S1026,240.8,1026,236.52Z"/>
    <path class="cls-5" d="M1059.44,250.86h-1.59c-2,0-3.14-1-4.28-2.93l-5.86-10.28v9c0,2.74-1.27,4.22-3.59,4.22H1043c-2.33,0-3.59-1.48-3.59-4.22V217.17c0-2.73,1.26-4.21,3.59-4.21h1.13c2.32,0,3.59,1.48,3.59,4.21v17.48l5.42-9.48c1.11-2,2.29-2.91,4.26-2.91h1.48c2.91,0,4.15,2.25,2.38,5.05l-5.4,8.66,6,9.83C1063.34,248.71,1062.33,250.86,1059.44,250.86Z"/>
    <path class="cls-5" d="M1064.37,236.56c0-8.8,5.18-14.67,12.7-14.67,7.1,0,11.65,4.61,12.24,12.49.22,2.81-1,4.21-3.59,4.21h-13.06c0,3.77,2,6,5.12,6a5.84,5.84,0,0,0,4.17-1.68c1.22-1.09,1.92-1.65,3.69-1.16l.66.18c2.43.68,2.76,2.29,1.14,4.56-2,2.87-5.55,4.71-10.19,4.71C1069.46,251.23,1064.37,245.54,1064.37,236.56ZM1077.3,228c-2.48,0-4.31,1.82-4.55,5h9C1081.62,230,1079.85,228,1077.3,228Z"/>
    <path class="cls-5" d="M1121.19,226.25l-.07.71c-.23,2.56-1.51,3.3-3.64,3.88-2.43.67-3.79,2.82-3.79,7.24v8.56c0,2.74-1.26,4.22-3.59,4.22H1109c-2.32,0-3.59-1.48-3.59-4.22V226.47c0-2.73,1.27-4.21,3.59-4.21h1.1c2.33,0,3.59,1.18,3.59,3.77.67-1.92,2.2-4,4.9-4C1120.63,222,1121.44,223.31,1121.19,226.25Z"/>
    <path class="cls-5" d="M1133.05,251.27c-6.08,0-10.12-5.39-10.12-14.71s4-14.67,10.11-14.67a7.62,7.62,0,0,1,7.16,4.77v-.55c0-2.6,1.33-3.85,3.6-3.85h1.1c2.33,0,3.59,1.48,3.59,4.21v20.12c0,2.74-1.26,4.22-3.59,4.22h-1.1c-2.24,0-3.64-1.2-3.6-3.7v-.47a7.63,7.63,0,0,1-7.15,4.63Zm7.43-14.75c0-4.22-1.86-6.91-4.65-6.91s-4.65,2.71-4.65,6.91,1.87,7,4.68,7S1140.48,240.8,1140.48,236.52Z"/>
    <path class="cls-5" d="M1192.77,235.18v11.46c0,2.74-1.27,4.22-3.6,4.22h-1.09c-2.33,0-3.6-1.48-3.6-4.22v-10.5c0-4.69-.91-6.36-3.5-6.36s-3.59,1.7-3.59,6v10.87c0,2.74-1.26,4.22-3.59,4.22h-1.09c-2.33,0-3.6-1.48-3.6-4.22V236.16c0-4.76-.86-6.36-3.42-6.36s-3.59,1.81-3.59,6.48v10.36c0,2.74-1.26,4.22-3.59,4.22h-1.1c-2.32,0-3.59-1.48-3.59-4.22V226.47c0-2.73,1.27-4.21,3.59-4.21h1.1c2.27,0,3.53,1.25,3.59,3.63,1-2.44,3.55-4,6.75-4,3.8,0,5.86,1.49,7.24,5.32a8.87,8.87,0,0,1,8.13-5.34C1190.27,221.89,1192.77,225.63,1192.77,235.18Z"/>
    <path class="cls-5" d="M1196.86,236.56c0-8.8,5.18-14.67,12.7-14.67,7.1,0,11.65,4.61,12.24,12.49.21,2.81-1,4.21-3.59,4.21h-13.07c.06,3.77,2,6,5.13,6a5.84,5.84,0,0,0,4.17-1.68c1.22-1.09,1.91-1.65,3.69-1.16l.66.18c2.43.68,2.76,2.29,1.14,4.56-2,2.87-5.55,4.71-10.19,4.71C1202,251.23,1196.86,245.54,1196.86,236.56Zm12.93-8.52c-2.48,0-4.32,1.82-4.55,5h9C1214.11,230,1212.34,228,1209.79,228Z"/>
    <path class="cls-5" d="M1250.67,234.88v11.76c0,2.74-1.27,4.22-3.6,4.22H1246c-2.33,0-3.6-1.48-3.6-4.22v-10.8c0-4.19-1.22-6-3.93-6s-3.9,2-3.9,6.25v10.59c0,2.74-1.27,4.22-3.59,4.22h-1.1c-2.33,0-3.59-1.48-3.59-4.22V226.47c0-2.73,1.26-4.21,3.59-4.21h1.1c2.31,0,3.58,1.47,3.59,4a7.6,7.6,0,0,1,7.06-4.33C1248,221.9,1250.67,225.86,1250.67,234.88Z"/>
    <path class="cls-5" d="M912.53,290.86c-2.32,0-3.59-1.48-3.59-4.22V257.17c0-2.73,1.27-4.21,3.59-4.21h1.1c2.33,0,3.59,1.48,3.59,4.21v9a7.61,7.61,0,0,1,7.07-4.5c5.67,0,9.05,3.17,9.05,13.19v11.76c0,2.74-1.26,4.22-3.59,4.22h-1.1c-2.32,0-3.59-1.48-3.59-4.22v-10.8c0-4.51-1.26-6-3.93-6s-3.91,1.72-3.91,6.25v10.59c0,2.74-1.26,4.22-3.59,4.22Z"/>
    <path class="cls-5" d="M947.58,291.27c-6.08,0-10.13-5.39-10.13-14.71s4-14.67,10.11-14.67a7.62,7.62,0,0,1,7.16,4.77v-.55c0-2.6,1.34-3.85,3.61-3.85h1.09c2.33,0,3.59,1.48,3.59,4.21v20.12c0,2.74-1.26,4.22-3.59,4.22h-1.09c-2.24,0-3.65-1.2-3.61-3.7v-.47a7.63,7.63,0,0,1-7.14,4.63ZM955,276.52c0-4.22-1.86-6.91-4.65-6.91s-4.65,2.71-4.65,6.91,1.87,7,4.68,7S955,280.8,955,276.52Z"/>
    <path class="cls-5" d="M968.34,295.89V266.47c0-2.73,1.27-4.21,3.6-4.21H973c2.24,0,3.6,1.21,3.6,3.22v.94a8.21,8.21,0,0,1,7.16-4.55c6,0,10.11,5.18,10.11,14.64s-4.12,14.69-10.13,14.69a7.62,7.62,0,0,1-7.14-4.77v9.46c0,2.74-1.27,4.22-3.6,4.22h-1.09C969.61,300.11,968.34,298.63,968.34,295.89Zm17.31-19.35c0-4.24-1.86-7-4.65-7s-4.65,2.67-4.65,7,1.84,6.91,4.62,6.91S985.65,280.74,985.65,276.54Z"/>
    <path class="cls-5" d="M998.3,295.89V266.47c0-2.73,1.27-4.21,3.59-4.21h1.1c2.24,0,3.59,1.21,3.59,3.22v.94a8.22,8.22,0,0,1,7.16-4.55c6,0,10.12,5.18,10.12,14.64s-4.13,14.69-10.13,14.69a7.65,7.65,0,0,1-7.15-4.77v9.46c0,2.74-1.26,4.22-3.59,4.22h-1.1C999.57,300.11,998.3,298.63,998.3,295.89Zm17.3-19.35c0-4.24-1.85-7-4.64-7s-4.65,2.67-4.65,7,1.84,6.91,4.62,6.91S1015.6,280.74,1015.6,276.54Z"/>
    <path class="cls-5" d="M1032.66,296l1.84-5.23-8-23.67c-1-2.91.16-4.84,2.8-4.84h1.51c2.1,0,3.4,1.18,4,3.52l4.09,14.55,4.06-14.55c.66-2.34,2-3.52,4-3.52h1.49c2.67,0,3.82,1.95,2.85,4.84l-9.94,29.68c-.78,2.3-2.13,3.3-4.17,3.3h-1.6C1033,300.11,1031.8,298.46,1032.66,296Z"/>
    <path class="cls-5" d="M1054.65,286.65c0-3.1,1.93-4.72,4.63-4.72a4.73,4.73,0,0,1,0,9.45C1056.58,291.38,1054.65,289.78,1054.65,286.65Zm1.43-11.8-1.26-15.75c-.23-2.86,1-4.44,3.41-4.44h2c2.4,0,3.64,1.58,3.42,4.44l-1.22,15.75c-.21,2.63-1.31,4-3.18,4S1056.29,277.49,1056.08,274.85Z"/>
  </g>
  <g>
    <path class="cls-18" d="M786.22,417.23v-6.52l-12-29.33c-2-4.9-.17-8.26,4.42-8.26h3.1c3.4,0,5.61,1.75,6.86,5.53l4.78,14.56,4.83-14.56c1.25-3.71,3.46-5.53,6.86-5.53h3.28c4.6,0,6.44,3.43,4.42,8.26l-12.11,29.33v6.1c0,4.55-2.09,7-6,7h-2.51C788.3,423.81,786.22,421.43,786.22,417.23Z"/>
    <path class="cls-18" d="M815,398.53c0-18.06,9.84-25.72,20.82-25.72,10.8,0,20.7,7.66,20.7,25.72,0,18.42-9.84,25.69-20.82,25.69S815,417,815,398.53Zm27.09-.07c0-7.14-2.75-11-6.39-11-3.82,0-6.44,3.85-6.44,11,0,7.56,2.62,11.2,6.44,11.2C839.29,409.66,842,406,842,398.46Z"/>
    <path class="cls-18" d="M862.44,400.56V380.12c0-4.55,2.09-7,6-7H871c3.88,0,6,2.45,6,7v20.37c0,6.3,1.14,9,4.48,9s4.53-2.66,4.53-8.89V380.12c0-4.55,2.09-7,6-7h2.68c3.88,0,6,2.45,6,7V400.7c0,16-6.26,23.52-19.15,23.52S862.44,416.88,862.44,400.56Z"/>
    <path class="cls-18" d="M924.42,416.81V380.12c0-4.55,2.09-7,6-7h17.48c3.88,0,6,2.45,6,7V381c0,4.55-2.09,7-6,7h-9v4.48h7.94c3.87,0,6,2.1,6,5.88v.07c0,3.85-2.09,6-6,6h-7.94V409h9c3.88,0,6,2.45,6,7v.84c0,4.55-2.09,7-6,7H930.39C926.51,423.81,924.42,421.36,924.42,416.81Z"/>
    <path class="cls-18" d="M999.23,415.76c1.5,4.83-.47,8.05-4.83,8.05h-2.56c-3.52,0-5.67-1.89-6.63-5.95l-.13-.56h-12.2l-.13.56c-1,4.06-3.11,5.95-6.63,5.95H963.5c-4.36,0-6.27-3.22-4.83-8.05l11.15-37c1.14-3.85,3.34-5.67,6.8-5.67h4.66c3.46,0,5.67,1.82,6.8,5.67l11.16,37Zm-16.87-9.95L979,391.39l-3.38,14.42Z"/>
    <path class="cls-18" d="M1039.8,415.55c2.18,5.37.9,8.26-4.47,8.26h-2.69c-3.46,0-5.64-1.83-6.8-5.6l-2.78-9h-3.24v7.63c0,4.55-2.09,7-6,7h-2.63c-3.87,0-6-2.45-6-7V380.12c0-4.55,2.09-7,6-7h11.28c15.15,0,18.5,7.35,18.5,17.64,0,5.25-1.57,10.52-5.53,14.07Zm-17.66-17.85c3.58,0,4.3-2.66,4.3-5.39s-.72-5.19-4.3-5.19h-2.39V397.7Z"/>
    <path class="cls-18" d="M1047.8,416.81V380.12c0-4.55,2.08-7,6-7h3c3.28,0,5.48,1.47,7.1,4.9l8.77,18.55V380.12c0-4.55,2.08-7,6-7h2.51c3.88,0,6,2.45,6,7v36.69c0,4.55-2.08,7-6,7h-3.05c-3.28,0-5.48-1.47-7.1-4.9l-8.71-18.49v16.39c0,4.55-2.08,7-6,7h-2.57C1049.88,423.81,1047.8,421.36,1047.8,416.81Z"/>
    <path class="cls-18" d="M1095.46,416.81V380.12c0-4.55,2.09-7,6-7h17.48c3.88,0,6,2.45,6,7V381c0,4.55-2.09,7-6,7h-9v4.48h7.94c3.88,0,6,2.1,6,5.88v.07c0,3.85-2.08,6-6,6h-7.94V409h9c3.88,0,6,2.45,6,7v.84c0,4.55-2.09,7-6,7h-17.48C1097.55,423.81,1095.46,421.36,1095.46,416.81Z"/>
    <path class="cls-18" d="M1132,416.81V380.12c0-4.55,2.08-7,6-7h8.24c17.36,0,23.68,9.59,23.68,25.41,0,15.4-6.32,25.28-23.68,25.28H1138C1134.12,423.81,1132,421.36,1132,416.81Zm14.85-7.85c7.46,0,8.41-4,8.41-10.57s-1-10.57-8.53-10.57h-.3V409Z"/>
    <path class="cls-18" d="M1174.69,390.62c0-5.11,3.16-7.7,7.64-7.7,4.06,0,7.64,2.59,7.64,7.7s-3.58,7.7-7.64,7.7C1177.85,398.32,1174.69,395.8,1174.69,390.62Zm0,26.19c0-5.12,3.16-7.71,7.64-7.71,4.06,0,7.64,2.59,7.64,7.71s-3.58,7.7-7.64,7.7C1177.85,424.51,1174.69,422,1174.69,416.81Z"/>
  </g>
</svg>
